Playwrite-Th00LongSlow.ufo
<glyph name="ampersand" format="2">
  <advance width="1321"/>
  <unicode hex="0026"/>
  <outline>
    <contour>
      <point x="520" y="-19" type="curve" smooth="yes"/>
      <point x="692" y="-19"/>
      <point x="839" y="63"/>
      <point x="944" y="203" type="curve"/>
      <point x="1133" y="-9" type="line" smooth="yes"/>
      <point x="1141" y="-19"/>
      <point x="1149" y="-17"/>
      <point x="1159" y="-9" type="curve" smooth="yes"/>
      <point x="1168" y="-1"/>
      <point x="1168" y="8"/>
      <point x="1161" y="15" type="curve" smooth="yes"/>
      <point x="966" y="234" type="line"/>
      <point x="1057" y="370"/>
      <point x="1110" y="553"/>
      <point x="1110" y="763" type="curve" smooth="yes"/>
      <point x="1110" y="774"/>
      <point x="1104" y="778"/>
      <point x="1091" y="778" type="curve" smooth="yes"/>
      <point x="1079" y="778"/>
      <point x="1074" y="774"/>
      <point x="1074" y="763" type="curve" smooth="yes"/>
      <point x="1074" y="565"/>
      <point x="1025" y="392"/>
      <point x="941" y="262" type="curve"/>
      <point x="475" y="785" type="line"/>
      <point x="647" y="895"/>
      <point x="828" y="995"/>
      <point x="828" y="1216" type="curve" smooth="yes"/>
      <point x="828" y="1413"/>
      <point x="686" y="1515"/>
      <point x="543" y="1515" type="curve" smooth="yes"/>
      <point x="368" y="1515"/>
      <point x="241" y="1378"/>
      <point x="241" y="1189" type="curve" smooth="yes"/>
      <point x="241" y="1047"/>
      <point x="286" y="944"/>
      <point x="418" y="792" type="curve"/>
      <point x="267" y="691"/>
      <point x="128" y="571"/>
      <point x="128" y="345" type="curve" smooth="yes"/>
      <point x="128" y="119"/>
      <point x="276" y="-19"/>
    </contour>
    <contour>
      <point x="520" y="19" type="curve" smooth="yes"/>
      <point x="301" y="19"/>
      <point x="169" y="145"/>
      <point x="169" y="353" type="curve" smooth="yes"/>
      <point x="169" y="558"/>
      <point x="299" y="668"/>
      <point x="443" y="764" type="curve"/>
      <point x="919" y="231" type="line"/>
      <point x="820" y="98"/>
      <point x="681" y="19"/>
    </contour>
    <contour>
      <point x="450" y="813" type="curve"/>
      <point x="324" y="955"/>
      <point x="281" y="1052"/>
      <point x="281" y="1190" type="curve" smooth="yes"/>
      <point x="281" y="1356"/>
      <point x="391" y="1478"/>
      <point x="543" y="1478" type="curve" smooth="yes"/>
      <point x="694" y="1478"/>
      <point x="789" y="1375"/>
      <point x="789" y="1216" type="curve" smooth="yes"/>
      <point x="789" y="1017"/>
      <point x="618" y="922"/>
    </contour>
  </outline>
</glyph>
<glyph name="plus" format="2">
  <advance width="763"/>
  <unicode hex="002B"/>
  <outline>
    <contour>
      <point x="380" y="155" type="curve" smooth="yes"/>
      <point x="393" y="155"/>
      <point x="399" y="159"/>
      <point x="399" y="170" type="curve" smooth="yes"/>
      <point x="399" y="703" type="line" smooth="yes"/>
      <point x="399" y="714"/>
      <point x="393" y="718"/>
      <point x="380" y="718" type="curve" smooth="yes"/>
      <point x="369" y="718"/>
      <point x="364" y="714"/>
      <point x="364" y="703" type="curve" smooth="yes"/>
      <point x="364" y="170" type="line" smooth="yes"/>
      <point x="364" y="159"/>
      <point x="369" y="155"/>
    </contour>
    <component base="minus"/>
  </outline>
</glyph>
<glyph name="period" format="2">
  <advance width="313"/>
  <unicode hex="002E"/>
  <outline>
    <contour>
      <point x="156" y="-14" type="curve" smooth="yes"/>
      <point x="183" y="-14"/>
      <point x="196" y="1"/>
      <point x="196" y="31" type="curve" smooth="yes"/>
      <point x="196" y="61"/>
      <point x="183" y="76"/>
      <point x="156" y="76" type="curve" smooth="yes"/>
      <point x="130" y="76"/>
      <point x="116" y="61"/>
      <point x="116" y="31" type="curve" smooth="yes"/>
      <point x="116" y="1"/>
      <point x="130" y="-14"/>
    </contour>
  </outline>
</glyph>
<glyph name="at" format="2">
  <advance width="958"/>
  <unicode hex="0040"/>
  <outline>
    <contour>
      <point x="314" y="250" type="curve" smooth="yes"/>
      <point x="314" y="124"/>
      <point x="378" y="53"/>
      <point x="463" y="53" type="curve" smooth="yes"/>
      <point x="511" y="53"/>
      <point x="563" y="74"/>
      <point x="595" y="140" type="curve"/>
      <point x="595" y="135"/>
      <point x="595" y="129"/>
      <point x="595" y="124" type="curve" smooth="yes"/>
      <point x="595" y="79"/>
      <point x="627" y="53"/>
      <point x="686" y="53" type="curve" smooth="yes"/>
      <point x="790" y="53"/>
      <point x="900" y="151"/>
      <point x="900" y="309" type="curve" smooth="yes"/>
      <point x="900" y="540"/>
      <point x="745" y="684"/>
      <point x="494" y="684" type="curve" smooth="yes"/>
      <point x="227" y="684"/>
      <point x="73" y="493"/>
      <point x="73" y="255" type="curve" smooth="yes"/>
      <point x="73" y="17"/>
      <point x="215" y="-174"/>
      <point x="484" y="-174" type="curve" smooth="yes"/>
      <point x="558" y="-174"/>
      <point x="630" y="-160"/>
      <point x="694" y="-130" type="curve" smooth="yes"/>
      <point x="703" y="-126"/>
      <point x="706" y="-119"/>
      <point x="701" y="-107" type="curve" smooth="yes"/>
      <point x="696" y="-97"/>
      <point x="690" y="-94"/>
      <point x="681" y="-97" type="curve" smooth="yes"/>
      <point x="621" y="-125"/>
      <point x="550" y="-141"/>
      <point x="484" y="-141" type="curve" smooth="yes"/>
      <point x="234" y="-141"/>
      <point x="105" y="37"/>
      <point x="105" y="255" type="curve" smooth="yes"/>
      <point x="105" y="473"/>
      <point x="247" y="651"/>
      <point x="494" y="651" type="curve" smooth="yes"/>
      <point x="724" y="651"/>
      <point x="868" y="519"/>
      <point x="868" y="309" type="curve" smooth="yes"/>
      <point x="868" y="165"/>
      <point x="769" y="84"/>
      <point x="685" y="84" type="curve" smooth="yes"/>
      <point x="646" y="84"/>
      <point x="629" y="101"/>
      <point x="629" y="135" type="curve" smooth="yes"/>
      <point x="629" y="450" type="line" smooth="yes"/>
      <point x="629" y="459"/>
      <point x="625" y="463"/>
      <point x="613" y="463" type="curve" smooth="yes"/>
      <point x="601" y="463"/>
      <point x="595" y="459"/>
      <point x="595" y="450" type="curve" smooth="yes"/>
      <point x="595" y="435" type="line"/>
      <point x="560" y="456"/>
      <point x="525" y="466"/>
      <point x="493" y="466" type="curve" smooth="yes"/>
      <point x="378" y="466"/>
      <point x="314" y="376"/>
    </contour>
    <contour>
      <point x="351" y="253" type="curve" smooth="yes"/>
      <point x="351" y="369"/>
      <point x="406" y="434"/>
      <point x="491" y="434" type="curve" smooth="yes"/>
      <point x="524" y="434"/>
      <point x="558" y="426"/>
      <point x="595" y="401" type="curve"/>
      <point x="595" y="208" type="line"/>
      <point x="571" y="115"/>
      <point x="519" y="85"/>
      <point x="470" y="85" type="curve" smooth="yes"/>
      <point x="391" y="85"/>
      <point x="351" y="155"/>
    </contour>
  </outline>
</glyph>
<glyph name="E" format="2">
  <advance width="1026"/>
  <unicode hex="0045"/>
  <anchor x="590" y="0" name="bottom"/>
  <anchor x="944" y="21" name="ogonek"/>
  <anchor x="599" y="1424" name="top"/>
  <outline>
    <contour>
      <point x="260" y="0" type="curve" smooth="yes"/>
      <point x="934" y="0" type="line" smooth="yes"/>
      <point x="940" y="0"/>
      <point x="945" y="5"/>
      <point x="945" y="18" type="curve" smooth="yes"/>
      <point x="945" y="30"/>
      <point x="940" y="35"/>
      <point x="934" y="35" type="curve" smooth="yes"/>
      <point x="279" y="35" type="line"/>
      <point x="279" y="769" type="line"/>
      <point x="836" y="769" type="line" smooth="yes"/>
      <point x="843" y="769"/>
      <point x="848" y="774"/>
      <point x="848" y="786" type="curve" smooth="yes"/>
      <point x="848" y="799"/>
      <point x="843" y="804"/>
      <point x="836" y="804" type="curve" smooth="yes"/>
      <point x="279" y="804" type="line"/>
      <point x="279" y="1453" type="line"/>
      <point x="934" y="1453" type="line" smooth="yes"/>
      <point x="940" y="1453"/>
      <point x="945" y="1458"/>
      <point x="945" y="1470" type="curve" smooth="yes"/>
      <point x="945" y="1483"/>
      <point x="940" y="1488"/>
      <point x="934" y="1488" type="curve" smooth="yes"/>
      <point x="261" y="1488" type="line" smooth="yes"/>
      <point x="248" y="1488"/>
      <point x="241" y="1484"/>
      <point x="241" y="1473" type="curve" smooth="yes"/>
      <point x="241" y="15" type="line" smooth="yes"/>
      <point x="241" y="4"/>
      <point x="246" y="0"/>
    </contour>
  </outline>
</glyph>
<glyph name="J" format="2">
  <advance width="1006"/>
  <unicode hex="004A"/>
  <anchor x="465" y="0" name="bottom"/>
  <anchor x="775" y="1424" name="top"/>
  <outline>
    <contour>
      <point x="446" y="-19" type="curve" smooth="yes"/>
      <point x="680" y="-19"/>
      <point x="794" y="135"/>
      <point x="794" y="441" type="curve" smooth="yes"/>
      <point x="794" y="1496" type="line" smooth="yes"/>
      <point x="794" y="1511"/>
      <point x="789" y="1515"/>
      <point x="774" y="1515" type="curve" smooth="yes"/>
      <point x="758" y="1515"/>
      <point x="754" y="1511"/>
      <point x="754" y="1496" type="curve" smooth="yes"/>
      <point x="754" y="436" type="line" smooth="yes"/>
      <point x="754" y="165"/>
      <point x="661" y="19"/>
      <point x="446" y="19" type="curve" smooth="yes"/>
      <point x="284" y="19"/>
      <point x="188" y="99"/>
      <point x="146" y="266" type="curve" smooth="yes"/>
      <point x="141" y="288"/>
      <point x="136" y="295"/>
      <point x="121" y="291" type="curve" smooth="yes"/>
      <point x="106" y="288"/>
      <point x="106" y="279"/>
      <point x="111" y="255" type="curve" smooth="yes"/>
      <point x="153" y="76"/>
      <point x="265" y="-19"/>
    </contour>
  </outline>
</glyph>
<glyph name="K" format="2">
  <advance width="1065"/>
  <unicode hex="004B"/>
  <anchor x="590" y="0" name="bottom"/>
  <anchor x="590" y="1424" name="top"/>
  <outline>
    <contour>
      <point x="260" y="-14" type="curve" smooth="yes"/>
      <point x="274" y="-14"/>
      <point x="279" y="-10"/>
      <point x="279" y="1" type="curve" smooth="yes"/>
      <point x="279" y="780" type="line"/>
      <point x="476" y="524"/>
      <point x="739" y="209"/>
      <point x="991" y="-10" type="curve" smooth="yes"/>
      <point x="1000" y="-17"/>
      <point x="1006" y="-20"/>
      <point x="1016" y="-10" type="curve" smooth="yes"/>
      <point x="1026" y="0"/>
      <point x="1029" y="6"/>
      <point x="1020" y="14" type="curve" smooth="yes"/>
      <point x="768" y="236"/>
      <point x="524" y="521"/>
      <point x="321" y="788" type="curve"/>
      <point x="1005" y="1486" type="line" smooth="yes"/>
      <point x="1014" y="1495"/>
      <point x="1014" y="1500"/>
      <point x="1004" y="1510" type="curve" smooth="yes"/>
      <point x="994" y="1520"/>
      <point x="988" y="1519"/>
      <point x="979" y="1510" type="curve" smooth="yes"/>
      <point x="279" y="793" type="line"/>
      <point x="279" y="1500" type="line" smooth="yes"/>
      <point x="279" y="1511"/>
      <point x="274" y="1515"/>
      <point x="260" y="1515" type="curve" smooth="yes"/>
      <point x="246" y="1515"/>
      <point x="241" y="1511"/>
      <point x="241" y="1500" type="curve" smooth="yes"/>
      <point x="241" y="1" type="line" smooth="yes"/>
      <point x="241" y="-10"/>
      <point x="246" y="-14"/>
    </contour>
  </outline>
</glyph>
<glyph name="O" format="2">
  <advance width="1434"/>
  <unicode hex="004F"/>
  <anchor x="718" y="0" name="bottom"/>
  <anchor x="718" y="744" name="center"/>
  <anchor x="916" y="11" name="ogonek"/>
  <anchor x="718" y="1424" name="top"/>
  <anchor x="1004" y="1424" name="topright"/>
  <outline>
    <contour>
      <point x="719" y="-19" type="curve" smooth="yes"/>
      <point x="1060" y="-19"/>
      <point x="1284" y="285"/>
      <point x="1284" y="749" type="curve" smooth="yes"/>
      <point x="1284" y="1211"/>
      <point x="1060" y="1515"/>
      <point x="719" y="1515" type="curve" smooth="yes"/>
      <point x="375" y="1515"/>
      <point x="150" y="1211"/>
      <point x="150" y="749" type="curve" smooth="yes"/>
      <point x="150" y="285"/>
      <point x="375" y="-19"/>
    </contour>
    <contour>
      <point x="719" y="19" type="curve" smooth="yes"/>
      <point x="400" y="19"/>
      <point x="191" y="308"/>
      <point x="191" y="749" type="curve" smooth="yes"/>
      <point x="191" y="1189"/>
      <point x="400" y="1478"/>
      <point x="719" y="1478" type="curve" smooth="yes"/>
      <point x="1035" y="1478"/>
      <point x="1243" y="1189"/>
      <point x="1243" y="749" type="curve" smooth="yes"/>
      <point x="1243" y="308"/>
      <point x="1035" y="19"/>
    </contour>
  </outline>
</glyph>
<glyph name="P" format="2">
  <advance width="1085"/>
  <unicode hex="0050"/>
  <guideline x="288" y="630" angle="270"/>
  <outline>
    <contour>
      <point x="260" y="-14" type="curve" smooth="yes"/>
      <point x="274" y="-14"/>
      <point x="279" y="-10"/>
      <point x="279" y="1" type="curve" smooth="yes"/>
      <point x="279" y="636" type="line"/>
      <point x="356" y="641"/>
      <point x="433" y="648"/>
      <point x="514" y="656" type="curve" smooth="yes"/>
      <point x="824" y="688"/>
      <point x="1003" y="853"/>
      <point x="1003" y="1116" type="curve" smooth="yes"/>
      <point x="1003" y="1384"/>
      <point x="848" y="1488"/>
      <point x="558" y="1488" type="curve" smooth="yes"/>
      <point x="261" y="1488" type="line" smooth="yes"/>
      <point x="248" y="1488"/>
      <point x="241" y="1484"/>
      <point x="241" y="1473" type="curve" smooth="yes"/>
      <point x="241" y="1" type="line" smooth="yes"/>
      <point x="241" y="-10"/>
      <point x="246" y="-14"/>
    </contour>
    <contour>
      <point x="279" y="671" type="curve"/>
      <point x="279" y="1453" type="line"/>
      <point x="558" y="1453" type="line" smooth="yes"/>
      <point x="823" y="1453"/>
      <point x="961" y="1359"/>
      <point x="961" y="1114" type="curve" smooth="yes"/>
      <point x="961" y="865"/>
      <point x="791" y="720"/>
      <point x="511" y="691" type="curve" smooth="yes"/>
      <point x="449" y="685"/>
      <point x="353" y="676"/>
    </contour>
  </outline>
</glyph>
<glyph name="T" format="2">
  <advance width="1071"/>
  <unicode hex="0054"/>
  <anchor x="535" y="0" name="bottom"/>
  <anchor x="535" y="744" name="center"/>
  <anchor x="535" y="1424" name="top"/>
  <outline>
    <contour>
      <point x="535" y="-14" type="curve" smooth="yes"/>
      <point x="549" y="-14"/>
      <point x="554" y="-10"/>
      <point x="554" y="1" type="curve" smooth="yes"/>
      <point x="554" y="1453" type="line"/>
      <point x="1011" y="1453" type="line" smooth="yes"/>
      <point x="1018" y="1453"/>
      <point x="1023" y="1459"/>
      <point x="1023" y="1471" type="curve" smooth="yes"/>
      <point x="1023" y="1484"/>
      <point x="1018" y="1488"/>
      <point x="1011" y="1488" type="curve" smooth="yes"/>
      <point x="59" y="1488" type="line" smooth="yes"/>
      <point x="53" y="1488"/>
      <point x="48" y="1483"/>
      <point x="48" y="1470" type="curve" smooth="yes"/>
      <point x="48" y="1458"/>
      <point x="53" y="1453"/>
      <point x="59" y="1453" type="curve" smooth="yes"/>
      <point x="516" y="1453" type="line"/>
      <point x="516" y="1" type="line" smooth="yes"/>
      <point x="516" y="-10"/>
      <point x="521" y="-14"/>
    </contour>
  </outline>
</glyph>
<glyph name="X" format="2">
  <advance width="1063"/>
  <unicode hex="0058"/>
  <guideline x="322" y="-11" angle="0"/>
  <outline>
    <contour>
      <point x="993" y="-11" type="curve" smooth="yes"/>
      <point x="1004" y="-4"/>
      <point x="1005" y="1"/>
      <point x="999" y="11" type="curve" smooth="yes"/>
      <point x="556" y="756" type="line"/>
      <point x="989" y="1489" type="line" smooth="yes"/>
      <point x="995" y="1499"/>
      <point x="994" y="1504"/>
      <point x="983" y="1511" type="curve" smooth="yes"/>
      <point x="973" y="1518"/>
      <point x="968" y="1518"/>
      <point x="961" y="1506" type="curve" smooth="yes"/>
      <point x="538" y="789" type="line"/>
      <point x="111" y="1506" type="line" smooth="yes"/>
      <point x="105" y="1518"/>
      <point x="98" y="1518"/>
      <point x="88" y="1511" type="curve" smooth="yes"/>
      <point x="76" y="1504"/>
      <point x="75" y="1499"/>
      <point x="81" y="1489" type="curve" smooth="yes"/>
      <point x="514" y="760" type="line"/>
      <point x="64" y="11" type="line" smooth="yes"/>
      <point x="58" y="1"/>
      <point x="59" y="-4"/>
      <point x="70" y="-11" type="curve" smooth="yes"/>
      <point x="80" y="-17"/>
      <point x="86" y="-15"/>
      <point x="93" y="-5" type="curve" smooth="yes"/>
      <point x="533" y="729" type="line"/>
      <point x="969" y="-6" type="line" smooth="yes"/>
      <point x="975" y="-17"/>
      <point x="983" y="-17"/>
    </contour>
  </outline>
</glyph>
<glyph name="asciicircum" format="2">
  <advance width="763"/>
  <unicode hex="005E"/>
  <outline>
    <contour>
      <point x="129" y="1125" type="line" smooth="yes"/>
      <point x="123" y="1115"/>
      <point x="123" y="1108"/>
      <point x="134" y="1100" type="curve" smooth="yes"/>
      <point x="146" y="1093"/>
      <point x="154" y="1096"/>
      <point x="160" y="1106" type="curve" smooth="yes"/>
      <point x="381" y="1475" type="line"/>
      <point x="603" y="1106" type="line" smooth="yes"/>
      <point x="609" y="1096"/>
      <point x="616" y="1093"/>
      <point x="628" y="1100" type="curve" smooth="yes"/>
      <point x="640" y="1108"/>
      <point x="640" y="1115"/>
      <point x="634" y="1125" type="curve" smooth="yes"/>
      <point x="418" y="1484" type="line" smooth="yes"/>
      <point x="405" y="1505"/>
      <point x="399" y="1515"/>
      <point x="381" y="1515" type="curve" smooth="yes"/>
      <point x="365" y="1515"/>
      <point x="358" y="1505"/>
      <point x="345" y="1484" type="curve" smooth="yes"/>
    </contour>
  </outline>
</glyph>
<glyph name="d" format="2">
  <advance width="629"/>
  <unicode hex="0064"/>
  <anchor x="278" y="0" name="bottom"/>
  <anchor x="438" y="948" name="center"/>
  <anchor x="278" y="500" name="top"/>
  <anchor x="479" y="1500" name="topright"/>
  <outline>
    <contour>
      <point x="269" y="-17" type="curve" smooth="yes"/>
      <point x="323" y="-17"/>
      <point x="396" y="3"/>
      <point x="443" y="100" type="curve"/>
      <point x="443" y="93"/>
      <point x="443" y="84"/>
      <point x="443" y="76" type="curve" smooth="yes"/>
      <point x="443" y="14"/>
      <point x="475" y="-17"/>
      <point x="525" y="-17" type="curve" smooth="yes"/>
      <point x="559" y="-17"/>
      <point x="596" y="4"/>
      <point x="619" y="35" type="curve" smooth="yes"/>
      <point x="624" y="43"/>
      <point x="621" y="49"/>
      <point x="615" y="55" type="curve" smooth="yes"/>
      <point x="608" y="63"/>
      <point x="601" y="63"/>
      <point x="595" y="55" type="curve" smooth="yes"/>
      <point x="573" y="28"/>
      <point x="550" y="16"/>
      <point x="529" y="16" type="curve" smooth="yes"/>
      <point x="494" y="16"/>
      <point x="479" y="40"/>
      <point x="479" y="88" type="curve" smooth="yes"/>
      <point x="479" y="1500" type="line" smooth="yes"/>
      <point x="479" y="1511"/>
      <point x="474" y="1515"/>
      <point x="461" y="1515" type="curve" smooth="yes"/>
      <point x="449" y="1515"/>
      <point x="443" y="1511"/>
      <point x="443" y="1500" type="curve" smooth="yes"/>
      <point x="443" y="478" type="line"/>
      <point x="396" y="506"/>
      <point x="355" y="519"/>
      <point x="309" y="519" type="curve" smooth="yes"/>
      <point x="156" y="519"/>
      <point x="75" y="401"/>
      <point x="75" y="239" type="curve" smooth="yes"/>
      <point x="75" y="76"/>
      <point x="158" y="-17"/>
    </contour>
    <contour>
      <point x="115" y="243" type="curve" smooth="yes"/>
      <point x="115" y="396"/>
      <point x="189" y="485"/>
      <point x="305" y="485" type="curve" smooth="yes"/>
      <point x="350" y="485"/>
      <point x="393" y="474"/>
      <point x="443" y="440" type="curve"/>
      <point x="443" y="188" type="line"/>
      <point x="413" y="58"/>
      <point x="341" y="18"/>
      <point x="276" y="18" type="curve" smooth="yes"/>
      <point x="170" y="18"/>
      <point x="115" y="113"/>
    </contour>
  </outline>
</glyph>
<glyph name="g" format="2">
  <advance width="598"/>
  <unicode hex="0067"/>
  <anchor x="295" y="500" name="top"/>
  <outline>
    <contour>
      <point x="279" y="-1019" type="curve" smooth="yes"/>
      <point x="403" y="-1019"/>
      <point x="479" y="-940"/>
      <point x="479" y="-784" type="curve" smooth="yes"/>
      <point x="479" y="500" type="line" smooth="yes"/>
      <point x="479" y="511"/>
      <point x="474" y="515"/>
      <point x="461" y="515" type="curve" smooth="yes"/>
      <point x="449" y="515"/>
      <point x="443" y="511"/>
      <point x="443" y="500" type="curve" smooth="yes"/>
      <point x="443" y="478" type="line"/>
      <point x="397" y="506"/>
      <point x="356" y="519"/>
      <point x="309" y="519" type="curve" smooth="yes"/>
      <point x="156" y="519"/>
      <point x="75" y="401"/>
      <point x="75" y="239" type="curve" smooth="yes"/>
      <point x="75" y="76"/>
      <point x="158" y="-17"/>
      <point x="269" y="-17" type="curve" smooth="yes"/>
      <point x="322" y="-17"/>
      <point x="397" y="3"/>
      <point x="443" y="101" type="curve"/>
      <point x="443" y="-781" type="line" smooth="yes"/>
      <point x="443" y="-920"/>
      <point x="383" y="-984"/>
      <point x="284" y="-984" type="curve" smooth="yes"/>
      <point x="200" y="-984"/>
      <point x="155" y="-955"/>
      <point x="126" y="-895" type="curve"/>
      <point x="123" y="-886"/>
      <point x="115" y="-882"/>
      <point x="104" y="-889" type="curve" smooth="yes"/>
      <point x="93" y="-895"/>
      <point x="90" y="-901"/>
      <point x="95" y="-911" type="curve" smooth="yes"/>
      <point x="128" y="-980"/>
      <point x="186" y="-1019"/>
    </contour>
    <contour>
      <point x="276" y="18" type="curve" smooth="yes"/>
      <point x="170" y="18"/>
      <point x="115" y="113"/>
      <point x="115" y="243" type="curve" smooth="yes"/>
      <point x="115" y="396"/>
      <point x="189" y="485"/>
      <point x="305" y="485" type="curve" smooth="yes"/>
      <point x="349" y="485"/>
      <point x="393" y="474"/>
      <point x="443" y="440" type="curve"/>
      <point x="443" y="188" type="line"/>
      <point x="413" y="58"/>
      <point x="341" y="18"/>
    </contour>
  </outline>
</glyph>
<glyph name="h" format="2">
  <advance width="651"/>
  <unicode hex="0068"/>
  <anchor x="326" y="0" name="bottom"/>
  <anchor x="163" y="948" name="center"/>
  <anchor x="139" y="1424" name="top"/>
  <outline>
    <contour>
      <point x="550" y="-17" type="curve" smooth="yes"/>
      <point x="586" y="-17"/>
      <point x="625" y="4"/>
      <point x="648" y="35" type="curve" smooth="yes"/>
      <point x="653" y="43"/>
      <point x="650" y="49"/>
      <point x="644" y="55" type="curve" smooth="yes"/>
      <point x="636" y="63"/>
      <point x="629" y="61"/>
      <point x="623" y="53" type="curve" smooth="yes"/>
      <point x="600" y="26"/>
      <point x="576" y="18"/>
      <point x="556" y="18" type="curve" smooth="yes"/>
      <point x="521" y="18"/>
      <point x="509" y="45"/>
      <point x="509" y="93" type="curve" smooth="yes"/>
      <point x="509" y="334" type="line" smooth="yes"/>
      <point x="509" y="465"/>
      <point x="439" y="519"/>
      <point x="348" y="519" type="curve" smooth="yes"/>
      <point x="281" y="519"/>
      <point x="199" y="496"/>
      <point x="155" y="395" type="curve"/>
      <point x="155" y="1500" type="line" smooth="yes"/>
      <point x="155" y="1511"/>
      <point x="149" y="1515"/>
      <point x="136" y="1515" type="curve" smooth="yes"/>
      <point x="124" y="1515"/>
      <point x="119" y="1511"/>
      <point x="119" y="1500" type="curve" smooth="yes"/>
      <point x="119" y="0" type="line" smooth="yes"/>
      <point x="119" y="-11"/>
      <point x="124" y="-15"/>
      <point x="136" y="-15" type="curve" smooth="yes"/>
      <point x="149" y="-15"/>
      <point x="155" y="-11"/>
      <point x="155" y="0" type="curve" smooth="yes"/>
      <point x="155" y="309" type="line"/>
      <point x="183" y="441"/>
      <point x="261" y="484"/>
      <point x="343" y="484" type="curve" smooth="yes"/>
      <point x="435" y="484"/>
      <point x="473" y="425"/>
      <point x="473" y="326" type="curve" smooth="yes"/>
      <point x="473" y="80" type="line" smooth="yes"/>
      <point x="473" y="14"/>
      <point x="504" y="-17"/>
    </contour>
  </outline>
</glyph>
<glyph name="r" format="2">
  <advance width="454"/>
  <unicode hex="0072"/>
  <anchor x="130" y="0" name="bottom"/>
  <anchor x="261" y="500" name="top"/>
  <outline>
    <contour>
      <point x="130" y="-15" type="curve" smooth="yes"/>
      <point x="143" y="-15"/>
      <point x="149" y="-11"/>
      <point x="149" y="0" type="curve" smooth="yes"/>
      <point x="149" y="309" type="line"/>
      <point x="174" y="433"/>
      <point x="240" y="484"/>
      <point x="314" y="484" type="curve" smooth="yes"/>
      <point x="350" y="484"/>
      <point x="385" y="470"/>
      <point x="404" y="461" type="curve" smooth="yes"/>
      <point x="411" y="458"/>
      <point x="418" y="459"/>
      <point x="424" y="469" type="curve" smooth="yes"/>
      <point x="431" y="481"/>
      <point x="429" y="488"/>
      <point x="421" y="493" type="curve" smooth="yes"/>
      <point x="399" y="506"/>
      <point x="359" y="519"/>
      <point x="318" y="519" type="curve" smooth="yes"/>
      <point x="261" y="519"/>
      <point x="188" y="490"/>
      <point x="149" y="398" type="curve"/>
      <point x="149" y="500" type="line" smooth="yes"/>
      <point x="149" y="511"/>
      <point x="143" y="515"/>
      <point x="130" y="515" type="curve" smooth="yes"/>
      <point x="118" y="515"/>
      <point x="113" y="511"/>
      <point x="113" y="500" type="curve" smooth="yes"/>
      <point x="113" y="0" type="line" smooth="yes"/>
      <point x="113" y="-11"/>
      <point x="118" y="-15"/>
    </contour>
  </outline>
</glyph>
<glyph name="z" format="2">
  <advance width="495"/>
  <unicode hex="007A"/>
  <anchor x="263" y="0" name="bottom"/>
  <anchor x="263" y="250" name="center"/>
  <anchor x="250" y="500" name="top"/>
  <outline>
    <contour>
      <point x="88" y="0" type="curve" smooth="yes"/>
      <point x="443" y="0" type="line" smooth="yes"/>
      <point x="454" y="0"/>
      <point x="458" y="5"/>
      <point x="458" y="15" type="curve" smooth="yes"/>
      <point x="458" y="29"/>
      <point x="454" y="35"/>
      <point x="443" y="35" type="curve" smooth="yes"/>
      <point x="121" y="35" type="line"/>
      <point x="440" y="468" type="line" smooth="yes"/>
      <point x="451" y="483"/>
      <point x="444" y="500"/>
      <point x="429" y="500" type="curve" smooth="yes"/>
      <point x="85" y="500" type="line" smooth="yes"/>
      <point x="74" y="500"/>
      <point x="70" y="494"/>
      <point x="70" y="483" type="curve" smooth="yes"/>
      <point x="70" y="470"/>
      <point x="74" y="465"/>
      <point x="85" y="465" type="curve" smooth="yes"/>
      <point x="396" y="465" type="line"/>
      <point x="73" y="30" type="line" smooth="yes"/>
      <point x="66" y="21"/>
      <point x="66" y="0"/>
    </contour>
  </outline>
</glyph>
<glyph name="ordfeminine" format="2">
  <advance width="479"/>
  <unicode hex="00AA"/>
  <outline>
    <contour>
      <point x="205" y="1111" type="curve" smooth="yes"/>
      <point x="254" y="1111"/>
      <point x="305" y="1133"/>
      <point x="338" y="1199" type="curve"/>
      <point x="338" y="1194"/>
      <point x="338" y="1188"/>
      <point x="338" y="1183" type="curve" smooth="yes"/>
      <point x="338" y="1138"/>
      <point x="363" y="1111"/>
      <point x="403" y="1111" type="curve" smooth="yes"/>
      <point x="430" y="1111"/>
      <point x="459" y="1128"/>
      <point x="476" y="1151" type="curve" smooth="yes"/>
      <point x="480" y="1156"/>
      <point x="479" y="1165"/>
      <point x="474" y="1170" type="curve" smooth="yes"/>
      <point x="468" y="1176"/>
      <point x="461" y="1175"/>
      <point x="456" y="1170" type="curve" smooth="yes"/>
      <point x="440" y="1151"/>
      <point x="423" y="1143"/>
      <point x="408" y="1143" type="curve" smooth="yes"/>
      <point x="383" y="1143"/>
      <point x="371" y="1160"/>
      <point x="371" y="1194" type="curve" smooth="yes"/>
      <point x="371" y="1509" type="line" smooth="yes"/>
      <point x="371" y="1518"/>
      <point x="368" y="1521"/>
      <point x="355" y="1521" type="curve" smooth="yes"/>
      <point x="344" y="1521"/>
      <point x="338" y="1518"/>
      <point x="338" y="1509" type="curve" smooth="yes"/>
      <point x="338" y="1494" type="line"/>
      <point x="303" y="1515"/>
      <point x="269" y="1525"/>
      <point x="235" y="1525" type="curve" smooth="yes"/>
      <point x="120" y="1525"/>
      <point x="56" y="1435"/>
      <point x="56" y="1309" type="curve" smooth="yes"/>
      <point x="56" y="1183"/>
      <point x="120" y="1111"/>
    </contour>
    <contour>
      <point x="94" y="1311" type="curve" smooth="yes"/>
      <point x="94" y="1428"/>
      <point x="149" y="1493"/>
      <point x="234" y="1493" type="curve" smooth="yes"/>
      <point x="266" y="1493"/>
      <point x="300" y="1485"/>
      <point x="338" y="1460" type="curve"/>
      <point x="338" y="1266" type="line"/>
      <point x="314" y="1174"/>
      <point x="261" y="1144"/>
      <point x="213" y="1144" type="curve" smooth="yes"/>
      <point x="134" y="1144"/>
      <point x="94" y="1214"/>
    </contour>
  </outline>
</glyph>
<glyph name="paragraph" format="2">
  <advance width="1230"/>
  <unicode hex="00B6"/>
  <outline>
    <contour>
      <point x="649" y="-389" type="curve" smooth="yes"/>
      <point x="663" y="-389"/>
      <point x="668" y="-385"/>
      <point x="668" y="-374" type="curve" smooth="yes"/>
      <point x="668" y="1453" type="line"/>
      <point x="909" y="1453" type="line"/>
      <point x="909" y="-374" type="line" smooth="yes"/>
      <point x="909" y="-385"/>
      <point x="914" y="-389"/>
      <point x="928" y="-389" type="curve" smooth="yes"/>
      <point x="942" y="-389"/>
      <point x="947" y="-385"/>
      <point x="947" y="-374" type="curve" smooth="yes"/>
      <point x="947" y="1453" type="line"/>
      <point x="1122" y="1453" type="line" smooth="yes"/>
      <point x="1128" y="1453"/>
      <point x="1133" y="1459"/>
      <point x="1133" y="1472" type="curve" smooth="yes"/>
      <point x="1133" y="1484"/>
      <point x="1128" y="1488"/>
      <point x="1122" y="1488" type="curve" smooth="yes"/>
      <point x="563" y="1488" type="line" smooth="yes"/>
      <point x="249" y="1488"/>
      <point x="90" y="1338"/>
      <point x="90" y="1043" type="curve" smooth="yes"/>
      <point x="90" y="747"/>
      <point x="249" y="596"/>
      <point x="563" y="596" type="curve" smooth="yes"/>
      <point x="630" y="596" type="line"/>
      <point x="630" y="-374" type="line" smooth="yes"/>
      <point x="630" y="-385"/>
      <point x="635" y="-389"/>
    </contour>
  </outline>
</glyph>
<glyph name="germandbls" format="2">
  <advance width="700"/>
  <unicode hex="00DF"/>
  <outline>
    <contour>
      <point x="155" y="-1015" type="curve" smooth="yes"/>
      <point x="169" y="-1015"/>
      <point x="174" y="-1010"/>
      <point x="174" y="-1000" type="curve" smooth="yes"/>
      <point x="174" y="1188" type="line" smooth="yes"/>
      <point x="174" y="1383"/>
      <point x="243" y="1481"/>
      <point x="378" y="1481" type="curve" smooth="yes"/>
      <point x="523" y="1481"/>
      <point x="610" y="1353"/>
      <point x="610" y="1140" type="curve" smooth="yes"/>
      <point x="610" y="823"/>
      <point x="530" y="500"/>
      <point x="314" y="500" type="curve" smooth="yes"/>
      <point x="300" y="500" type="line" smooth="yes"/>
      <point x="294" y="500"/>
      <point x="289" y="496"/>
      <point x="289" y="484" type="curve" smooth="yes"/>
      <point x="289" y="471"/>
      <point x="294" y="468"/>
      <point x="300" y="468" type="curve" smooth="yes"/>
      <point x="310" y="468" type="line" smooth="yes"/>
      <point x="495" y="468"/>
      <point x="563" y="380"/>
      <point x="563" y="253" type="curve" smooth="yes"/>
      <point x="563" y="100"/>
      <point x="473" y="15"/>
      <point x="355" y="15" type="curve" smooth="yes"/>
      <point x="313" y="15"/>
      <point x="280" y="26"/>
      <point x="246" y="49" type="curve" smooth="yes"/>
      <point x="236" y="55"/>
      <point x="228" y="56"/>
      <point x="220" y="46" type="curve" smooth="yes"/>
      <point x="214" y="38"/>
      <point x="210" y="29"/>
      <point x="221" y="21" type="curve" smooth="yes"/>
      <point x="259" y="-2"/>
      <point x="299" y="-19"/>
      <point x="355" y="-19" type="curve" smooth="yes"/>
      <point x="499" y="-19"/>
      <point x="600" y="84"/>
      <point x="600" y="253" type="curve" smooth="yes"/>
      <point x="600" y="374"/>
      <point x="542" y="467"/>
      <point x="401" y="486" type="curve"/>
      <point x="590" y="555"/>
      <point x="646" y="876"/>
      <point x="646" y="1139" type="curve" smooth="yes"/>
      <point x="646" y="1373"/>
      <point x="545" y="1515"/>
      <point x="378" y="1515" type="curve" smooth="yes"/>
      <point x="219" y="1515"/>
      <point x="138" y="1408"/>
      <point x="138" y="1195" type="curve" smooth="yes"/>
      <point x="138" y="-1000" type="line" smooth="yes"/>
      <point x="138" y="-1010"/>
      <point x="143" y="-1015"/>
    </contour>
  </outline>
</glyph>
<glyph name="eth" format="2">
  <advance width="603"/>
  <unicode hex="00F0"/>
  <outline>
    <contour>
      <point x="294" y="-19" type="curve" smooth="yes"/>
      <point x="420" y="-19"/>
      <point x="526" y="90"/>
      <point x="526" y="346" type="curve" smooth="yes"/>
      <point x="526" y="871"/>
      <point x="424" y="1283"/>
      <point x="224" y="1513" type="curve"/>
      <point x="216" y="1520"/>
      <point x="209" y="1521"/>
      <point x="199" y="1513" type="curve" smooth="yes"/>
      <point x="190" y="1504"/>
      <point x="190" y="1498"/>
      <point x="198" y="1488" type="curve" smooth="yes"/>
      <point x="381" y="1273"/>
      <point x="479" y="906"/>
      <point x="487" y="416" type="curve"/>
      <point x="440" y="484"/>
      <point x="380" y="519"/>
      <point x="304" y="519" type="curve" smooth="yes"/>
      <point x="178" y="519"/>
      <point x="88" y="408"/>
      <point x="88" y="250" type="curve" smooth="yes"/>
      <point x="88" y="90"/>
      <point x="159" y="-19"/>
    </contour>
    <contour>
      <point x="294" y="16" type="curve" smooth="yes"/>
      <point x="185" y="16"/>
      <point x="126" y="113"/>
      <point x="126" y="250" type="curve" smooth="yes"/>
      <point x="126" y="385"/>
      <point x="193" y="484"/>
      <point x="304" y="484" type="curve" smooth="yes"/>
      <point x="380" y="484"/>
      <point x="440" y="441"/>
      <point x="487" y="366" type="curve"/>
      <point x="488" y="360"/>
      <point x="488" y="352"/>
      <point x="488" y="346" type="curve" smooth="yes"/>
      <point x="488" y="105"/>
      <point x="396" y="16"/>
    </contour>
    <contour>
      <point x="236" y="1139" type="curve" smooth="yes"/>
      <point x="505" y="1288" type="line" smooth="yes"/>
      <point x="515" y="1293"/>
      <point x="516" y="1299"/>
      <point x="513" y="1310" type="curve" smooth="yes"/>
      <point x="508" y="1323"/>
      <point x="500" y="1326"/>
      <point x="490" y="1321" type="curve" smooth="yes"/>
      <point x="223" y="1173" type="line" smooth="yes"/>
      <point x="211" y="1166"/>
      <point x="210" y="1160"/>
      <point x="214" y="1150" type="curve" smooth="yes"/>
      <point x="219" y="1138"/>
      <point x="226" y="1134"/>
    </contour>
  </outline>
</glyph>
<glyph name="thorn" format="2">
  <advance width="598"/>
  <unicode hex="00FE"/>
  <outline>
    <contour>
      <point x="136" y="-1015" type="curve" smooth="yes"/>
      <point x="149" y="-1015"/>
      <point x="155" y="-1011"/>
      <point x="155" y="-1000" type="curve" smooth="yes"/>
      <point x="155" y="33" type="line"/>
      <point x="200" y="-1"/>
      <point x="243" y="-17"/>
      <point x="293" y="-17" type="curve" smooth="yes"/>
      <point x="441" y="-17"/>
      <point x="523" y="93"/>
      <point x="523" y="266" type="curve" smooth="yes"/>
      <point x="523" y="436"/>
      <point x="445" y="519"/>
      <point x="335" y="519" type="curve" smooth="yes"/>
      <point x="274" y="519"/>
      <point x="203" y="498"/>
      <point x="155" y="401" type="curve"/>
      <point x="155" y="1500" type="line" smooth="yes"/>
      <point x="155" y="1511"/>
      <point x="150" y="1515"/>
      <point x="138" y="1515" type="curve" smooth="yes"/>
      <point x="125" y="1515"/>
      <point x="119" y="1511"/>
      <point x="119" y="1500" type="curve" smooth="yes"/>
      <point x="119" y="-1000" type="line" smooth="yes"/>
      <point x="119" y="-1011"/>
      <point x="124" y="-1015"/>
    </contour>
    <contour>
      <point x="155" y="70" type="curve"/>
      <point x="155" y="328" type="line"/>
      <point x="193" y="441"/>
      <point x="256" y="484"/>
      <point x="328" y="484" type="curve" smooth="yes"/>
      <point x="433" y="484"/>
      <point x="483" y="400"/>
      <point x="483" y="263" type="curve" smooth="yes"/>
      <point x="483" y="98"/>
      <point x="409" y="16"/>
      <point x="296" y="16" type="curve" smooth="yes"/>
      <point x="249" y="16"/>
      <point x="204" y="31"/>
    </contour>
  </outline>
</glyph>
<glyph name="Eng" format="2">
  <advance width="1375"/>
  <unicode hex="014A"/>
  <outline>
    <contour>
      <point x="1134" y="-215" type="curve" smooth="yes"/>
      <point x="1134" y="1500" type="line" smooth="yes"/>
      <point x="1134" y="1511"/>
      <point x="1129" y="1515"/>
      <point x="1115" y="1515" type="curve" smooth="yes"/>
      <point x="1101" y="1515"/>
      <point x="1096" y="1511"/>
      <point x="1096" y="1500" type="curve" smooth="yes"/>
      <point x="1096" y="68" type="line"/>
      <point x="280" y="1506" type="line" smooth="yes"/>
      <point x="276" y="1513"/>
      <point x="271" y="1515"/>
      <point x="259" y="1515" type="curve" smooth="yes"/>
      <point x="248" y="1515"/>
      <point x="241" y="1511"/>
      <point x="241" y="1500" type="curve" smooth="yes"/>
      <point x="241" y="1" type="line" smooth="yes"/>
      <point x="241" y="-10"/>
      <point x="246" y="-14"/>
      <point x="260" y="-14" type="curve" smooth="yes"/>
      <point x="274" y="-14"/>
      <point x="279" y="-10"/>
      <point x="279" y="1" type="curve" smooth="yes"/>
      <point x="279" y="1435" type="line"/>
      <point x="1098" y="-9" type="line"/>
      <point x="1098" y="-215" type="line" smooth="yes"/>
      <point x="1098" y="-350"/>
      <point x="1064" y="-407"/>
      <point x="973" y="-407" type="curve" smooth="yes"/>
      <point x="921" y="-407"/>
      <point x="881" y="-375"/>
      <point x="854" y="-310" type="curve" smooth="yes"/>
      <point x="850" y="-300"/>
      <point x="840" y="-297"/>
      <point x="829" y="-305" type="curve" smooth="yes"/>
      <point x="823" y="-309"/>
      <point x="819" y="-316"/>
      <point x="821" y="-325" type="curve" smooth="yes"/>
      <point x="848" y="-397"/>
      <point x="900" y="-442"/>
      <point x="973" y="-442" type="curve" smooth="yes"/>
      <point x="1085" y="-442"/>
      <point x="1134" y="-375"/>
    </contour>
  </outline>
</glyph>
<glyph name="jdotless" format="2">
  <advance width="268"/>
  <unicode hex="0237"/>
  <anchor x="130" y="500" name="top"/>
  <outline>
    <contour>
      <point x="39" y="-1017" type="curve" smooth="yes"/>
      <point x="118" y="-1017"/>
      <point x="149" y="-964"/>
      <point x="149" y="-885" type="curve" smooth="yes"/>
      <point x="149" y="500" type="line" smooth="yes"/>
      <point x="149" y="511"/>
      <point x="144" y="515"/>
      <point x="131" y="515" type="curve" smooth="yes"/>
      <point x="119" y="515"/>
      <point x="113" y="511"/>
      <point x="113" y="500" type="curve" smooth="yes"/>
      <point x="113" y="-882" type="line" smooth="yes"/>
      <point x="113" y="-942"/>
      <point x="100" y="-982"/>
      <point x="40" y="-982" type="curve" smooth="yes"/>
      <point x="5" y="-982"/>
      <point x="-16" y="-962"/>
      <point x="-31" y="-934" type="curve" smooth="yes"/>
      <point x="-36" y="-925"/>
      <point x="-42" y="-922"/>
      <point x="-54" y="-929" type="curve" smooth="yes"/>
      <point x="-62" y="-934"/>
      <point x="-62" y="-942"/>
      <point x="-60" y="-950" type="curve" smooth="yes"/>
      <point x="-46" y="-989"/>
      <point x="-9" y="-1017"/>
    </contour>
  </outline>
</glyph>
<glyph name="hookabovecomb" format="2">
  <unicode hex="0309"/>
  <anchor x="0" y="500" name="_top"/>
  <anchor x="0" y="818" name="top"/>
  <outline>
    <contour>
      <point x="3" y="838" type="curve" smooth="yes"/>
      <point x="-32" y="838"/>
      <point x="-60" y="829"/>
      <point x="-84" y="810" type="curve" smooth="yes"/>
      <point x="-91" y="804"/>
      <point x="-92" y="795"/>
      <point x="-87" y="786" type="curve" smooth="yes"/>
      <point x="-84" y="778"/>
      <point x="-75" y="775"/>
      <point x="-66" y="780" type="curve"/>
      <point x="-45" y="795"/>
      <point x="-24" y="803"/>
      <point x="-1" y="803" type="curve" smooth="yes"/>
      <point x="29" y="803"/>
      <point x="49" y="788"/>
      <point x="49" y="765" type="curve" smooth="yes"/>
      <point x="49" y="745"/>
      <point x="39" y="731"/>
      <point x="11" y="713" type="curve" smooth="yes"/>
      <point x="-21" y="691"/>
      <point x="-29" y="668"/>
      <point x="-14" y="634" type="curve" smooth="yes"/>
      <point x="-6" y="618" type="line" smooth="yes"/>
      <point x="0" y="603"/>
      <point x="34" y="615"/>
      <point x="25" y="634" type="curve" smooth="yes"/>
      <point x="23" y="639" type="line" smooth="yes"/>
      <point x="10" y="664"/>
      <point x="13" y="670"/>
      <point x="43" y="691" type="curve" smooth="yes"/>
      <point x="78" y="716"/>
      <point x="89" y="735"/>
      <point x="89" y="765" type="curve" smooth="yes"/>
      <point x="89" y="806"/>
      <point x="51" y="838"/>
    </contour>
  </outline>
</glyph>
<glyph name="strokeshortcomb" format="2">
  <unicode hex="0335"/>
  <anchor x="0" y="343" name="_center"/>
  <outline>
    <contour>
      <point x="-141" y="325" type="curve" smooth="yes"/>
      <point x="141" y="325" type="line" smooth="yes"/>
      <point x="153" y="325"/>
      <point x="156" y="330"/>
      <point x="156" y="341" type="curve" smooth="yes"/>
      <point x="156" y="354"/>
      <point x="153" y="360"/>
      <point x="141" y="360" type="curve" smooth="yes"/>
      <point x="-141" y="360" type="line" smooth="yes"/>
      <point x="-152" y="360"/>
      <point x="-156" y="354"/>
      <point x="-156" y="341" type="curve" smooth="yes"/>
      <point x="-156" y="330"/>
      <point x="-152" y="325"/>
    </contour>
  </outline>
</glyph>
<glyph name="slashshortcomb" format="2">
  <unicode hex="0337"/>
  <anchor x="0" y="343" name="_center"/>
  <outline>
    <contour>
      <point x="-110" y="256" type="curve" smooth="yes"/>
      <point x="135" y="398" type="line" smooth="yes"/>
      <point x="145" y="404"/>
      <point x="145" y="410"/>
      <point x="140" y="420" type="curve" smooth="yes"/>
      <point x="134" y="430"/>
      <point x="128" y="434"/>
      <point x="118" y="429" type="curve" smooth="yes"/>
      <point x="-127" y="288" type="line" smooth="yes"/>
      <point x="-137" y="281"/>
      <point x="-137" y="274"/>
      <point x="-131" y="264" type="curve" smooth="yes"/>
      <point x="-125" y="254"/>
      <point x="-120" y="251"/>
    </contour>
  </outline>
</glyph>
<glyph name="quoteleft" format="2">
  <advance width="187"/>
  <unicode hex="2018"/>
  <outline>
    <contour>
      <point x="93" y="975" type="curve" smooth="yes"/>
      <point x="114" y="975"/>
      <point x="121" y="986"/>
      <point x="121" y="1000" type="curve" smooth="yes"/>
      <point x="121" y="1109"/>
      <point x="126" y="1198"/>
      <point x="161" y="1285" type="curve" smooth="yes"/>
      <point x="164" y="1293"/>
      <point x="166" y="1298"/>
      <point x="166" y="1303" type="curve" smooth="yes"/>
      <point x="166" y="1311"/>
      <point x="152" y="1319"/>
      <point x="142" y="1319" type="curve" smooth="yes"/>
      <point x="135" y="1319"/>
      <point x="129" y="1313"/>
      <point x="124" y="1305" type="curve" smooth="yes"/>
      <point x="79" y="1231"/>
      <point x="63" y="1081"/>
      <point x="63" y="1003" type="curve" smooth="yes"/>
      <point x="63" y="989"/>
      <point x="70" y="975"/>
    </contour>
  </outline>
</glyph>
<glyph name="quoteright" format="2">
  <advance width="206"/>
  <unicode hex="2019"/>
  <outline>
    <contour>
      <point x="113" y="1519" type="curve" smooth="yes"/>
      <point x="92" y="1519"/>
      <point x="85" y="1508"/>
      <point x="85" y="1494" type="curve" smooth="yes"/>
      <point x="85" y="1415"/>
      <point x="86" y="1356"/>
      <point x="51" y="1269" type="curve" smooth="yes"/>
      <point x="48" y="1261"/>
      <point x="46" y="1256"/>
      <point x="46" y="1251" type="curve" smooth="yes"/>
      <point x="46" y="1243"/>
      <point x="60" y="1235"/>
      <point x="70" y="1235" type="curve" smooth="yes"/>
      <point x="77" y="1235"/>
      <point x="83" y="1241"/>
      <point x="88" y="1249" type="curve" smooth="yes"/>
      <point x="133" y="1323"/>
      <point x="143" y="1443"/>
      <point x="143" y="1491" type="curve" smooth="yes"/>
      <point x="143" y="1505"/>
      <point x="136" y="1519"/>
    </contour>
  </outline>
</glyph>
<glyph name="minute" format="2">
  <advance width="240"/>
  <unicode hex="2032"/>
  <outline>
    <contour>
      <point x="103" y="1235" type="curve" smooth="yes"/>
      <point x="115" y="1235"/>
      <point x="122" y="1241"/>
      <point x="124" y="1253" type="curve" smooth="yes"/>
      <point x="175" y="1491" type="line" smooth="yes"/>
      <point x="179" y="1510"/>
      <point x="170" y="1519"/>
      <point x="146" y="1519" type="curve" smooth="yes"/>
      <point x="128" y="1519"/>
      <point x="117" y="1511"/>
      <point x="115" y="1494" type="curve" smooth="yes"/>
      <point x="86" y="1255" type="line" smooth="yes"/>
      <point x="84" y="1242"/>
      <point x="90" y="1235"/>
    </contour>
  </outline>
</glyph>
<glyph name="euro" format="2">
  <advance width="1201"/>
  <unicode hex="20AC"/>
  <outline>
    <contour>
      <point x="688" y="-19" type="curve" smooth="yes"/>
      <point x="859" y="-19"/>
      <point x="973" y="58"/>
      <point x="1113" y="214" type="curve" smooth="yes"/>
      <point x="1123" y="225"/>
      <point x="1123" y="231"/>
      <point x="1113" y="240" type="curve" smooth="yes"/>
      <point x="1101" y="250"/>
      <point x="1095" y="248"/>
      <point x="1084" y="235" type="curve" smooth="yes"/>
      <point x="966" y="104"/>
      <point x="856" y="19"/>
      <point x="688" y="19" type="curve" smooth="yes"/>
      <point x="383" y="19"/>
      <point x="191" y="314"/>
      <point x="191" y="741" type="curve" smooth="yes"/>
      <point x="191" y="1188"/>
      <point x="416" y="1478"/>
      <point x="724" y="1478" type="curve" smooth="yes"/>
      <point x="841" y="1478"/>
      <point x="955" y="1434"/>
      <point x="1053" y="1325" type="curve" smooth="yes"/>
      <point x="1064" y="1313"/>
      <point x="1070" y="1310"/>
      <point x="1081" y="1320" type="curve" smooth="yes"/>
      <point x="1091" y="1329"/>
      <point x="1091" y="1335"/>
      <point x="1081" y="1346" type="curve" smooth="yes"/>
      <point x="993" y="1454"/>
      <point x="858" y="1515"/>
      <point x="724" y="1515" type="curve" smooth="yes"/>
      <point x="395" y="1515"/>
      <point x="150" y="1219"/>
      <point x="150" y="741" type="curve" smooth="yes"/>
      <point x="150" y="278"/>
      <point x="361" y="-19"/>
    </contour>
    <contour>
      <point x="11" y="816" type="curve" smooth="yes"/>
      <point x="876" y="816" type="line" smooth="yes"/>
      <point x="883" y="816"/>
      <point x="888" y="823"/>
      <point x="888" y="835" type="curve" smooth="yes"/>
      <point x="888" y="848"/>
      <point x="883" y="851"/>
      <point x="876" y="851" type="curve" smooth="yes"/>
      <point x="11" y="851" type="line" smooth="yes"/>
      <point x="5" y="851"/>
      <point x="0" y="846"/>
      <point x="0" y="834" type="curve" smooth="yes"/>
      <point x="0" y="821"/>
      <point x="5" y="816"/>
    </contour>
    <contour>
      <point x="11" y="636" type="curve" smooth="yes"/>
      <point x="876" y="636" type="line" smooth="yes"/>
      <point x="883" y="636"/>
      <point x="888" y="643"/>
      <point x="888" y="655" type="curve" smooth="yes"/>
      <point x="888" y="668"/>
      <point x="883" y="671"/>
      <point x="876" y="671" type="curve" smooth="yes"/>
      <point x="11" y="671" type="line" smooth="yes"/>
      <point x="5" y="671"/>
      <point x="0" y="666"/>
      <point x="0" y="654" type="curve" smooth="yes"/>
      <point x="0" y="641"/>
      <point x="5" y="636"/>
    </contour>
  </outline>
</glyph>
<glyph name="trademark" format="2">
  <advance width="960"/>
  <unicode hex="2122"/>
  <outline>
    <contour>
      <point x="213" y="1043" type="curve" smooth="yes"/>
      <point x="224" y="1043"/>
      <point x="231" y="1046"/>
      <point x="231" y="1055" type="curve" smooth="yes"/>
      <point x="231" y="1455" type="line"/>
      <point x="365" y="1455" type="line" smooth="yes"/>
      <point x="373" y="1455"/>
      <point x="376" y="1460"/>
      <point x="376" y="1471" type="curve" smooth="yes"/>
      <point x="376" y="1483"/>
      <point x="373" y="1488"/>
      <point x="365" y="1488" type="curve" smooth="yes"/>
      <point x="61" y="1488" type="line" smooth="yes"/>
      <point x="54" y="1488"/>
      <point x="50" y="1484"/>
      <point x="50" y="1471" type="curve" smooth="yes"/>
      <point x="50" y="1459"/>
      <point x="54" y="1455"/>
      <point x="61" y="1455" type="curve" smooth="yes"/>
      <point x="195" y="1455" type="line"/>
      <point x="195" y="1055" type="line" smooth="yes"/>
      <point x="195" y="1046"/>
      <point x="201" y="1043"/>
    </contour>
    <contour>
      <point x="469" y="1043" type="curve" smooth="yes"/>
      <point x="480" y="1043"/>
      <point x="486" y="1045"/>
      <point x="486" y="1054" type="curve" smooth="yes"/>
      <point x="486" y="1410" type="line"/>
      <point x="628" y="1171" type="line" smooth="yes"/>
      <point x="631" y="1164"/>
      <point x="638" y="1163"/>
      <point x="648" y="1163" type="curve" smooth="yes"/>
      <point x="656" y="1163"/>
      <point x="661" y="1164"/>
      <point x="666" y="1173" type="curve" smooth="yes"/>
      <point x="808" y="1410" type="line"/>
      <point x="808" y="1054" type="line" smooth="yes"/>
      <point x="808" y="1045"/>
      <point x="815" y="1043"/>
      <point x="825" y="1043" type="curve" smooth="yes"/>
      <point x="836" y="1043"/>
      <point x="843" y="1045"/>
      <point x="843" y="1054" type="curve" smooth="yes"/>
      <point x="843" y="1476" type="line" smooth="yes"/>
      <point x="843" y="1484"/>
      <point x="838" y="1488"/>
      <point x="825" y="1488" type="curve" smooth="yes"/>
      <point x="815" y="1488"/>
      <point x="810" y="1484"/>
      <point x="806" y="1476" type="curve" smooth="yes"/>
      <point x="648" y="1204" type="line"/>
      <point x="488" y="1476" type="line" smooth="yes"/>
      <point x="484" y="1484"/>
      <point x="479" y="1488"/>
      <point x="469" y="1488" type="curve" smooth="yes"/>
      <point x="458" y="1488"/>
      <point x="451" y="1484"/>
      <point x="451" y="1476" type="curve" smooth="yes"/>
      <point x="451" y="1054" type="line" smooth="yes"/>
      <point x="451" y="1045"/>
      <point x="459" y="1043"/>
    </contour>
  </outline>
</glyph>
<glyph name="minus" format="2">
  <advance width="763"/>
  <unicode hex="2212"/>
  <outline>
    <contour>
      <point x="115" y="420" type="curve" smooth="yes"/>
      <point x="648" y="420" type="line" smooth="yes"/>
      <point x="659" y="420"/>
      <point x="663" y="425"/>
      <point x="663" y="436" type="curve" smooth="yes"/>
      <point x="663" y="449"/>
      <point x="659" y="455"/>
      <point x="648" y="455" type="curve" smooth="yes"/>
      <point x="115" y="455" type="line" smooth="yes"/>
      <point x="104" y="455"/>
      <point x="100" y="449"/>
      <point x="100" y="436" type="curve" smooth="yes"/>
      <point x="100" y="425"/>
      <point x="104" y="420"/>
    </contour>
  </outline>
</glyph>
<glyph name="A.cur_locl" format="2">
  <advance width="1518"/>
  <anchor x="605" y="0" name="bottom"/>
  <anchor x="1419" y="21" name="ogonek"/>
  <anchor x="711" y="1424" name="top"/>
  <outline>
    <contour>
      <point x="605" y="-17" type="curve" smooth="yes"/>
      <point x="851" y="-17"/>
      <point x="1040" y="220"/>
      <point x="1114" y="616" type="curve"/>
      <point x="1114" y="241" type="line" smooth="yes"/>
      <point x="1114" y="59"/>
      <point x="1165" y="-19"/>
      <point x="1284" y="-19" type="curve" smooth="yes"/>
      <point x="1374" y="-19"/>
      <point x="1430" y="26"/>
      <point x="1481" y="120" type="curve" smooth="yes"/>
      <point x="1485" y="128"/>
      <point x="1485" y="136"/>
      <point x="1476" y="141" type="curve" smooth="yes"/>
      <point x="1466" y="146"/>
      <point x="1458" y="146"/>
      <point x="1453" y="138" type="curve" smooth="yes"/>
      <point x="1394" y="40"/>
      <point x="1354" y="18"/>
      <point x="1290" y="18" type="curve" smooth="yes"/>
      <point x="1189" y="18"/>
      <point x="1151" y="79"/>
      <point x="1151" y="241" type="curve" smooth="yes"/>
      <point x="1151" y="1500" type="line" smooth="yes"/>
      <point x="1151" y="1511"/>
      <point x="1145" y="1515"/>
      <point x="1133" y="1515" type="curve" smooth="yes"/>
      <point x="1119" y="1515"/>
      <point x="1114" y="1511"/>
      <point x="1114" y="1500" type="curve" smooth="yes"/>
      <point x="1114" y="1266" type="line"/>
      <point x="1029" y="1421"/>
      <point x="880" y="1515"/>
      <point x="715" y="1515" type="curve" smooth="yes"/>
      <point x="379" y="1515"/>
      <point x="135" y="1179"/>
      <point x="135" y="714" type="curve" smooth="yes"/>
      <point x="135" y="255"/>
      <point x="310" y="-17"/>
    </contour>
    <contour>
      <point x="176" y="714" type="curve" smooth="yes"/>
      <point x="176" y="1156"/>
      <point x="403" y="1478"/>
      <point x="715" y="1478" type="curve" smooth="yes"/>
      <point x="893" y="1478"/>
      <point x="1026" y="1381"/>
      <point x="1114" y="1190" type="curve"/>
      <point x="1114" y="816" type="line"/>
      <point x="1058" y="321"/>
      <point x="866" y="20"/>
      <point x="610" y="20" type="curve" smooth="yes"/>
      <point x="338" y="20"/>
      <point x="176" y="279"/>
    </contour>
  </outline>
</glyph>
<glyph name="A.cur_locl.ini" format="2">
  <advance width="1439"/>
  <anchor x="605" y="0" name="bottom"/>
  <anchor x="1440" y="0" name="cnct"/>
  <anchor x="1419" y="21" name="ogonek"/>
  <anchor x="711" y="1424" name="top"/>
  <outline>
    <contour>
      <point x="605" y="-17" type="curve" smooth="yes"/>
      <point x="851" y="-17"/>
      <point x="1040" y="220"/>
      <point x="1114" y="616" type="curve"/>
      <point x="1114" y="383" type="line" smooth="yes"/>
      <point x="1114" y="103"/>
      <point x="1193" y="-17"/>
      <point x="1379" y="-17" type="curve" smooth="yes"/>
      <point x="1404" y="-17"/>
      <point x="1404" y="18"/>
      <point x="1379" y="18" type="curve" smooth="yes"/>
      <point x="1219" y="18"/>
      <point x="1151" y="126"/>
      <point x="1151" y="383" type="curve" smooth="yes"/>
      <point x="1151" y="1500" type="line" smooth="yes"/>
      <point x="1151" y="1511"/>
      <point x="1145" y="1515"/>
      <point x="1133" y="1515" type="curve" smooth="yes"/>
      <point x="1119" y="1515"/>
      <point x="1114" y="1511"/>
      <point x="1114" y="1500" type="curve" smooth="yes"/>
      <point x="1114" y="1266" type="line"/>
      <point x="1029" y="1421"/>
      <point x="880" y="1515"/>
      <point x="715" y="1515" type="curve" smooth="yes"/>
      <point x="379" y="1515"/>
      <point x="135" y="1179"/>
      <point x="135" y="714" type="curve" smooth="yes"/>
      <point x="135" y="255"/>
      <point x="310" y="-17"/>
    </contour>
    <contour>
      <point x="176" y="714" type="curve" smooth="yes"/>
      <point x="176" y="1156"/>
      <point x="403" y="1478"/>
      <point x="715" y="1478" type="curve" smooth="yes"/>
      <point x="893" y="1478"/>
      <point x="1026" y="1381"/>
      <point x="1114" y="1190" type="curve"/>
      <point x="1114" y="816" type="line"/>
      <point x="1058" y="321"/>
      <point x="866" y="20"/>
      <point x="610" y="20" type="curve" smooth="yes"/>
      <point x="338" y="20"/>
      <point x="176" y="279"/>
    </contour>
  </outline>
</glyph>
<glyph name="B.dec" format="2">
  <advance width="1424"/>
  <anchor x="791" y="0" name="bottom"/>
  <anchor x="399" y="438" name="center"/>
  <anchor x="791" y="1424" name="top"/>
  <outline>
    <contour>
      <point x="854" y="-12" type="curve" smooth="yes"/>
      <point x="1096" y="-12"/>
      <point x="1293" y="188"/>
      <point x="1293" y="465" type="curve" smooth="yes"/>
      <point x="1293" y="683"/>
      <point x="1150" y="814"/>
      <point x="923" y="816" type="curve"/>
      <point x="923" y="819" type="line"/>
      <point x="1093" y="859"/>
      <point x="1214" y="958"/>
      <point x="1214" y="1171" type="curve" smooth="yes"/>
      <point x="1214" y="1371"/>
      <point x="1099" y="1515"/>
      <point x="876" y="1515" type="curve" smooth="yes"/>
      <point x="670" y="1515"/>
      <point x="486" y="1374"/>
      <point x="418" y="1071" type="curve"/>
      <point x="418" y="1500" type="line" smooth="yes"/>
      <point x="418" y="1511"/>
      <point x="411" y="1515"/>
      <point x="399" y="1515" type="curve" smooth="yes"/>
      <point x="388" y="1515"/>
      <point x="380" y="1511"/>
      <point x="379" y="1503" type="curve" smooth="yes"/>
      <point x="334" y="1274"/>
      <point x="249" y="1118"/>
      <point x="69" y="1018" type="curve" smooth="yes"/>
      <point x="59" y="1013"/>
      <point x="55" y="1004"/>
      <point x="60" y="994" type="curve" smooth="yes"/>
      <point x="66" y="981"/>
      <point x="74" y="980"/>
      <point x="83" y="985" type="curve" smooth="yes"/>
      <point x="244" y="1081"/>
      <point x="326" y="1193"/>
      <point x="380" y="1375" type="curve"/>
      <point x="380" y="1" type="line" smooth="yes"/>
      <point x="380" y="-10"/>
      <point x="385" y="-14"/>
      <point x="399" y="-14" type="curve" smooth="yes"/>
      <point x="413" y="-14"/>
      <point x="418" y="-10"/>
      <point x="418" y="1" type="curve" smooth="yes"/>
      <point x="418" y="790" type="line" smooth="yes"/>
      <point x="418" y="1248"/>
      <point x="633" y="1479"/>
      <point x="873" y="1479" type="curve" smooth="yes"/>
      <point x="1083" y="1479"/>
      <point x="1174" y="1349"/>
      <point x="1174" y="1171" type="curve" smooth="yes"/>
      <point x="1174" y="965"/>
      <point x="1048" y="866"/>
      <point x="858" y="834" type="curve"/>
      <point x="836" y="845"/>
      <point x="811" y="848"/>
      <point x="789" y="848" type="curve" smooth="yes"/>
      <point x="745" y="844"/>
      <point x="720" y="823"/>
      <point x="720" y="798" type="curve" smooth="yes"/>
      <point x="720" y="774"/>
      <point x="743" y="759"/>
      <point x="774" y="761" type="curve" smooth="yes"/>
      <point x="799" y="761"/>
      <point x="829" y="769"/>
      <point x="860" y="785" type="curve"/>
      <point x="1110" y="785"/>
      <point x="1251" y="671"/>
      <point x="1251" y="464" type="curve" smooth="yes"/>
      <point x="1251" y="209"/>
      <point x="1071" y="25"/>
      <point x="854" y="25" type="curve" smooth="yes"/>
      <point x="781" y="25"/>
      <point x="693" y="46"/>
      <point x="641" y="76" type="curve" smooth="yes"/>
      <point x="631" y="83"/>
      <point x="623" y="81"/>
      <point x="618" y="73" type="curve" smooth="yes"/>
      <point x="609" y="61"/>
      <point x="610" y="53"/>
      <point x="620" y="46" type="curve" smooth="yes"/>
      <point x="681" y="8"/>
      <point x="770" y="-12"/>
    </contour>
  </outline>
</glyph>
<glyph name="C.cur" format="2">
  <advance width="1200"/>
  <anchor x="683" y="0" name="bottom"/>
  <anchor x="708" y="1424" name="top"/>
  <outline>
    <contour>
      <point x="688" y="-19" type="curve" smooth="yes"/>
      <point x="849" y="-19"/>
      <point x="985" y="56"/>
      <point x="1114" y="210" type="curve" smooth="yes"/>
      <point x="1124" y="223"/>
      <point x="1124" y="231"/>
      <point x="1113" y="240" type="curve" smooth="yes"/>
      <point x="1104" y="248"/>
      <point x="1096" y="244"/>
      <point x="1086" y="231" type="curve" smooth="yes"/>
      <point x="970" y="88"/>
      <point x="841" y="19"/>
      <point x="688" y="19" type="curve" smooth="yes"/>
      <point x="380" y="19"/>
      <point x="191" y="305"/>
      <point x="191" y="741" type="curve" smooth="yes"/>
      <point x="191" y="1174"/>
      <point x="404" y="1478"/>
      <point x="724" y="1478" type="curve" smooth="yes"/>
      <point x="875" y="1478"/>
      <point x="1014" y="1389"/>
      <point x="1121" y="1223" type="curve" smooth="yes"/>
      <point x="1133" y="1205"/>
      <point x="1139" y="1200"/>
      <point x="1149" y="1206" type="curve" smooth="yes"/>
      <point x="1163" y="1215"/>
      <point x="1163" y="1225"/>
      <point x="1151" y="1243" type="curve" smooth="yes"/>
      <point x="1033" y="1425"/>
      <point x="890" y="1515"/>
      <point x="724" y="1515" type="curve" smooth="yes"/>
      <point x="386" y="1515"/>
      <point x="150" y="1205"/>
      <point x="150" y="741" type="curve" smooth="yes"/>
      <point x="150" y="273"/>
      <point x="361" y="-19"/>
    </contour>
  </outline>
</glyph>
<glyph name="C.cur.ini" format="2">
  <advance width="1160"/>
  <anchor x="683" y="0" name="bottom"/>
  <anchor x="1160" y="0" name="cnct"/>
  <anchor x="708" y="1424" name="top"/>
  <outline>
    <contour>
      <point x="684" y="-17" type="curve" smooth="yes"/>
      <point x="704" y="-17"/>
      <point x="705" y="16"/>
      <point x="685" y="16" type="curve" smooth="yes"/>
      <point x="379" y="16"/>
      <point x="191" y="273"/>
      <point x="191" y="721" type="curve" smooth="yes"/>
      <point x="191" y="1154"/>
      <point x="404" y="1478"/>
      <point x="724" y="1478" type="curve" smooth="yes"/>
      <point x="875" y="1478"/>
      <point x="1014" y="1389"/>
      <point x="1121" y="1223" type="curve" smooth="yes"/>
      <point x="1133" y="1205"/>
      <point x="1139" y="1200"/>
      <point x="1149" y="1206" type="curve" smooth="yes"/>
      <point x="1163" y="1215"/>
      <point x="1163" y="1225"/>
      <point x="1151" y="1243" type="curve" smooth="yes"/>
      <point x="1033" y="1425"/>
      <point x="890" y="1515"/>
      <point x="724" y="1515" type="curve" smooth="yes"/>
      <point x="386" y="1515"/>
      <point x="150" y="1185"/>
      <point x="150" y="721" type="curve" smooth="yes"/>
      <point x="150" y="242"/>
      <point x="359" y="-17"/>
    </contour>
  </outline>
</glyph>
<glyph name="E.cur.ini" format="2">
  <advance width="1020"/>
  <anchor x="569" y="0" name="bottom"/>
  <anchor x="1020" y="0" name="cnct"/>
  <anchor x="693" y="0" name="ogonek"/>
  <anchor x="599" y="1424" name="top"/>
  <outline>
    <contour>
      <point x="544" y="-17" type="curve" smooth="yes"/>
      <point x="564" y="-17"/>
      <point x="565" y="16"/>
      <point x="545" y="16" type="curve" smooth="yes"/>
      <point x="342" y="16"/>
      <point x="195" y="163"/>
      <point x="195" y="365" type="curve" smooth="yes"/>
      <point x="195" y="599"/>
      <point x="359" y="768"/>
      <point x="579" y="768" type="curve" smooth="yes"/>
      <point x="760" y="768" type="line" smooth="yes"/>
      <point x="766" y="768"/>
      <point x="771" y="773"/>
      <point x="771" y="785" type="curve" smooth="yes"/>
      <point x="771" y="798"/>
      <point x="766" y="803"/>
      <point x="760" y="803" type="curve" smooth="yes"/>
      <point x="579" y="803" type="line" smooth="yes"/>
      <point x="389" y="803"/>
      <point x="264" y="930"/>
      <point x="264" y="1124" type="curve" smooth="yes"/>
      <point x="264" y="1331"/>
      <point x="398" y="1478"/>
      <point x="590" y="1478" type="curve" smooth="yes"/>
      <point x="711" y="1478"/>
      <point x="841" y="1419"/>
      <point x="920" y="1329" type="curve" smooth="yes"/>
      <point x="933" y="1314"/>
      <point x="943" y="1311"/>
      <point x="953" y="1321" type="curve" smooth="yes"/>
      <point x="961" y="1330"/>
      <point x="960" y="1339"/>
      <point x="953" y="1348" type="curve" smooth="yes"/>
      <point x="869" y="1449"/>
      <point x="728" y="1515"/>
      <point x="595" y="1515" type="curve" smooth="yes"/>
      <point x="375" y="1515"/>
      <point x="223" y="1351"/>
      <point x="223" y="1121" type="curve" smooth="yes"/>
      <point x="223" y="955"/>
      <point x="318" y="823"/>
      <point x="464" y="786" type="curve"/>
      <point x="284" y="740"/>
      <point x="154" y="564"/>
      <point x="154" y="365" type="curve" smooth="yes"/>
      <point x="154" y="143"/>
      <point x="318" y="-17"/>
    </contour>
  </outline>
</glyph>
<glyph name="F.cur" format="2">
  <advance width="1150"/>
  <outline>
    <contour>
      <point x="290" y="-19" type="curve" smooth="yes"/>
      <point x="413" y="-19"/>
      <point x="485" y="78"/>
      <point x="485" y="241" type="curve" smooth="yes"/>
      <point x="485" y="726" type="line"/>
      <point x="998" y="726" type="line" smooth="yes"/>
      <point x="1004" y="726"/>
      <point x="1009" y="731"/>
      <point x="1009" y="744" type="curve" smooth="yes"/>
      <point x="1009" y="756"/>
      <point x="1004" y="761"/>
      <point x="998" y="761" type="curve" smooth="yes"/>
      <point x="485" y="761" type="line"/>
      <point x="485" y="1453" type="line"/>
      <point x="1095" y="1453" type="line" smooth="yes"/>
      <point x="1101" y="1453"/>
      <point x="1106" y="1458"/>
      <point x="1106" y="1470" type="curve" smooth="yes"/>
      <point x="1106" y="1483"/>
      <point x="1101" y="1488"/>
      <point x="1095" y="1488" type="curve" smooth="yes"/>
      <point x="424" y="1488" type="line" smooth="yes"/>
      <point x="281" y="1488"/>
      <point x="171" y="1435"/>
      <point x="73" y="1301" type="curve" smooth="yes"/>
      <point x="66" y="1294"/>
      <point x="66" y="1284"/>
      <point x="75" y="1278" type="curve" smooth="yes"/>
      <point x="84" y="1270"/>
      <point x="94" y="1269"/>
      <point x="100" y="1278" type="curve" smooth="yes"/>
      <point x="199" y="1408"/>
      <point x="284" y="1453"/>
      <point x="424" y="1453" type="curve" smooth="yes"/>
      <point x="448" y="1453" type="line"/>
      <point x="448" y="241" type="line" smooth="yes"/>
      <point x="448" y="98"/>
      <point x="393" y="18"/>
      <point x="290" y="18" type="curve" smooth="yes"/>
      <point x="206" y="18"/>
      <point x="139" y="61"/>
      <point x="95" y="143" type="curve" smooth="yes"/>
      <point x="91" y="150"/>
      <point x="83" y="153"/>
      <point x="73" y="146" type="curve" smooth="yes"/>
      <point x="65" y="141"/>
      <point x="59" y="133"/>
      <point x="64" y="124" type="curve" smooth="yes"/>
      <point x="119" y="21"/>
      <point x="199" y="-19"/>
    </contour>
  </outline>
</glyph>
<glyph name="F.cur_locl" format="2">
  <advance width="1305"/>
  <outline>
    <contour>
      <point x="408" y="-17" type="curve" smooth="yes"/>
      <point x="729" y="-17"/>
      <point x="1005" y="414"/>
      <point x="1005" y="920" type="curve" smooth="yes"/>
      <point x="1005" y="1315"/>
      <point x="855" y="1515"/>
      <point x="559" y="1515" type="curve" smooth="yes"/>
      <point x="440" y="1515"/>
      <point x="286" y="1453"/>
      <point x="154" y="1349" type="curve" smooth="yes"/>
      <point x="144" y="1341"/>
      <point x="140" y="1334"/>
      <point x="146" y="1324" type="curve" smooth="yes"/>
      <point x="154" y="1313"/>
      <point x="164" y="1310"/>
      <point x="173" y="1318" type="curve" smooth="yes"/>
      <point x="298" y="1418"/>
      <point x="444" y="1478"/>
      <point x="559" y="1478" type="curve" smooth="yes"/>
      <point x="828" y="1478"/>
      <point x="964" y="1290"/>
      <point x="964" y="920" type="curve" smooth="yes"/>
      <point x="964" y="435"/>
      <point x="705" y="20"/>
      <point x="408" y="20" type="curve" smooth="yes"/>
      <point x="278" y="20"/>
      <point x="199" y="121"/>
      <point x="199" y="288" type="curve" smooth="yes"/>
      <point x="199" y="621"/>
      <point x="537" y="853"/>
      <point x="1203" y="974" type="curve"/>
      <point x="1203" y="786" type="line" smooth="yes"/>
      <point x="1203" y="776"/>
      <point x="1209" y="771"/>
      <point x="1221" y="771" type="curve" smooth="yes"/>
      <point x="1234" y="771"/>
      <point x="1240" y="776"/>
      <point x="1240" y="786" type="curve" smooth="yes"/>
      <point x="1240" y="993" type="line" smooth="yes"/>
      <point x="1240" y="1011"/>
      <point x="1233" y="1019"/>
      <point x="1215" y="1015" type="curve" smooth="yes"/>
      <point x="514" y="888"/>
      <point x="158" y="641"/>
      <point x="158" y="288" type="curve" smooth="yes"/>
      <point x="158" y="98"/>
      <point x="253" y="-17"/>
    </contour>
  </outline>
</glyph>
<glyph name="F.dec" format="2">
  <advance width="1444"/>
  <outline>
    <contour>
      <point x="548" y="-17" type="curve" smooth="yes"/>
      <point x="819" y="-17"/>
      <point x="984" y="204"/>
      <point x="984" y="568" type="curve" smooth="yes"/>
      <point x="984" y="745" type="line"/>
      <point x="1205" y="745" type="line" smooth="yes"/>
      <point x="1213" y="745"/>
      <point x="1216" y="753"/>
      <point x="1216" y="764" type="curve" smooth="yes"/>
      <point x="1216" y="775"/>
      <point x="1213" y="780"/>
      <point x="1205" y="780" type="curve" smooth="yes"/>
      <point x="984" y="780" type="line"/>
      <point x="984" y="1355" type="line"/>
      <point x="1001" y="1354"/>
      <point x="1020" y="1353"/>
      <point x="1039" y="1353" type="curve" smooth="yes"/>
      <point x="1176" y="1353"/>
      <point x="1279" y="1394"/>
      <point x="1376" y="1466" type="curve" smooth="yes"/>
      <point x="1386" y="1473"/>
      <point x="1389" y="1480"/>
      <point x="1383" y="1490" type="curve" smooth="yes"/>
      <point x="1376" y="1501"/>
      <point x="1368" y="1503"/>
      <point x="1356" y="1494" type="curve" smooth="yes"/>
      <point x="1260" y="1423"/>
      <point x="1166" y="1388"/>
      <point x="1049" y="1388" type="curve" smooth="yes"/>
      <point x="801" y="1388"/>
      <point x="688" y="1513"/>
      <point x="489" y="1513" type="curve" smooth="yes"/>
      <point x="289" y="1513"/>
      <point x="196" y="1355"/>
      <point x="196" y="1188" type="curve" smooth="yes"/>
      <point x="196" y="1176"/>
      <point x="204" y="1171"/>
      <point x="214" y="1171" type="curve" smooth="yes"/>
      <point x="229" y="1171"/>
      <point x="233" y="1178"/>
      <point x="233" y="1188" type="curve" smooth="yes"/>
      <point x="233" y="1338"/>
      <point x="309" y="1478"/>
      <point x="486" y="1478" type="curve" smooth="yes"/>
      <point x="649" y="1478"/>
      <point x="758" y="1384"/>
      <point x="946" y="1359" type="curve"/>
      <point x="946" y="780" type="line"/>
      <point x="681" y="780" type="line" smooth="yes"/>
      <point x="674" y="780"/>
      <point x="670" y="775"/>
      <point x="670" y="764" type="curve" smooth="yes"/>
      <point x="670" y="753"/>
      <point x="674" y="745"/>
      <point x="681" y="745" type="curve" smooth="yes"/>
      <point x="946" y="745" type="line"/>
      <point x="946" y="568" type="line" smooth="yes"/>
      <point x="946" y="226"/>
      <point x="794" y="19"/>
      <point x="548" y="19" type="curve" smooth="yes"/>
      <point x="331" y="19"/>
      <point x="191" y="169"/>
      <point x="129" y="463" type="curve"/>
      <point x="265" y="414"/>
      <point x="364" y="393"/>
      <point x="534" y="393" type="curve" smooth="yes"/>
      <point x="541" y="393"/>
      <point x="546" y="400"/>
      <point x="546" y="411" type="curve" smooth="yes"/>
      <point x="546" y="424"/>
      <point x="541" y="430"/>
      <point x="534" y="430" type="curve" smooth="yes"/>
      <point x="385" y="430"/>
      <point x="273" y="446"/>
      <point x="141" y="499" type="curve" smooth="yes"/>
      <point x="121" y="506"/>
      <point x="109" y="508"/>
      <point x="98" y="496" type="curve" smooth="yes"/>
      <point x="86" y="485"/>
      <point x="85" y="476"/>
      <point x="89" y="459" type="curve" smooth="yes"/>
      <point x="158" y="135"/>
      <point x="311" y="-17"/>
    </contour>
  </outline>
</glyph>
<glyph name="G.cur_locl.ini" format="2">
  <advance width="1300"/>
  <anchor x="635" y="0" name="bottom"/>
  <anchor x="1300" y="0" name="cnct"/>
  <anchor x="698" y="1424" name="top"/>
  <outline>
    <contour>
      <point x="918" y="-1020" type="curve" smooth="yes"/>
      <point x="1070" y="-1020"/>
      <point x="1148" y="-890"/>
      <point x="1148" y="-635" type="curve" smooth="yes"/>
      <point x="1148" y="705" type="line" smooth="yes"/>
      <point x="1148" y="716"/>
      <point x="1143" y="720"/>
      <point x="1129" y="720" type="curve" smooth="yes"/>
      <point x="1115" y="720"/>
      <point x="1110" y="716"/>
      <point x="1110" y="705" type="curve"/>
      <point x="1046" y="324"/>
      <point x="841" y="49"/>
      <point x="624" y="49" type="curve" smooth="yes"/>
      <point x="391" y="49"/>
      <point x="250" y="300"/>
      <point x="250" y="711" type="curve" smooth="yes"/>
      <point x="250" y="1131"/>
      <point x="489" y="1478"/>
      <point x="760" y="1478" type="curve" smooth="yes"/>
      <point x="888" y="1478"/>
      <point x="980" y="1376"/>
      <point x="980" y="1235" type="curve" smooth="yes"/>
      <point x="980" y="896"/>
      <point x="686" y="554"/>
      <point x="108" y="223" type="curve" smooth="yes"/>
      <point x="98" y="216"/>
      <point x="94" y="210"/>
      <point x="98" y="200" type="curve" smooth="yes"/>
      <point x="103" y="188"/>
      <point x="110" y="184"/>
      <point x="121" y="189" type="curve" smooth="yes"/>
      <point x="718" y="531"/>
      <point x="1021" y="885"/>
      <point x="1021" y="1235" type="curve" smooth="yes"/>
      <point x="1021" y="1398"/>
      <point x="911" y="1515"/>
      <point x="760" y="1515" type="curve" smooth="yes"/>
      <point x="465" y="1515"/>
      <point x="209" y="1153"/>
      <point x="209" y="711" type="curve" smooth="yes"/>
      <point x="209" y="276"/>
      <point x="364" y="11"/>
      <point x="618" y="11" type="curve" smooth="yes"/>
      <point x="828" y="11"/>
      <point x="1018" y="216"/>
      <point x="1110" y="553" type="curve"/>
      <point x="1110" y="-635" type="line" smooth="yes"/>
      <point x="1110" y="-867"/>
      <point x="1046" y="-985"/>
      <point x="921" y="-985" type="curve" smooth="yes"/>
      <point x="833" y="-985"/>
      <point x="785" y="-924"/>
      <point x="785" y="-814" type="curve" smooth="yes"/>
      <point x="785" y="-789"/>
      <point x="744" y="-789"/>
      <point x="744" y="-812" type="curve" smooth="yes"/>
      <point x="744" y="-940"/>
      <point x="808" y="-1020"/>
    </contour>
  </outline>
</glyph>
<glyph name="G.cur_ro" format="2">
  <advance width="1115"/>
  <anchor x="568" y="0" name="bottom"/>
  <anchor x="558" y="1500" name="top"/>
  <outline>
    <contour>
      <point x="551" y="-20" type="curve" smooth="yes"/>
      <point x="797" y="-20"/>
      <point x="947" y="256"/>
      <point x="947" y="782" type="curve" smooth="yes"/>
      <point x="947" y="794"/>
      <point x="943" y="799"/>
      <point x="930" y="799" type="curve" smooth="yes"/>
      <point x="919" y="799"/>
      <point x="913" y="795"/>
      <point x="905" y="790" type="curve" smooth="yes"/>
      <point x="811" y="730"/>
      <point x="681" y="658"/>
      <point x="527" y="658" type="curve" smooth="yes"/>
      <point x="333" y="658"/>
      <point x="241" y="781"/>
      <point x="241" y="991" type="curve" smooth="yes"/>
      <point x="241" y="1258"/>
      <point x="376" y="1481"/>
      <point x="565" y="1481" type="curve" smooth="yes"/>
      <point x="680" y="1481"/>
      <point x="750" y="1396"/>
      <point x="750" y="1253" type="curve" smooth="yes"/>
      <point x="750" y="1058"/>
      <point x="598" y="912"/>
      <point x="401" y="912" type="curve" smooth="yes"/>
      <point x="182" y="912"/>
      <point x="75" y="1092"/>
      <point x="75" y="1466" type="curve" smooth="yes"/>
      <point x="75" y="1477"/>
      <point x="70" y="1481"/>
      <point x="57" y="1481" type="curve" smooth="yes"/>
      <point x="46" y="1481"/>
      <point x="39" y="1477"/>
      <point x="39" y="1466" type="curve" smooth="yes"/>
      <point x="39" y="1070"/>
      <point x="160" y="875"/>
      <point x="399" y="875" type="curve" smooth="yes"/>
      <point x="621" y="875"/>
      <point x="790" y="1037"/>
      <point x="790" y="1254" type="curve" smooth="yes"/>
      <point x="790" y="1419"/>
      <point x="703" y="1518"/>
      <point x="567" y="1518" type="curve" smooth="yes"/>
      <point x="354" y="1518"/>
      <point x="201" y="1283"/>
      <point x="201" y="994" type="curve" smooth="yes"/>
      <point x="201" y="754"/>
      <point x="314" y="620"/>
      <point x="525" y="620" type="curve" smooth="yes"/>
      <point x="651" y="620"/>
      <point x="787" y="672"/>
      <point x="909" y="749" type="curve"/>
      <point x="901" y="267"/>
      <point x="767" y="19"/>
      <point x="550" y="19" type="curve" smooth="yes"/>
      <point x="409" y="19"/>
      <point x="334" y="119"/>
      <point x="288" y="257" type="curve" smooth="yes"/>
      <point x="285" y="267"/>
      <point x="276" y="271"/>
      <point x="264" y="267" type="curve" smooth="yes"/>
      <point x="252" y="263"/>
      <point x="247" y="256"/>
      <point x="251" y="244" type="curve" smooth="yes"/>
      <point x="288" y="132"/>
      <point x="362" y="-20"/>
    </contour>
  </outline>
</glyph>
<glyph name="G.dec" format="2">
  <advance width="1625"/>
  <guideline x="628" y="389" angle="0"/>
  <anchor x="900" y="0" name="bottom"/>
  <anchor x="950" y="1424" name="top"/>
  <outline>
    <contour>
      <point x="100" y="-12" type="curve" smooth="yes"/>
      <point x="431" y="-12"/>
      <point x="758" y="570"/>
      <point x="758" y="1196" type="curve" smooth="yes"/>
      <point x="758" y="1406"/>
      <point x="703" y="1513"/>
      <point x="594" y="1513" type="curve" smooth="yes"/>
      <point x="511" y="1513"/>
      <point x="449" y="1416"/>
      <point x="449" y="1283" type="curve" smooth="yes"/>
      <point x="449" y="1054"/>
      <point x="581" y="914"/>
      <point x="799" y="914" type="curve" smooth="yes"/>
      <point x="1011" y="914"/>
      <point x="1180" y="1071"/>
      <point x="1298" y="1380" type="curve"/>
      <point x="1291" y="1380" type="line"/>
      <point x="1310" y="1203"/>
      <point x="1328" y="1013"/>
      <point x="1328" y="825" type="curve" smooth="yes"/>
      <point x="1328" y="261"/>
      <point x="1193" y="25"/>
      <point x="873" y="25" type="curve" smooth="yes"/>
      <point x="584" y="25"/>
      <point x="330" y="324"/>
      <point x="268" y="738" type="curve"/>
      <point x="256" y="728" type="line"/>
      <point x="618" y="510"/>
      <point x="1050" y="399"/>
      <point x="1543" y="399" type="curve" smooth="yes"/>
      <point x="1550" y="399"/>
      <point x="1556" y="408"/>
      <point x="1556" y="419" type="curve" smooth="yes"/>
      <point x="1556" y="433"/>
      <point x="1550" y="436"/>
      <point x="1543" y="436" type="curve" smooth="yes"/>
      <point x="1050" y="436"/>
      <point x="628" y="543"/>
      <point x="289" y="753" type="curve" smooth="yes"/>
      <point x="270" y="764"/>
      <point x="253" y="760"/>
      <point x="240" y="746" type="curve" smooth="yes"/>
      <point x="231" y="736"/>
      <point x="233" y="723"/>
      <point x="234" y="713" type="curve" smooth="yes"/>
      <point x="299" y="293"/>
      <point x="568" y="-12"/>
      <point x="874" y="-12" type="curve" smooth="yes"/>
      <point x="1223" y="-12"/>
      <point x="1369" y="235"/>
      <point x="1369" y="825" type="curve" smooth="yes"/>
      <point x="1369" y="996"/>
      <point x="1354" y="1194"/>
      <point x="1333" y="1379" type="curve" smooth="yes"/>
      <point x="1330" y="1404"/>
      <point x="1321" y="1416"/>
      <point x="1303" y="1419" type="curve" smooth="yes"/>
      <point x="1281" y="1423"/>
      <point x="1268" y="1416"/>
      <point x="1260" y="1396" type="curve" smooth="yes"/>
      <point x="1150" y="1101"/>
      <point x="995" y="951"/>
      <point x="799" y="951" type="curve" smooth="yes"/>
      <point x="608" y="951"/>
      <point x="490" y="1076"/>
      <point x="490" y="1283" type="curve" smooth="yes"/>
      <point x="490" y="1393"/>
      <point x="536" y="1475"/>
      <point x="594" y="1475" type="curve" smooth="yes"/>
      <point x="675" y="1475"/>
      <point x="716" y="1381"/>
      <point x="716" y="1196" type="curve" smooth="yes"/>
      <point x="716" y="593"/>
      <point x="408" y="25"/>
      <point x="100" y="25" type="curve" smooth="yes"/>
      <point x="86" y="25"/>
      <point x="79" y="19"/>
      <point x="79" y="6" type="curve" smooth="yes"/>
      <point x="79" y="-6"/>
      <point x="86" y="-12"/>
    </contour>
  </outline>
</glyph>
<glyph name="G_locl.au" format="2">
  <advance width="1356"/>
  <anchor x="654" y="0" name="bottom"/>
  <anchor x="713" y="1424" name="top"/>
  <outline>
    <contour>
      <point x="626" y="-17" type="curve" smooth="yes"/>
      <point x="873" y="-17"/>
      <point x="1061" y="196"/>
      <point x="1135" y="549" type="curve"/>
      <point x="1135" y="1" type="line" smooth="yes"/>
      <point x="1135" y="-10"/>
      <point x="1141" y="-14"/>
      <point x="1155" y="-14" type="curve" smooth="yes"/>
      <point x="1168" y="-14"/>
      <point x="1173" y="-9"/>
      <point x="1173" y="1" type="curve" smooth="yes"/>
      <point x="1173" y="731" type="line" smooth="yes"/>
      <point x="1173" y="743"/>
      <point x="1168" y="746"/>
      <point x="1154" y="746" type="curve" smooth="yes"/>
      <point x="1140" y="746"/>
      <point x="1135" y="743"/>
      <point x="1135" y="730" type="curve"/>
      <point x="1079" y="289"/>
      <point x="888" y="20"/>
      <point x="631" y="20" type="curve" smooth="yes"/>
      <point x="355" y="20"/>
      <point x="191" y="279"/>
      <point x="191" y="714" type="curve" smooth="yes"/>
      <point x="191" y="1156"/>
      <point x="420" y="1478"/>
      <point x="736" y="1478" type="curve" smooth="yes"/>
      <point x="884" y="1478"/>
      <point x="1001" y="1420"/>
      <point x="1113" y="1295" type="curve" smooth="yes"/>
      <point x="1124" y="1283"/>
      <point x="1130" y="1280"/>
      <point x="1141" y="1290" type="curve" smooth="yes"/>
      <point x="1151" y="1299"/>
      <point x="1151" y="1305"/>
      <point x="1141" y="1316" type="curve" smooth="yes"/>
      <point x="1034" y="1446"/>
      <point x="901" y="1515"/>
      <point x="736" y="1515" type="curve" smooth="yes"/>
      <point x="396" y="1515"/>
      <point x="150" y="1179"/>
      <point x="150" y="714" type="curve" smooth="yes"/>
      <point x="150" y="255"/>
      <point x="328" y="-17"/>
    </contour>
  </outline>
</glyph>
<glyph name="G_locl" format="2">
  <advance width="1356"/>
  <anchor x="679" y="0" name="bottom"/>
  <anchor x="698" y="1424" name="top"/>
  <outline>
    <contour>
      <point x="674" y="-19" type="curve" smooth="yes"/>
      <point x="870" y="-19"/>
      <point x="1045" y="113"/>
      <point x="1135" y="319" type="curve"/>
      <point x="1135" y="1" type="line" smooth="yes"/>
      <point x="1135" y="-10"/>
      <point x="1140" y="-14"/>
      <point x="1153" y="-14" type="curve" smooth="yes"/>
      <point x="1166" y="-14"/>
      <point x="1173" y="-10"/>
      <point x="1173" y="1" type="curve" smooth="yes"/>
      <point x="1173" y="731" type="line" smooth="yes"/>
      <point x="1173" y="743"/>
      <point x="1168" y="746"/>
      <point x="1154" y="746" type="curve" smooth="yes"/>
      <point x="756" y="746" type="line" smooth="yes"/>
      <point x="750" y="746"/>
      <point x="745" y="741"/>
      <point x="745" y="729" type="curve" smooth="yes"/>
      <point x="745" y="716"/>
      <point x="750" y="711"/>
      <point x="756" y="711" type="curve" smooth="yes"/>
      <point x="1135" y="711" type="line"/>
      <point x="1135" y="411" type="line"/>
      <point x="1046" y="165"/>
      <point x="878" y="19"/>
      <point x="674" y="19" type="curve" smooth="yes"/>
      <point x="383" y="19"/>
      <point x="191" y="308"/>
      <point x="191" y="749" type="curve" smooth="yes"/>
      <point x="191" y="1193"/>
      <point x="415" y="1478"/>
      <point x="724" y="1478" type="curve" smooth="yes"/>
      <point x="871" y="1478"/>
      <point x="989" y="1420"/>
      <point x="1100" y="1295" type="curve" smooth="yes"/>
      <point x="1111" y="1283"/>
      <point x="1118" y="1280"/>
      <point x="1129" y="1290" type="curve" smooth="yes"/>
      <point x="1139" y="1299"/>
      <point x="1139" y="1305"/>
      <point x="1129" y="1316" type="curve" smooth="yes"/>
      <point x="1021" y="1446"/>
      <point x="889" y="1515"/>
      <point x="724" y="1515" type="curve" smooth="yes"/>
      <point x="395" y="1515"/>
      <point x="150" y="1224"/>
      <point x="150" y="749" type="curve" smooth="yes"/>
      <point x="150" y="271"/>
      <point x="361" y="-19"/>
    </contour>
  </outline>
</glyph>
<glyph name="H.dec" format="2">
  <advance width="1668"/>
  <guideline x="752" y="1200" angle="90"/>
  <anchor x="940" y="0" name="bottom"/>
  <anchor x="940" y="1150" name="center"/>
  <anchor x="940" y="1424" name="top"/>
  <outline>
    <contour>
      <point x="545" y="-14" type="curve" smooth="yes"/>
      <point x="559" y="-14"/>
      <point x="564" y="-10"/>
      <point x="564" y="1" type="curve" smooth="yes"/>
      <point x="564" y="1500" type="line" smooth="yes"/>
      <point x="564" y="1511"/>
      <point x="558" y="1515"/>
      <point x="545" y="1515" type="curve" smooth="yes"/>
      <point x="531" y="1515"/>
      <point x="529" y="1513"/>
      <point x="519" y="1500" type="curve" smooth="yes"/>
      <point x="490" y="1465"/>
      <point x="455" y="1448"/>
      <point x="413" y="1448" type="curve" smooth="yes"/>
      <point x="349" y="1448"/>
      <point x="280" y="1486"/>
      <point x="209" y="1486" type="curve" smooth="yes"/>
      <point x="126" y="1486"/>
      <point x="65" y="1415"/>
      <point x="65" y="1313" type="curve" smooth="yes"/>
      <point x="65" y="1301"/>
      <point x="71" y="1295"/>
      <point x="84" y="1295" type="curve" smooth="yes"/>
      <point x="98" y="1295"/>
      <point x="103" y="1303"/>
      <point x="103" y="1313" type="curve" smooth="yes"/>
      <point x="103" y="1403"/>
      <point x="148" y="1451"/>
      <point x="206" y="1451" type="curve" smooth="yes"/>
      <point x="274" y="1451"/>
      <point x="334" y="1413"/>
      <point x="410" y="1413" type="curve" smooth="yes"/>
      <point x="455" y="1413"/>
      <point x="500" y="1430"/>
      <point x="526" y="1460" type="curve"/>
      <point x="526" y="1" type="line" smooth="yes"/>
      <point x="526" y="-10"/>
      <point x="531" y="-14"/>
    </contour>
    <contour>
      <point x="1315" y="328" type="curve"/>
      <point x="1348" y="340" type="line"/>
      <point x="1348" y="778"/>
      <point x="1078" y="870"/>
      <point x="846" y="870" type="curve" smooth="yes"/>
      <point x="676" y="870"/>
      <point x="540" y="776"/>
      <point x="540" y="644" type="curve" smooth="yes"/>
      <point x="540" y="489"/>
      <point x="678" y="410"/>
      <point x="913" y="410" type="curve" smooth="yes"/>
      <point x="1204" y="410"/>
      <point x="1394" y="524"/>
      <point x="1554" y="796" type="curve" smooth="yes"/>
      <point x="1559" y="804"/>
      <point x="1558" y="811"/>
      <point x="1546" y="819" type="curve" smooth="yes"/>
      <point x="1536" y="826"/>
      <point x="1528" y="826"/>
      <point x="1521" y="816" type="curve" smooth="yes"/>
      <point x="1369" y="556"/>
      <point x="1188" y="448"/>
      <point x="909" y="448" type="curve" smooth="yes"/>
      <point x="693" y="448"/>
      <point x="573" y="516"/>
      <point x="573" y="644" type="curve" smooth="yes"/>
      <point x="573" y="760"/>
      <point x="685" y="833"/>
      <point x="850" y="833" type="curve" smooth="yes"/>
      <point x="1046" y="833"/>
      <point x="1315" y="763"/>
    </contour>
    <contour>
      <point x="1334" y="-14" type="curve" smooth="yes"/>
      <point x="1348" y="-14"/>
      <point x="1353" y="-10"/>
      <point x="1353" y="1" type="curve" smooth="yes"/>
      <point x="1353" y="1500" type="line" smooth="yes"/>
      <point x="1353" y="1511"/>
      <point x="1346" y="1515"/>
      <point x="1334" y="1515" type="curve" smooth="yes"/>
      <point x="1320" y="1515"/>
      <point x="1315" y="1511"/>
      <point x="1315" y="1500" type="curve" smooth="yes"/>
      <point x="1315" y="1" type="line" smooth="yes"/>
      <point x="1315" y="-10"/>
      <point x="1320" y="-14"/>
    </contour>
  </outline>
</glyph>
<glyph name="I.cur.ini" format="2">
  <advance width="1450"/>
  <anchor x="1051" y="0" name="bottom"/>
  <anchor x="1450" y="0" name="cnct"/>
  <anchor x="1205" y="-9" name="ogonek"/>
  <anchor x="1051" y="1424" name="top"/>
  <outline>
    <contour>
      <point x="630" y="-17" type="curve" smooth="yes"/>
      <point x="1005" y="-17"/>
      <point x="1311" y="431"/>
      <point x="1311" y="1049" type="curve" smooth="yes"/>
      <point x="1311" y="1321"/>
      <point x="1236" y="1515"/>
      <point x="1055" y="1515" type="curve" smooth="yes"/>
      <point x="850" y="1515"/>
      <point x="770" y="1286"/>
      <point x="770" y="1015" type="curve" smooth="yes"/>
      <point x="770" y="502"/>
      <point x="1082" y="-17"/>
      <point x="1394" y="-17" type="curve" smooth="yes"/>
      <point x="1414" y="-17"/>
      <point x="1414" y="18"/>
      <point x="1394" y="18" type="curve" smooth="yes"/>
      <point x="1106" y="18"/>
      <point x="811" y="523"/>
      <point x="811" y="1015" type="curve" smooth="yes"/>
      <point x="811" y="1260"/>
      <point x="883" y="1478"/>
      <point x="1054" y="1478" type="curve" smooth="yes"/>
      <point x="1209" y="1478"/>
      <point x="1270" y="1273"/>
      <point x="1270" y="1049" type="curve" smooth="yes"/>
      <point x="1270" y="452"/>
      <point x="981" y="20"/>
      <point x="630" y="20" type="curve" smooth="yes"/>
      <point x="395" y="20"/>
      <point x="241" y="173"/>
      <point x="174" y="471" type="curve"/>
      <point x="308" y="426"/>
      <point x="403" y="404"/>
      <point x="578" y="404" type="curve" smooth="yes"/>
      <point x="586" y="404"/>
      <point x="591" y="411"/>
      <point x="591" y="423" type="curve" smooth="yes"/>
      <point x="591" y="436"/>
      <point x="586" y="440"/>
      <point x="578" y="440" type="curve" smooth="yes"/>
      <point x="413" y="440"/>
      <point x="311" y="461"/>
      <point x="180" y="510" type="curve"/>
      <point x="165" y="518"/>
      <point x="155" y="516"/>
      <point x="143" y="504" type="curve" smooth="yes"/>
      <point x="133" y="494"/>
      <point x="130" y="486"/>
      <point x="134" y="469" type="curve" smooth="yes"/>
      <point x="205" y="140"/>
      <point x="379" y="-17"/>
    </contour>
  </outline>
</glyph>
<glyph name="I.dec" format="2">
  <advance width="864"/>
  <anchor x="376" y="0" name="bottom"/>
  <anchor x="383" y="1424" name="top"/>
  <outline>
    <contour>
      <point x="379" y="-17" type="curve" smooth="yes"/>
      <point x="529" y="-17"/>
      <point x="606" y="66"/>
      <point x="606" y="244" type="curve" smooth="yes"/>
      <point x="606" y="1500" type="line" smooth="yes"/>
      <point x="606" y="1511"/>
      <point x="600" y="1515"/>
      <point x="588" y="1515" type="curve" smooth="yes"/>
      <point x="575" y="1515"/>
      <point x="573" y="1511"/>
      <point x="563" y="1500" type="curve" smooth="yes"/>
      <point x="540" y="1475"/>
      <point x="501" y="1446"/>
      <point x="458" y="1446" type="curve" smooth="yes"/>
      <point x="384" y="1446"/>
      <point x="336" y="1486"/>
      <point x="251" y="1486" type="curve" smooth="yes"/>
      <point x="169" y="1486"/>
      <point x="111" y="1415"/>
      <point x="111" y="1313" type="curve" smooth="yes"/>
      <point x="111" y="1301"/>
      <point x="118" y="1295"/>
      <point x="130" y="1295" type="curve" smooth="yes"/>
      <point x="144" y="1295"/>
      <point x="149" y="1303"/>
      <point x="149" y="1313" type="curve" smooth="yes"/>
      <point x="149" y="1404"/>
      <point x="194" y="1453"/>
      <point x="251" y="1453" type="curve" smooth="yes"/>
      <point x="319" y="1453"/>
      <point x="376" y="1413"/>
      <point x="451" y="1413" type="curve" smooth="yes"/>
      <point x="499" y="1413"/>
      <point x="539" y="1431"/>
      <point x="569" y="1460" type="curve"/>
      <point x="569" y="244" type="line" smooth="yes"/>
      <point x="569" y="90"/>
      <point x="505" y="18"/>
      <point x="383" y="18" type="curve" smooth="yes"/>
      <point x="293" y="18"/>
      <point x="218" y="63"/>
      <point x="158" y="153" type="curve" smooth="yes"/>
      <point x="150" y="164"/>
      <point x="141" y="164"/>
      <point x="130" y="154" type="curve" smooth="yes"/>
      <point x="123" y="149"/>
      <point x="120" y="139"/>
      <point x="126" y="129" type="curve" smooth="yes"/>
      <point x="194" y="31"/>
      <point x="278" y="-17"/>
    </contour>
  </outline>
</glyph>
<glyph name="IJ.cur.ini" format="2">
  <advance width="1074"/>
  <anchor x="534" y="0" name="bottom"/>
  <anchor x="1074" y="0" name="cnct"/>
  <anchor x="570" y="1424" name="top"/>
  <outline>
    <contour>
      <point x="691" y="-1020" type="curve" smooth="yes"/>
      <point x="844" y="-1020"/>
      <point x="921" y="-890"/>
      <point x="921" y="-635" type="curve" smooth="yes"/>
      <point x="921" y="1500" type="line" smooth="yes"/>
      <point x="921" y="1511"/>
      <point x="916" y="1515"/>
      <point x="903" y="1515" type="curve" smooth="yes"/>
      <point x="889" y="1515"/>
      <point x="884" y="1511"/>
      <point x="884" y="1500" type="curve" smooth="yes"/>
      <point x="884" y="435" type="line"/>
      <point x="844" y="239"/>
      <point x="716" y="123"/>
      <point x="533" y="123" type="curve" smooth="yes"/>
      <point x="350" y="123"/>
      <point x="255" y="235"/>
      <point x="255" y="468" type="curve" smooth="yes"/>
      <point x="255" y="1500" type="line" smooth="yes"/>
      <point x="255" y="1511"/>
      <point x="250" y="1515"/>
      <point x="236" y="1515" type="curve" smooth="yes"/>
      <point x="223" y="1515"/>
      <point x="218" y="1511"/>
      <point x="218" y="1500" type="curve" smooth="yes"/>
      <point x="218" y="468" type="line" smooth="yes"/>
      <point x="218" y="211"/>
      <point x="326" y="88"/>
      <point x="533" y="88" type="curve" smooth="yes"/>
      <point x="701" y="88"/>
      <point x="825" y="176"/>
      <point x="884" y="330" type="curve"/>
      <point x="884" y="-635" type="line" smooth="yes"/>
      <point x="884" y="-867"/>
      <point x="820" y="-985"/>
      <point x="695" y="-985" type="curve" smooth="yes"/>
      <point x="606" y="-985"/>
      <point x="559" y="-924"/>
      <point x="559" y="-814" type="curve" smooth="yes"/>
      <point x="559" y="-789"/>
      <point x="518" y="-789"/>
      <point x="518" y="-812" type="curve" smooth="yes"/>
      <point x="518" y="-940"/>
      <point x="581" y="-1020"/>
    </contour>
  </outline>
</glyph>
<glyph name="J.cur.ini" format="2">
  <advance width="971"/>
  <anchor x="588" y="-1000" name="bottom"/>
  <anchor x="971" y="0" name="cnct"/>
  <anchor x="529" y="1424" name="top"/>
  <outline>
    <contour>
      <point x="589" y="-1020" type="curve" smooth="yes"/>
      <point x="741" y="-1020"/>
      <point x="819" y="-890"/>
      <point x="819" y="-635" type="curve" smooth="yes"/>
      <point x="819" y="1144" type="line" smooth="yes"/>
      <point x="819" y="1405"/>
      <point x="740" y="1515"/>
      <point x="554" y="1515" type="curve" smooth="yes"/>
      <point x="333" y="1515"/>
      <point x="173" y="1279"/>
      <point x="173" y="954" type="curve" smooth="yes"/>
      <point x="173" y="601"/>
      <point x="269" y="413"/>
      <point x="553" y="208" type="curve" smooth="yes"/>
      <point x="564" y="199"/>
      <point x="574" y="199"/>
      <point x="583" y="211" type="curve" smooth="yes"/>
      <point x="589" y="221"/>
      <point x="586" y="230"/>
      <point x="575" y="238" type="curve" smooth="yes"/>
      <point x="305" y="431"/>
      <point x="214" y="614"/>
      <point x="214" y="954" type="curve" smooth="yes"/>
      <point x="214" y="1258"/>
      <point x="356" y="1478"/>
      <point x="554" y="1478" type="curve" smooth="yes"/>
      <point x="714" y="1478"/>
      <point x="781" y="1379"/>
      <point x="781" y="1144" type="curve" smooth="yes"/>
      <point x="781" y="-635" type="line" smooth="yes"/>
      <point x="781" y="-867"/>
      <point x="718" y="-985"/>
      <point x="593" y="-985" type="curve" smooth="yes"/>
      <point x="504" y="-985"/>
      <point x="456" y="-924"/>
      <point x="456" y="-814" type="curve" smooth="yes"/>
      <point x="456" y="-789"/>
      <point x="415" y="-787"/>
      <point x="415" y="-812" type="curve" smooth="yes"/>
      <point x="415" y="-940"/>
      <point x="479" y="-1020"/>
    </contour>
  </outline>
</glyph>
<glyph name="J.dec" format="2">
  <advance width="806"/>
  <anchor x="338" y="-1000" name="bottom"/>
  <anchor x="400" y="1424" name="top"/>
  <outline>
    <contour>
      <point x="328" y="-1020" type="curve" smooth="yes"/>
      <point x="480" y="-1020"/>
      <point x="558" y="-890"/>
      <point x="558" y="-635" type="curve" smooth="yes"/>
      <point x="558" y="1500" type="line"/>
      <point x="558" y="1511"/>
      <point x="551" y="1515"/>
      <point x="539" y="1515" type="curve" smooth="yes"/>
      <point x="526" y="1515"/>
      <point x="524" y="1511"/>
      <point x="514" y="1500" type="curve" smooth="yes"/>
      <point x="491" y="1475"/>
      <point x="453" y="1446"/>
      <point x="409" y="1446" type="curve" smooth="yes"/>
      <point x="335" y="1446"/>
      <point x="288" y="1486"/>
      <point x="203" y="1486" type="curve" smooth="yes"/>
      <point x="120" y="1486"/>
      <point x="63" y="1415"/>
      <point x="63" y="1313" type="curve" smooth="yes"/>
      <point x="63" y="1301"/>
      <point x="69" y="1295"/>
      <point x="81" y="1295" type="curve" smooth="yes"/>
      <point x="95" y="1295"/>
      <point x="100" y="1303"/>
      <point x="100" y="1313" type="curve" smooth="yes"/>
      <point x="100" y="1404"/>
      <point x="145" y="1453"/>
      <point x="203" y="1453" type="curve" smooth="yes"/>
      <point x="270" y="1453"/>
      <point x="328" y="1413"/>
      <point x="403" y="1413" type="curve" smooth="yes"/>
      <point x="450" y="1413"/>
      <point x="490" y="1431"/>
      <point x="520" y="1460" type="curve"/>
      <point x="520" y="-635" type="line" smooth="yes"/>
      <point x="520" y="-867"/>
      <point x="456" y="-985"/>
      <point x="331" y="-985" type="curve" smooth="yes"/>
      <point x="243" y="-985"/>
      <point x="195" y="-920"/>
      <point x="195" y="-814" type="curve" smooth="yes"/>
      <point x="195" y="-624"/>
      <point x="323" y="-392"/>
      <point x="531" y="-200" type="curve" smooth="yes"/>
      <point x="625" y="-109"/>
      <point x="735" y="-12"/>
      <point x="865" y="85" type="curve" smooth="yes"/>
      <point x="876" y="94"/>
      <point x="879" y="101"/>
      <point x="874" y="110" type="curve" smooth="yes"/>
      <point x="868" y="121"/>
      <point x="858" y="123"/>
      <point x="848" y="115" type="curve" smooth="yes"/>
      <point x="728" y="26"/>
      <point x="624" y="-62"/>
      <point x="535" y="-146" type="curve" smooth="yes"/>
      <point x="298" y="-360"/>
      <point x="154" y="-612"/>
      <point x="154" y="-812" type="curve" smooth="yes"/>
      <point x="154" y="-939"/>
      <point x="218" y="-1020"/>
    </contour>
  </outline>
</glyph>
<glyph name="K.cur" format="2">
  <advance width="1359"/>
  <guideline y="-12"/>
  <anchor x="818" y="0" name="bottom"/>
  <anchor x="818" y="1424" name="top"/>
  <outline>
    <contour>
      <point x="1161" y="-19" type="curve" smooth="yes"/>
      <point x="1229" y="-19"/>
      <point x="1291" y="25"/>
      <point x="1338" y="98" type="curve" smooth="yes"/>
      <point x="1344" y="106"/>
      <point x="1345" y="114"/>
      <point x="1336" y="121" type="curve" smooth="yes"/>
      <point x="1326" y="130"/>
      <point x="1318" y="129"/>
      <point x="1311" y="120" type="curve" smooth="yes"/>
      <point x="1269" y="56"/>
      <point x="1220" y="18"/>
      <point x="1168" y="18" type="curve" smooth="yes"/>
      <point x="1066" y="18"/>
      <point x="981" y="95"/>
      <point x="829" y="329" type="curve" smooth="yes"/>
      <point x="530" y="785" type="line"/>
      <point x="1188" y="1463" type="line" smooth="yes"/>
      <point x="1195" y="1470"/>
      <point x="1194" y="1479"/>
      <point x="1189" y="1485" type="curve" smooth="yes"/>
      <point x="1180" y="1495"/>
      <point x="1170" y="1498"/>
      <point x="1163" y="1489" type="curve" smooth="yes"/>
      <point x="485" y="789" type="line"/>
      <point x="485" y="1308" type="line" smooth="yes"/>
      <point x="485" y="1444"/>
      <point x="433" y="1519"/>
      <point x="321" y="1519" type="curve" smooth="yes"/>
      <point x="238" y="1519"/>
      <point x="159" y="1461"/>
      <point x="88" y="1348" type="curve" smooth="yes"/>
      <point x="81" y="1338"/>
      <point x="83" y="1330"/>
      <point x="94" y="1323" type="curve" smooth="yes"/>
      <point x="104" y="1315"/>
      <point x="113" y="1318"/>
      <point x="118" y="1326" type="curve" smooth="yes"/>
      <point x="189" y="1440"/>
      <point x="253" y="1485"/>
      <point x="321" y="1485" type="curve" smooth="yes"/>
      <point x="409" y="1485"/>
      <point x="448" y="1423"/>
      <point x="448" y="1308" type="curve" smooth="yes"/>
      <point x="448" y="241" type="line" smooth="yes"/>
      <point x="448" y="98"/>
      <point x="393" y="18"/>
      <point x="290" y="18" type="curve" smooth="yes"/>
      <point x="206" y="18"/>
      <point x="139" y="61"/>
      <point x="95" y="143" type="curve" smooth="yes"/>
      <point x="91" y="150"/>
      <point x="83" y="153"/>
      <point x="73" y="146" type="curve" smooth="yes"/>
      <point x="65" y="141"/>
      <point x="59" y="133"/>
      <point x="64" y="124" type="curve" smooth="yes"/>
      <point x="119" y="21"/>
      <point x="199" y="-19"/>
      <point x="290" y="-19" type="curve" smooth="yes"/>
      <point x="413" y="-19"/>
      <point x="485" y="78"/>
      <point x="485" y="241" type="curve" smooth="yes"/>
      <point x="485" y="784" type="line"/>
      <point x="796" y="310" type="line" smooth="yes"/>
      <point x="958" y="64"/>
      <point x="1049" y="-19"/>
    </contour>
  </outline>
</glyph>
<glyph name="L.cur.ini" format="2">
  <advance width="1135"/>
  <anchor x="875" y="765" name="CAT"/>
  <anchor x="720" y="0" name="bottom"/>
  <anchor x="389" y="765" name="center"/>
  <anchor x="1135" y="0" name="cnct"/>
  <anchor x="681" y="1424" name="top"/>
  <anchor x="975" y="1488" name="topright"/>
  <outline>
    <contour>
      <point x="208" y="-21" type="curve" smooth="yes"/>
      <point x="334" y="-21"/>
      <point x="406" y="94"/>
      <point x="406" y="289" type="curve" smooth="yes"/>
      <point x="406" y="1116" type="line" smooth="yes"/>
      <point x="406" y="1354"/>
      <point x="498" y="1480"/>
      <point x="678" y="1480" type="curve" smooth="yes"/>
      <point x="804" y="1480"/>
      <point x="899" y="1404"/>
      <point x="938" y="1253" type="curve" smooth="yes"/>
      <point x="940" y="1241"/>
      <point x="948" y="1239"/>
      <point x="958" y="1243" type="curve" smooth="yes"/>
      <point x="968" y="1246"/>
      <point x="973" y="1250"/>
      <point x="969" y="1263" type="curve" smooth="yes"/>
      <point x="925" y="1428"/>
      <point x="821" y="1515"/>
      <point x="678" y="1515" type="curve" smooth="yes"/>
      <point x="473" y="1515"/>
      <point x="369" y="1376"/>
      <point x="369" y="1116" type="curve" smooth="yes"/>
      <point x="369" y="289" type="line" smooth="yes"/>
      <point x="369" y="116"/>
      <point x="313" y="14"/>
      <point x="213" y="14" type="curve" smooth="yes"/>
      <point x="150" y="14"/>
      <point x="109" y="49"/>
      <point x="109" y="104" type="curve" smooth="yes"/>
      <point x="109" y="155"/>
      <point x="164" y="189"/>
      <point x="225" y="189" type="curve" smooth="yes"/>
      <point x="440" y="189"/>
      <point x="856" y="-17"/>
      <point x="1075" y="-17" type="curve" smooth="yes"/>
      <point x="1100" y="-17"/>
      <point x="1100" y="18"/>
      <point x="1075" y="18" type="curve" smooth="yes"/>
      <point x="870" y="18"/>
      <point x="451" y="225"/>
      <point x="225" y="225" type="curve" smooth="yes"/>
      <point x="139" y="225"/>
      <point x="69" y="175"/>
      <point x="69" y="99" type="curve" smooth="yes"/>
      <point x="69" y="26"/>
      <point x="124" y="-21"/>
    </contour>
  </outline>
</glyph>
<glyph name="M_locl" format="2">
  <advance width="1675"/>
  <anchor x="839" y="0" name="bottom"/>
  <anchor x="839" y="1424" name="top"/>
  <outline>
    <contour>
      <point x="153" y="-14" type="curve" smooth="yes"/>
      <point x="166" y="-14"/>
      <point x="169" y="-11"/>
      <point x="171" y="1" type="curve" smooth="yes"/>
      <point x="396" y="1436" type="line"/>
      <point x="816" y="1" type="line" smooth="yes"/>
      <point x="820" y="-12"/>
      <point x="828" y="-14"/>
      <point x="838" y="-14" type="curve" smooth="yes"/>
      <point x="846" y="-14"/>
      <point x="855" y="-12"/>
      <point x="859" y="1" type="curve" smooth="yes"/>
      <point x="1280" y="1434" type="line"/>
      <point x="1504" y="1" type="line" smooth="yes"/>
      <point x="1506" y="-11"/>
      <point x="1508" y="-14"/>
      <point x="1521" y="-14" type="curve" smooth="yes"/>
      <point x="1538" y="-14"/>
      <point x="1541" y="-10"/>
      <point x="1540" y="1" type="curve" smooth="yes"/>
      <point x="1306" y="1500" type="line" smooth="yes"/>
      <point x="1305" y="1511"/>
      <point x="1301" y="1515"/>
      <point x="1283" y="1515" type="curve" smooth="yes"/>
      <point x="1269" y="1515"/>
      <point x="1266" y="1511"/>
      <point x="1263" y="1500" type="curve" smooth="yes"/>
      <point x="839" y="58" type="line"/>
      <point x="416" y="1500" type="line" smooth="yes"/>
      <point x="413" y="1513"/>
      <point x="406" y="1515"/>
      <point x="396" y="1515" type="curve" smooth="yes"/>
      <point x="376" y="1515"/>
      <point x="371" y="1511"/>
      <point x="370" y="1500" type="curve" smooth="yes"/>
      <point x="135" y="1" type="line" smooth="yes"/>
      <point x="134" y="-10"/>
      <point x="138" y="-14"/>
    </contour>
  </outline>
</glyph>
<glyph name="N.cur" format="2">
  <advance width="1496"/>
  <anchor x="749" y="0" name="bottom"/>
  <anchor x="768" y="1424" name="top"/>
  <outline>
    <contour>
      <point x="1265" y="-19" type="curve" smooth="yes"/>
      <point x="1351" y="-19"/>
      <point x="1423" y="39"/>
      <point x="1464" y="120" type="curve" smooth="yes"/>
      <point x="1469" y="130"/>
      <point x="1465" y="138"/>
      <point x="1455" y="143" type="curve" smooth="yes"/>
      <point x="1444" y="148"/>
      <point x="1438" y="145"/>
      <point x="1433" y="135" type="curve" smooth="yes"/>
      <point x="1396" y="65"/>
      <point x="1338" y="18"/>
      <point x="1270" y="18" type="curve" smooth="yes"/>
      <point x="1175" y="18"/>
      <point x="1135" y="81"/>
      <point x="1135" y="233" type="curve" smooth="yes"/>
      <point x="1135" y="1123" type="line" smooth="yes"/>
      <point x="1135" y="1379"/>
      <point x="1020" y="1515"/>
      <point x="805" y="1515" type="curve" smooth="yes"/>
      <point x="620" y="1515"/>
      <point x="481" y="1429"/>
      <point x="418" y="1280" type="curve"/>
      <point x="418" y="1308" type="line" smooth="yes"/>
      <point x="418" y="1444"/>
      <point x="365" y="1519"/>
      <point x="254" y="1519" type="curve" smooth="yes"/>
      <point x="170" y="1519"/>
      <point x="91" y="1461"/>
      <point x="20" y="1348" type="curve" smooth="yes"/>
      <point x="15" y="1340"/>
      <point x="13" y="1333"/>
      <point x="25" y="1324" type="curve" smooth="yes"/>
      <point x="38" y="1315"/>
      <point x="45" y="1318"/>
      <point x="50" y="1326" type="curve" smooth="yes"/>
      <point x="121" y="1440"/>
      <point x="185" y="1485"/>
      <point x="254" y="1485" type="curve" smooth="yes"/>
      <point x="341" y="1485"/>
      <point x="380" y="1423"/>
      <point x="380" y="1308" type="curve" smooth="yes"/>
      <point x="380" y="1" type="line" smooth="yes"/>
      <point x="380" y="-10"/>
      <point x="385" y="-14"/>
      <point x="399" y="-14" type="curve" smooth="yes"/>
      <point x="413" y="-14"/>
      <point x="418" y="-10"/>
      <point x="418" y="1" type="curve" smooth="yes"/>
      <point x="418" y="1173" type="line"/>
      <point x="455" y="1365"/>
      <point x="596" y="1479"/>
      <point x="796" y="1479" type="curve" smooth="yes"/>
      <point x="1000" y="1479"/>
      <point x="1098" y="1359"/>
      <point x="1098" y="1106" type="curve" smooth="yes"/>
      <point x="1098" y="230" type="line" smooth="yes"/>
      <point x="1098" y="61"/>
      <point x="1151" y="-19"/>
    </contour>
  </outline>
</glyph>
<glyph name="O.cur" format="2">
  <advance width="1440"/>
  <anchor x="718" y="0" name="bottom"/>
  <anchor x="718" y="744" name="center"/>
  <anchor x="918" y="11" name="ogonek"/>
  <anchor x="718" y="1424" name="top"/>
  <anchor x="954" y="1488" name="topright"/>
  <outline>
    <contour>
      <point x="711" y="-19" type="curve" smooth="yes"/>
      <point x="1058" y="-19"/>
      <point x="1285" y="293"/>
      <point x="1285" y="769" type="curve" smooth="yes"/>
      <point x="1285" y="1220"/>
      <point x="1099" y="1515"/>
      <point x="814" y="1515" type="curve" smooth="yes"/>
      <point x="638" y="1515"/>
      <point x="499" y="1394"/>
      <point x="439" y="1190" type="curve" smooth="yes"/>
      <point x="435" y="1178"/>
      <point x="435" y="1165"/>
      <point x="446" y="1161" type="curve" smooth="yes"/>
      <point x="455" y="1159"/>
      <point x="465" y="1160"/>
      <point x="470" y="1175" type="curve" smooth="yes"/>
      <point x="530" y="1365"/>
      <point x="654" y="1478"/>
      <point x="805" y="1478" type="curve" smooth="yes"/>
      <point x="1070" y="1478"/>
      <point x="1244" y="1198"/>
      <point x="1244" y="769" type="curve" smooth="yes"/>
      <point x="1244" y="315"/>
      <point x="1033" y="19"/>
      <point x="711" y="19" type="curve" smooth="yes"/>
      <point x="400" y="19"/>
      <point x="196" y="309"/>
      <point x="196" y="753" type="curve" smooth="yes"/>
      <point x="196" y="1020"/>
      <point x="283" y="1236"/>
      <point x="441" y="1374" type="curve" smooth="yes"/>
      <point x="453" y="1384"/>
      <point x="458" y="1395"/>
      <point x="451" y="1404" type="curve" smooth="yes"/>
      <point x="443" y="1416"/>
      <point x="433" y="1414"/>
      <point x="416" y="1400" type="curve" smooth="yes"/>
      <point x="253" y="1264"/>
      <point x="155" y="1021"/>
      <point x="155" y="746" type="curve" smooth="yes"/>
      <point x="155" y="284"/>
      <point x="375" y="-19"/>
    </contour>
  </outline>
</glyph>
<glyph name="O.dec" format="2">
  <advance width="1531"/>
  <anchor x="718" y="0" name="bottom"/>
  <anchor x="718" y="744" name="center"/>
  <anchor x="918" y="11" name="ogonek"/>
  <anchor x="718" y="1424" name="top"/>
  <anchor x="954" y="1488" name="topright"/>
  <outline>
    <contour>
      <point x="736" y="1515" type="curve" smooth="yes"/>
      <point x="511" y="1515"/>
      <point x="404" y="1329"/>
      <point x="404" y="1145" type="curve" smooth="yes"/>
      <point x="404" y="921"/>
      <point x="514" y="789"/>
      <point x="753" y="789" type="curve" smooth="yes"/>
      <point x="975" y="789"/>
      <point x="1224" y="886"/>
      <point x="1511" y="1056" type="curve" smooth="yes"/>
      <point x="1523" y="1064"/>
      <point x="1525" y="1071"/>
      <point x="1518" y="1083" type="curve" smooth="yes"/>
      <point x="1511" y="1094"/>
      <point x="1501" y="1095"/>
      <point x="1491" y="1088" type="curve" smooth="yes"/>
      <point x="1235" y="930"/>
      <point x="973" y="826"/>
      <point x="753" y="826" type="curve" smooth="yes"/>
      <point x="535" y="826"/>
      <point x="445" y="954"/>
      <point x="445" y="1145" type="curve" smooth="yes"/>
      <point x="445" y="1313"/>
      <point x="515" y="1478"/>
      <point x="736" y="1478" type="curve" smooth="yes"/>
      <point x="1036" y="1478"/>
      <point x="1244" y="1211"/>
      <point x="1244" y="761" type="curve" smooth="yes"/>
      <point x="1244" y="320"/>
      <point x="1024" y="19"/>
      <point x="703" y="19" type="curve" smooth="yes"/>
      <point x="389" y="19"/>
      <point x="196" y="310"/>
      <point x="196" y="741" type="curve" smooth="yes"/>
      <point x="196" y="1233"/>
      <point x="386" y="1388"/>
      <point x="626" y="1476" type="curve" smooth="yes"/>
      <point x="643" y="1483"/>
      <point x="648" y="1489"/>
      <point x="644" y="1501" type="curve" smooth="yes"/>
      <point x="640" y="1511"/>
      <point x="630" y="1514"/>
      <point x="616" y="1509" type="curve" smooth="yes"/>
      <point x="366" y="1421"/>
      <point x="155" y="1243"/>
      <point x="155" y="741" type="curve" smooth="yes"/>
      <point x="155" y="291"/>
      <point x="366" y="-19"/>
      <point x="703" y="-19" type="curve" smooth="yes"/>
      <point x="1050" y="-19"/>
      <point x="1285" y="298"/>
      <point x="1285" y="761" type="curve" smooth="yes"/>
      <point x="1285" y="1224"/>
      <point x="1069" y="1515"/>
    </contour>
  </outline>
</glyph>
<glyph name="OE.cur.ini" format="2">
  <advance width="1983"/>
  <anchor x="1983" y="0" name="cnct"/>
  <anchor x="1150" y="1424" name="top"/>
  <outline>
    <contour>
      <point x="670" y="-19" type="curve" smooth="yes"/>
      <point x="995" y="-19"/>
      <point x="1208" y="293"/>
      <point x="1208" y="769" type="curve" smooth="yes"/>
      <point x="1208" y="1220"/>
      <point x="1036" y="1515"/>
      <point x="773" y="1515" type="curve" smooth="yes"/>
      <point x="614" y="1515"/>
      <point x="495" y="1393"/>
      <point x="435" y="1190" type="curve" smooth="yes"/>
      <point x="431" y="1178"/>
      <point x="431" y="1165"/>
      <point x="443" y="1161" type="curve" smooth="yes"/>
      <point x="451" y="1159"/>
      <point x="461" y="1160"/>
      <point x="466" y="1175" type="curve" smooth="yes"/>
      <point x="525" y="1363"/>
      <point x="629" y="1478"/>
      <point x="764" y="1478" type="curve" smooth="yes"/>
      <point x="1008" y="1478"/>
      <point x="1175" y="1198"/>
      <point x="1166" y="769" type="curve" smooth="yes"/>
      <point x="1158" y="315"/>
      <point x="970" y="19"/>
      <point x="670" y="19" type="curve" smooth="yes"/>
      <point x="384" y="19"/>
      <point x="196" y="309"/>
      <point x="196" y="753" type="curve" smooth="yes"/>
      <point x="196" y="1020"/>
      <point x="280" y="1238"/>
      <point x="438" y="1374" type="curve" smooth="yes"/>
      <point x="449" y="1384"/>
      <point x="454" y="1395"/>
      <point x="448" y="1404" type="curve" smooth="yes"/>
      <point x="439" y="1416"/>
      <point x="429" y="1414"/>
      <point x="413" y="1400" type="curve" smooth="yes"/>
      <point x="250" y="1265"/>
      <point x="155" y="1021"/>
      <point x="155" y="746" type="curve" smooth="yes"/>
      <point x="155" y="284"/>
      <point x="359" y="-19"/>
    </contour>
    <contour>
      <point x="1508" y="-17" type="curve" smooth="yes"/>
      <point x="1528" y="-17"/>
      <point x="1529" y="16"/>
      <point x="1509" y="16" type="curve" smooth="yes"/>
      <point x="1300" y="16"/>
      <point x="1169" y="149"/>
      <point x="1169" y="375" type="curve" smooth="yes"/>
      <point x="1169" y="603"/>
      <point x="1329" y="768"/>
      <point x="1543" y="768" type="curve" smooth="yes"/>
      <point x="1724" y="768" type="line" smooth="yes"/>
      <point x="1730" y="768"/>
      <point x="1735" y="773"/>
      <point x="1735" y="785" type="curve" smooth="yes"/>
      <point x="1735" y="798"/>
      <point x="1730" y="803"/>
      <point x="1724" y="803" type="curve" smooth="yes"/>
      <point x="1543" y="803" type="line" smooth="yes"/>
      <point x="1365" y="803"/>
      <point x="1249" y="930"/>
      <point x="1249" y="1124" type="curve" smooth="yes"/>
      <point x="1249" y="1331"/>
      <point x="1379" y="1478"/>
      <point x="1566" y="1478" type="curve" smooth="yes"/>
      <point x="1680" y="1478"/>
      <point x="1806" y="1418"/>
      <point x="1884" y="1329" type="curve" smooth="yes"/>
      <point x="1896" y="1314"/>
      <point x="1906" y="1311"/>
      <point x="1916" y="1321" type="curve" smooth="yes"/>
      <point x="1925" y="1330"/>
      <point x="1924" y="1339"/>
      <point x="1916" y="1348" type="curve" smooth="yes"/>
      <point x="1834" y="1448"/>
      <point x="1699" y="1515"/>
      <point x="1571" y="1515" type="curve" smooth="yes"/>
      <point x="1356" y="1515"/>
      <point x="1208" y="1351"/>
      <point x="1208" y="1121" type="curve" smooth="yes"/>
      <point x="1208" y="955"/>
      <point x="1294" y="823"/>
      <point x="1428" y="786" type="curve"/>
      <point x="1254" y="741"/>
      <point x="1128" y="569"/>
      <point x="1128" y="375" type="curve" smooth="yes"/>
      <point x="1128" y="129"/>
      <point x="1273" y="-17"/>
    </contour>
  </outline>
</glyph>
<glyph name="P.dec" format="2">
  <advance width="1220"/>
  <guideline x="208" y="-88" angle="0"/>
  <outline>
    <contour>
      <point x="530" y="608" type="curve" smooth="yes"/>
      <point x="903" y="633"/>
      <point x="1130" y="840"/>
      <point x="1130" y="1156" type="curve" smooth="yes"/>
      <point x="1130" y="1381"/>
      <point x="1010" y="1515"/>
      <point x="831" y="1515" type="curve" smooth="yes"/>
      <point x="644" y="1515"/>
      <point x="484" y="1373"/>
      <point x="418" y="1094" type="curve"/>
      <point x="418" y="1500" type="line" smooth="yes"/>
      <point x="418" y="1511"/>
      <point x="411" y="1515"/>
      <point x="399" y="1515" type="curve" smooth="yes"/>
      <point x="388" y="1515"/>
      <point x="380" y="1511"/>
      <point x="379" y="1503" type="curve" smooth="yes"/>
      <point x="334" y="1274"/>
      <point x="249" y="1118"/>
      <point x="69" y="1018" type="curve" smooth="yes"/>
      <point x="59" y="1013"/>
      <point x="55" y="1004"/>
      <point x="60" y="994" type="curve" smooth="yes"/>
      <point x="65" y="981"/>
      <point x="74" y="980"/>
      <point x="83" y="985" type="curve" smooth="yes"/>
      <point x="244" y="1081"/>
      <point x="326" y="1193"/>
      <point x="380" y="1375" type="curve"/>
      <point x="380" y="1" type="line" smooth="yes"/>
      <point x="380" y="-10"/>
      <point x="385" y="-14"/>
      <point x="399" y="-14" type="curve" smooth="yes"/>
      <point x="413" y="-14"/>
      <point x="418" y="-10"/>
      <point x="418" y="1" type="curve" smooth="yes"/>
      <point x="418" y="790" type="line" smooth="yes"/>
      <point x="418" y="1233"/>
      <point x="605" y="1478"/>
      <point x="823" y="1478" type="curve" smooth="yes"/>
      <point x="988" y="1478"/>
      <point x="1089" y="1366"/>
      <point x="1089" y="1155" type="curve" smooth="yes"/>
      <point x="1089" y="861"/>
      <point x="876" y="668"/>
      <point x="529" y="644" type="curve" smooth="yes"/>
      <point x="516" y="643"/>
      <point x="509" y="640"/>
      <point x="509" y="625" type="curve" smooth="yes"/>
      <point x="509" y="615"/>
      <point x="514" y="606"/>
    </contour>
  </outline>
</glyph>
<glyph name="Q.cur_locl.ini" format="2">
  <advance width="1459"/>
  <anchor x="1460" y="0" name="cnct"/>
  <anchor x="718" y="0" name="bottom"/>
  <anchor x="718" y="744" name="center"/>
  <anchor x="916" y="11" name="ogonek"/>
  <anchor x="718" y="1424" name="top"/>
  <anchor x="1004" y="1424" name="topright"/>
  <outline>
    <contour>
      <point x="1399" y="-17" type="curve" smooth="yes"/>
      <point x="1426" y="-17"/>
      <point x="1424" y="18"/>
      <point x="1399" y="18" type="curve" smooth="yes"/>
      <point x="1148" y="18"/>
      <point x="939" y="411"/>
      <point x="650" y="411" type="curve" smooth="yes"/>
      <point x="625" y="411"/>
      <point x="623" y="375"/>
      <point x="648" y="375" type="curve" smooth="yes"/>
      <point x="923" y="375"/>
      <point x="1123" y="-17"/>
    </contour>
    <component base="O"/>
  </outline>
</glyph>
<glyph name="Q.dec" format="2">
  <advance width="1609"/>
  <outline>
    <contour>
      <point x="690" y="-17" type="curve" smooth="yes"/>
      <point x="824" y="-17"/>
      <point x="943" y="30"/>
      <point x="1038" y="114" type="curve"/>
      <point x="1093" y="41"/>
      <point x="1151" y="-17"/>
      <point x="1254" y="-17" type="curve" smooth="yes"/>
      <point x="1373" y="-17"/>
      <point x="1465" y="58"/>
      <point x="1544" y="205" type="curve" smooth="yes"/>
      <point x="1549" y="214"/>
      <point x="1545" y="221"/>
      <point x="1535" y="228" type="curve" smooth="yes"/>
      <point x="1525" y="233"/>
      <point x="1516" y="231"/>
      <point x="1511" y="223" type="curve" smooth="yes"/>
      <point x="1431" y="80"/>
      <point x="1360" y="20"/>
      <point x="1254" y="20" type="curve" smooth="yes"/>
      <point x="1166" y="20"/>
      <point x="1115" y="73"/>
      <point x="1066" y="140" type="curve"/>
      <point x="1203" y="276"/>
      <point x="1285" y="490"/>
      <point x="1285" y="744" type="curve" smooth="yes"/>
      <point x="1285" y="1113"/>
      <point x="1096" y="1380"/>
      <point x="836" y="1380" type="curve" smooth="yes"/>
      <point x="624" y="1380"/>
      <point x="491" y="1174"/>
      <point x="491" y="855" type="curve" smooth="yes"/>
      <point x="491" y="694"/>
      <point x="514" y="540"/>
      <point x="548" y="416" type="curve"/>
      <point x="531" y="410"/>
      <point x="519" y="395"/>
      <point x="519" y="375" type="curve" smooth="yes"/>
      <point x="519" y="354"/>
      <point x="535" y="339"/>
      <point x="556" y="339" type="curve" smooth="yes"/>
      <point x="584" y="339"/>
      <point x="600" y="360"/>
      <point x="596" y="388" type="curve"/>
      <point x="843" y="408"/>
      <point x="930" y="268"/>
      <point x="1015" y="146" type="curve"/>
      <point x="926" y="66"/>
      <point x="815" y="20"/>
      <point x="690" y="20" type="curve" smooth="yes"/>
      <point x="384" y="20"/>
      <point x="196" y="278"/>
      <point x="196" y="699" type="curve" smooth="yes"/>
      <point x="196" y="1079"/>
      <point x="358" y="1371"/>
      <point x="621" y="1471" type="curve" smooth="yes"/>
      <point x="639" y="1478"/>
      <point x="645" y="1486"/>
      <point x="641" y="1498" type="curve" smooth="yes"/>
      <point x="638" y="1510"/>
      <point x="628" y="1514"/>
      <point x="610" y="1508" type="curve" smooth="yes"/>
      <point x="328" y="1408"/>
      <point x="155" y="1101"/>
      <point x="155" y="699" type="curve" smooth="yes"/>
      <point x="155" y="254"/>
      <point x="358" y="-17"/>
    </contour>
    <contour>
      <point x="841" y="1343" type="curve" smooth="yes"/>
      <point x="1073" y="1343"/>
      <point x="1244" y="1091"/>
      <point x="1244" y="744" type="curve" smooth="yes"/>
      <point x="1244" y="504"/>
      <point x="1168" y="301"/>
      <point x="1043" y="173" type="curve"/>
      <point x="958" y="295"/>
      <point x="863" y="444"/>
      <point x="588" y="423" type="curve"/>
      <point x="551" y="556"/>
      <point x="533" y="705"/>
      <point x="533" y="858" type="curve" smooth="yes"/>
      <point x="533" y="1151"/>
      <point x="649" y="1343"/>
    </contour>
  </outline>
</glyph>
<glyph name="Q.dec.ini" format="2">
  <advance width="1459"/>
  <anchor x="1459" y="0" name="cnct"/>
  <outline>
    <contour>
      <point x="690" y="-17" type="curve" smooth="yes"/>
      <point x="848" y="-17"/>
      <point x="986" y="50"/>
      <point x="1090" y="165" type="curve"/>
      <point x="1170" y="71"/>
      <point x="1245" y="-17"/>
      <point x="1399" y="-17" type="curve" smooth="yes"/>
      <point x="1424" y="-17"/>
      <point x="1424" y="18"/>
      <point x="1399" y="18" type="curve" smooth="yes"/>
      <point x="1261" y="18"/>
      <point x="1193" y="103"/>
      <point x="1115" y="195" type="curve"/>
      <point x="1221" y="330"/>
      <point x="1285" y="521"/>
      <point x="1285" y="744" type="curve" smooth="yes"/>
      <point x="1285" y="1113"/>
      <point x="1096" y="1380"/>
      <point x="836" y="1380" type="curve" smooth="yes"/>
      <point x="624" y="1380"/>
      <point x="491" y="1174"/>
      <point x="491" y="855" type="curve" smooth="yes"/>
      <point x="491" y="694"/>
      <point x="514" y="540"/>
      <point x="548" y="416" type="curve"/>
      <point x="531" y="410"/>
      <point x="519" y="395"/>
      <point x="519" y="375" type="curve" smooth="yes"/>
      <point x="519" y="354"/>
      <point x="535" y="339"/>
      <point x="556" y="339" type="curve" smooth="yes"/>
      <point x="584" y="339"/>
      <point x="600" y="360"/>
      <point x="596" y="388" type="curve"/>
      <point x="856" y="410"/>
      <point x="969" y="305"/>
      <point x="1064" y="195" type="curve"/>
      <point x="968" y="85"/>
      <point x="838" y="20"/>
      <point x="690" y="20" type="curve" smooth="yes"/>
      <point x="384" y="20"/>
      <point x="196" y="278"/>
      <point x="196" y="699" type="curve" smooth="yes"/>
      <point x="196" y="1079"/>
      <point x="358" y="1371"/>
      <point x="621" y="1471" type="curve" smooth="yes"/>
      <point x="639" y="1478"/>
      <point x="645" y="1486"/>
      <point x="641" y="1498" type="curve" smooth="yes"/>
      <point x="638" y="1510"/>
      <point x="628" y="1514"/>
      <point x="610" y="1508" type="curve" smooth="yes"/>
      <point x="328" y="1408"/>
      <point x="155" y="1101"/>
      <point x="155" y="699" type="curve" smooth="yes"/>
      <point x="155" y="254"/>
      <point x="358" y="-17"/>
    </contour>
    <contour>
      <point x="841" y="1343" type="curve" smooth="yes"/>
      <point x="1073" y="1343"/>
      <point x="1244" y="1091"/>
      <point x="1244" y="744" type="curve" smooth="yes"/>
      <point x="1244" y="535"/>
      <point x="1186" y="354"/>
      <point x="1089" y="225" type="curve"/>
      <point x="991" y="336"/>
      <point x="870" y="446"/>
      <point x="588" y="423" type="curve"/>
      <point x="551" y="556"/>
      <point x="533" y="705"/>
      <point x="533" y="858" type="curve" smooth="yes"/>
      <point x="533" y="1151"/>
      <point x="649" y="1343"/>
    </contour>
  </outline>
</glyph>
<glyph name="Q.dec_pt" format="2">
  <advance width="1346"/>
  <outline>
    <contour>
      <point x="948" y="766" type="curve" smooth="yes"/>
      <point x="948" y="1245" type="line" smooth="yes"/>
      <point x="948" y="1256"/>
      <point x="943" y="1260"/>
      <point x="929" y="1260" type="curve" smooth="yes"/>
      <point x="915" y="1260"/>
      <point x="910" y="1256"/>
      <point x="910" y="1244" type="curve"/>
      <point x="846" y="923"/>
      <point x="689" y="728"/>
      <point x="495" y="728" type="curve" smooth="yes"/>
      <point x="344" y="728"/>
      <point x="251" y="858"/>
      <point x="251" y="1070" type="curve" smooth="yes"/>
      <point x="251" y="1283"/>
      <point x="385" y="1478"/>
      <point x="539" y="1478" type="curve" smooth="yes"/>
      <point x="614" y="1478"/>
      <point x="660" y="1428"/>
      <point x="660" y="1345" type="curve" smooth="yes"/>
      <point x="660" y="1201"/>
      <point x="534" y="1098"/>
      <point x="345" y="1098" type="curve" smooth="yes"/>
      <point x="253" y="1098"/>
      <point x="148" y="1130"/>
      <point x="95" y="1156" type="curve" smooth="yes"/>
      <point x="88" y="1160"/>
      <point x="80" y="1158"/>
      <point x="75" y="1146" type="curve" smooth="yes"/>
      <point x="69" y="1133"/>
      <point x="71" y="1129"/>
      <point x="83" y="1124" type="curve" smooth="yes"/>
      <point x="135" y="1099"/>
      <point x="231" y="1065"/>
      <point x="345" y="1065" type="curve" smooth="yes"/>
      <point x="551" y="1065"/>
      <point x="700" y="1183"/>
      <point x="700" y="1345" type="curve" smooth="yes"/>
      <point x="700" y="1451"/>
      <point x="639" y="1515"/>
      <point x="539" y="1515" type="curve" smooth="yes"/>
      <point x="361" y="1515"/>
      <point x="211" y="1305"/>
      <point x="211" y="1070" type="curve" smooth="yes"/>
      <point x="211" y="834"/>
      <point x="318" y="690"/>
      <point x="493" y="690" type="curve" smooth="yes"/>
      <point x="684" y="690"/>
      <point x="837" y="848"/>
      <point x="910" y="1116" type="curve"/>
      <point x="910" y="766" type="line" smooth="yes"/>
      <point x="910" y="300"/>
      <point x="766" y="15"/>
      <point x="529" y="15" type="curve" smooth="yes"/>
      <point x="463" y="15"/>
      <point x="415" y="56"/>
      <point x="415" y="111" type="curve" smooth="yes"/>
      <point x="415" y="171"/>
      <point x="453" y="199"/>
      <point x="508" y="199" type="curve" smooth="yes"/>
      <point x="644" y="199"/>
      <point x="759" y="-17"/>
      <point x="964" y="-17" type="curve" smooth="yes"/>
      <point x="1085" y="-17"/>
      <point x="1180" y="54"/>
      <point x="1259" y="196" type="curve" smooth="yes"/>
      <point x="1264" y="205"/>
      <point x="1260" y="211"/>
      <point x="1250" y="218" type="curve" smooth="yes"/>
      <point x="1240" y="223"/>
      <point x="1235" y="221"/>
      <point x="1229" y="211" type="curve" smooth="yes"/>
      <point x="1153" y="79"/>
      <point x="1075" y="20"/>
      <point x="964" y="20" type="curve" smooth="yes"/>
      <point x="770" y="20"/>
      <point x="668" y="234"/>
      <point x="508" y="234" type="curve" smooth="yes"/>
      <point x="429" y="234"/>
      <point x="374" y="188"/>
      <point x="374" y="111" type="curve" smooth="yes"/>
      <point x="374" y="35"/>
      <point x="436" y="-20"/>
      <point x="529" y="-20" type="curve" smooth="yes"/>
      <point x="789" y="-20"/>
      <point x="948" y="278"/>
    </contour>
  </outline>
</glyph>
<glyph name="Q_locl.ini" format="2">
  <advance width="1356"/>
  <anchor x="1356" y="0" name="cnct"/>
  <outline>
    <contour>
      <point x="608" y="-17" type="curve" smooth="yes"/>
      <point x="846" y="-17"/>
      <point x="1031" y="218"/>
      <point x="1115" y="613" type="curve"/>
      <point x="1115" y="-1000" type="line" smooth="yes"/>
      <point x="1115" y="-1011"/>
      <point x="1120" y="-1015"/>
      <point x="1134" y="-1015" type="curve" smooth="yes"/>
      <point x="1148" y="-1015"/>
      <point x="1153" y="-1011"/>
      <point x="1153" y="-1000" type="curve" smooth="yes"/>
      <point x="1153" y="823" type="line" smooth="yes"/>
      <point x="1153" y="834"/>
      <point x="1146" y="838"/>
      <point x="1134" y="838" type="curve" smooth="yes"/>
      <point x="1120" y="838"/>
      <point x="1115" y="834"/>
      <point x="1115" y="823" type="curve"/>
      <point x="1056" y="324"/>
      <point x="865" y="20"/>
      <point x="610" y="20" type="curve" smooth="yes"/>
      <point x="333" y="20"/>
      <point x="176" y="285"/>
      <point x="176" y="714" type="curve" smooth="yes"/>
      <point x="176" y="1164"/>
      <point x="405" y="1478"/>
      <point x="711" y="1478" type="curve" smooth="yes"/>
      <point x="905" y="1478"/>
      <point x="1045" y="1365"/>
      <point x="1125" y="1144" type="curve" smooth="yes"/>
      <point x="1130" y="1131"/>
      <point x="1139" y="1129"/>
      <point x="1151" y="1135" type="curve" smooth="yes"/>
      <point x="1160" y="1140"/>
      <point x="1163" y="1148"/>
      <point x="1159" y="1159" type="curve" smooth="yes"/>
      <point x="1076" y="1395"/>
      <point x="925" y="1515"/>
      <point x="711" y="1515" type="curve" smooth="yes"/>
      <point x="383" y="1515"/>
      <point x="135" y="1185"/>
      <point x="135" y="714" type="curve" smooth="yes"/>
      <point x="135" y="263"/>
      <point x="311" y="-17"/>
    </contour>
  </outline>
</glyph>
<glyph name="R.cur" format="2">
  <advance width="1445"/>
  <guideline y="-13"/>
  <anchor x="780" y="0" name="bottom"/>
  <anchor x="741" y="1424" name="top"/>
  <outline>
    <contour>
      <point x="1239" y="-19" type="curve" smooth="yes"/>
      <point x="1306" y="-19"/>
      <point x="1369" y="25"/>
      <point x="1415" y="98" type="curve" smooth="yes"/>
      <point x="1421" y="106"/>
      <point x="1423" y="114"/>
      <point x="1414" y="121" type="curve" smooth="yes"/>
      <point x="1404" y="130"/>
      <point x="1395" y="129"/>
      <point x="1389" y="120" type="curve" smooth="yes"/>
      <point x="1346" y="56"/>
      <point x="1298" y="18"/>
      <point x="1245" y="18" type="curve" smooth="yes"/>
      <point x="1171" y="18"/>
      <point x="1126" y="66"/>
      <point x="924" y="394" type="curve" smooth="yes"/>
      <point x="866" y="489"/>
      <point x="808" y="584"/>
      <point x="750" y="679" type="curve"/>
      <point x="1005" y="726"/>
      <point x="1173" y="924"/>
      <point x="1173" y="1166" type="curve" smooth="yes"/>
      <point x="1173" y="1390"/>
      <point x="998" y="1515"/>
      <point x="688" y="1515" type="curve" smooth="yes"/>
      <point x="446" y="1515"/>
      <point x="243" y="1416"/>
      <point x="123" y="1260" type="curve" smooth="yes"/>
      <point x="114" y="1249"/>
      <point x="118" y="1238"/>
      <point x="133" y="1230" type="curve" smooth="yes"/>
      <point x="141" y="1226"/>
      <point x="148" y="1230"/>
      <point x="153" y="1236" type="curve" smooth="yes"/>
      <point x="274" y="1389"/>
      <point x="465" y="1478"/>
      <point x="683" y="1478" type="curve" smooth="yes"/>
      <point x="969" y="1478"/>
      <point x="1131" y="1366"/>
      <point x="1131" y="1166" type="curve" smooth="yes"/>
      <point x="1131" y="936"/>
      <point x="974" y="751"/>
      <point x="733" y="710" type="curve"/>
      <point x="706" y="743"/>
      <point x="679" y="756"/>
      <point x="640" y="756" type="curve" smooth="yes"/>
      <point x="615" y="756"/>
      <point x="594" y="745"/>
      <point x="594" y="724" type="curve" smooth="yes"/>
      <point x="594" y="686"/>
      <point x="643" y="670"/>
      <point x="711" y="670" type="curve"/>
      <point x="773" y="569"/>
      <point x="834" y="468"/>
      <point x="890" y="376" type="curve" smooth="yes"/>
      <point x="1085" y="63"/>
      <point x="1143" y="-19"/>
    </contour>
    <contour>
      <point x="290" y="-19" type="curve" smooth="yes"/>
      <point x="413" y="-19"/>
      <point x="485" y="78"/>
      <point x="485" y="241" type="curve" smooth="yes"/>
      <point x="485" y="1311" type="line" smooth="yes"/>
      <point x="485" y="1323"/>
      <point x="479" y="1326"/>
      <point x="466" y="1326" type="curve" smooth="yes"/>
      <point x="453" y="1326"/>
      <point x="448" y="1323"/>
      <point x="448" y="1311" type="curve" smooth="yes"/>
      <point x="448" y="241" type="line" smooth="yes"/>
      <point x="448" y="98"/>
      <point x="393" y="18"/>
      <point x="290" y="18" type="curve" smooth="yes"/>
      <point x="206" y="18"/>
      <point x="139" y="61"/>
      <point x="95" y="143" type="curve" smooth="yes"/>
      <point x="91" y="150"/>
      <point x="83" y="153"/>
      <point x="74" y="146" type="curve" smooth="yes"/>
      <point x="64" y="141"/>
      <point x="59" y="133"/>
      <point x="64" y="124" type="curve" smooth="yes"/>
      <point x="119" y="21"/>
      <point x="199" y="-19"/>
    </contour>
  </outline>
</glyph>
<glyph name="S.cur" format="2">
  <advance width="1383"/>
  <anchor x="915" y="0" name="bottom"/>
  <anchor x="701" y="1488" name="top"/>
  <outline>
    <contour>
      <point x="899" y="-19" type="curve" smooth="yes"/>
      <point x="1126" y="-19"/>
      <point x="1276" y="151"/>
      <point x="1276" y="410" type="curve" smooth="yes"/>
      <point x="1276" y="750"/>
      <point x="986" y="872"/>
      <point x="765" y="1145" type="curve"/>
      <point x="815" y="1305"/>
      <point x="825" y="1384"/>
      <point x="825" y="1446" type="curve" smooth="yes"/>
      <point x="825" y="1540"/>
      <point x="779" y="1594"/>
      <point x="708" y="1594" type="curve" smooth="yes"/>
      <point x="638" y="1594"/>
      <point x="586" y="1526"/>
      <point x="586" y="1441" type="curve" smooth="yes"/>
      <point x="586" y="1320"/>
      <point x="673" y="1202"/>
      <point x="723" y="1138" type="curve"/>
      <point x="427" y="249"/>
      <point x="294" y="30"/>
      <point x="76" y="30" type="curve" smooth="yes"/>
      <point x="63" y="30"/>
      <point x="53" y="24"/>
      <point x="53" y="11" type="curve" smooth="yes"/>
      <point x="53" y="-1"/>
      <point x="60" y="-7"/>
      <point x="76" y="-7" type="curve" smooth="yes"/>
      <point x="313" y="-7"/>
      <point x="457" y="203"/>
      <point x="751" y="1102" type="curve"/>
      <point x="964" y="848"/>
      <point x="1235" y="725"/>
      <point x="1235" y="408" type="curve" smooth="yes"/>
      <point x="1235" y="173"/>
      <point x="1104" y="19"/>
      <point x="903" y="19" type="curve" smooth="yes"/>
      <point x="785" y="19"/>
      <point x="683" y="56"/>
      <point x="608" y="128" type="curve"/>
      <point x="598" y="136"/>
      <point x="588" y="136"/>
      <point x="580" y="128" type="curve" smooth="yes"/>
      <point x="573" y="119"/>
      <point x="574" y="109"/>
      <point x="583" y="101" type="curve" smooth="yes"/>
      <point x="663" y="23"/>
      <point x="771" y="-19"/>
    </contour>
    <contour>
      <point x="737" y="1181" type="curve"/>
      <point x="694" y="1239"/>
      <point x="628" y="1332"/>
      <point x="628" y="1441" type="curve" smooth="yes"/>
      <point x="628" y="1514"/>
      <point x="658" y="1556"/>
      <point x="708" y="1556" type="curve" smooth="yes"/>
      <point x="754" y="1556"/>
      <point x="784" y="1516"/>
      <point x="784" y="1443" type="curve" smooth="yes"/>
      <point x="784" y="1374"/>
      <point x="777" y="1305"/>
    </contour>
  </outline>
</glyph>
<glyph name="T.cur" format="2">
  <advance width="1118"/>
  <anchor x="717" y="0" name="bottom"/>
  <anchor x="420" y="744" name="center"/>
  <anchor x="599" y="1424" name="top"/>
  <outline>
    <contour>
      <point x="716" y="-19" type="curve" smooth="yes"/>
      <point x="838" y="-19"/>
      <point x="950" y="53"/>
      <point x="1020" y="174" type="curve" smooth="yes"/>
      <point x="1024" y="181"/>
      <point x="1023" y="190"/>
      <point x="1011" y="196" type="curve" smooth="yes"/>
      <point x="1001" y="203"/>
      <point x="994" y="200"/>
      <point x="989" y="191" type="curve" smooth="yes"/>
      <point x="925" y="83"/>
      <point x="825" y="19"/>
      <point x="720" y="19" type="curve" smooth="yes"/>
      <point x="515" y="19"/>
      <point x="390" y="223"/>
      <point x="390" y="548" type="curve" smooth="yes"/>
      <point x="390" y="796"/>
      <point x="467" y="1076"/>
      <point x="644" y="1453" type="curve"/>
      <point x="1022" y="1453" type="line" smooth="yes"/>
      <point x="1029" y="1453"/>
      <point x="1033" y="1463"/>
      <point x="1033" y="1471" type="curve" smooth="yes"/>
      <point x="1033" y="1481"/>
      <point x="1029" y="1488"/>
      <point x="1022" y="1488" type="curve" smooth="yes"/>
      <point x="355" y="1488" type="line" smooth="yes"/>
      <point x="164" y="1488"/>
      <point x="59" y="1408"/>
      <point x="26" y="1256" type="curve" smooth="yes"/>
      <point x="24" y="1246"/>
      <point x="24" y="1239"/>
      <point x="38" y="1235" type="curve" smooth="yes"/>
      <point x="49" y="1231"/>
      <point x="58" y="1236"/>
      <point x="60" y="1245" type="curve" smooth="yes"/>
      <point x="93" y="1385"/>
      <point x="180" y="1453"/>
      <point x="355" y="1453" type="curve" smooth="yes"/>
      <point x="601" y="1453" type="line"/>
      <point x="432" y="1096"/>
      <point x="349" y="801"/>
      <point x="349" y="548" type="curve" smooth="yes"/>
      <point x="349" y="203"/>
      <point x="494" y="-19"/>
    </contour>
  </outline>
</glyph>
<glyph name="T.cur.ini" format="2">
  <advance width="938"/>
  <anchor x="717" y="0" name="bottom"/>
  <anchor x="420" y="744" name="center"/>
  <anchor x="938" y="0" name="cnct"/>
  <anchor x="609" y="1424" name="top"/>
  <outline>
    <contour>
      <point x="731" y="-17" type="curve" smooth="yes"/>
      <point x="756" y="-17"/>
      <point x="758" y="16"/>
      <point x="733" y="16" type="curve" smooth="yes"/>
      <point x="485" y="16"/>
      <point x="360" y="181"/>
      <point x="360" y="508" type="curve" smooth="yes"/>
      <point x="360" y="760"/>
      <point x="456" y="1078"/>
      <point x="644" y="1453" type="curve"/>
      <point x="1013" y="1453" type="line" smooth="yes"/>
      <point x="1020" y="1453"/>
      <point x="1024" y="1463"/>
      <point x="1024" y="1471" type="curve" smooth="yes"/>
      <point x="1024" y="1481"/>
      <point x="1020" y="1488"/>
      <point x="1013" y="1488" type="curve" smooth="yes"/>
      <point x="355" y="1488" type="line" smooth="yes"/>
      <point x="164" y="1488"/>
      <point x="59" y="1408"/>
      <point x="26" y="1256" type="curve" smooth="yes"/>
      <point x="24" y="1246"/>
      <point x="24" y="1239"/>
      <point x="38" y="1235" type="curve" smooth="yes"/>
      <point x="49" y="1231"/>
      <point x="58" y="1236"/>
      <point x="60" y="1245" type="curve" smooth="yes"/>
      <point x="93" y="1385"/>
      <point x="180" y="1453"/>
      <point x="355" y="1453" type="curve" smooth="yes"/>
      <point x="601" y="1453" type="line"/>
      <point x="414" y="1086"/>
      <point x="319" y="767"/>
      <point x="319" y="508" type="curve" smooth="yes"/>
      <point x="319" y="159"/>
      <point x="458" y="-17"/>
    </contour>
  </outline>
</glyph>
<glyph name="T.cur_locl" format="2">
  <advance width="1429"/>
  <anchor x="813" y="0" name="bottom"/>
  <anchor x="540" y="658" name="center"/>
  <anchor x="813" y="1424" name="top"/>
  <outline>
    <contour>
      <point x="823" y="-17" type="curve" smooth="yes"/>
      <point x="1020" y="-17"/>
      <point x="1184" y="81"/>
      <point x="1306" y="276" type="curve" smooth="yes"/>
      <point x="1313" y="286"/>
      <point x="1310" y="295"/>
      <point x="1298" y="303" type="curve" smooth="yes"/>
      <point x="1289" y="309"/>
      <point x="1283" y="306"/>
      <point x="1275" y="295" type="curve" smooth="yes"/>
      <point x="1160" y="113"/>
      <point x="1008" y="20"/>
      <point x="823" y="20" type="curve" smooth="yes"/>
      <point x="598" y="20"/>
      <point x="460" y="191"/>
      <point x="460" y="474" type="curve" smooth="yes"/>
      <point x="460" y="534"/>
      <point x="468" y="589"/>
      <point x="481" y="640" type="curve"/>
      <point x="831" y="640" type="line" smooth="yes"/>
      <point x="839" y="640"/>
      <point x="843" y="648"/>
      <point x="843" y="659" type="curve" smooth="yes"/>
      <point x="843" y="670"/>
      <point x="839" y="675"/>
      <point x="831" y="675" type="curve" smooth="yes"/>
      <point x="493" y="675" type="line"/>
      <point x="605" y="1005"/>
      <point x="991" y="1173"/>
      <point x="1295" y="1455" type="curve" smooth="yes"/>
      <point x="1305" y="1464"/>
      <point x="1305" y="1473"/>
      <point x="1295" y="1485" type="curve" smooth="yes"/>
      <point x="1285" y="1496"/>
      <point x="1276" y="1498"/>
      <point x="1268" y="1489" type="curve" smooth="yes"/>
      <point x="1198" y="1426"/>
      <point x="1078" y="1388"/>
      <point x="950" y="1388" type="curve" smooth="yes"/>
      <point x="728" y="1388"/>
      <point x="603" y="1515"/>
      <point x="403" y="1515" type="curve" smooth="yes"/>
      <point x="221" y="1515"/>
      <point x="111" y="1393"/>
      <point x="111" y="1191" type="curve" smooth="yes"/>
      <point x="111" y="1179"/>
      <point x="116" y="1173"/>
      <point x="130" y="1173" type="curve" smooth="yes"/>
      <point x="145" y="1173"/>
      <point x="149" y="1179"/>
      <point x="149" y="1191" type="curve" smooth="yes"/>
      <point x="149" y="1369"/>
      <point x="244" y="1478"/>
      <point x="401" y="1478" type="curve" smooth="yes"/>
      <point x="593" y="1478"/>
      <point x="713" y="1351"/>
      <point x="950" y="1351" type="curve" smooth="yes"/>
      <point x="1033" y="1351"/>
      <point x="1113" y="1369"/>
      <point x="1186" y="1403" type="curve"/>
      <point x="905" y="1176"/>
      <point x="554" y="1000"/>
      <point x="449" y="675" type="curve"/>
      <point x="248" y="675" type="line" smooth="yes"/>
      <point x="240" y="675"/>
      <point x="236" y="670"/>
      <point x="236" y="659" type="curve" smooth="yes"/>
      <point x="236" y="648"/>
      <point x="240" y="640"/>
      <point x="248" y="640" type="curve" smooth="yes"/>
      <point x="439" y="640" type="line"/>
      <point x="426" y="589"/>
      <point x="419" y="534"/>
      <point x="419" y="474" type="curve" smooth="yes"/>
      <point x="419" y="169"/>
      <point x="571" y="-17"/>
    </contour>
  </outline>
</glyph>
<glyph name="U.cur" format="2">
  <advance width="1478"/>
  <anchor x="720" y="0" name="bottom"/>
  <anchor x="1330" y="21" name="ogonek"/>
  <anchor x="739" y="1424" name="top"/>
  <anchor x="1095" y="1509" name="topright"/>
  <outline>
    <contour>
      <point x="703" y="-19" type="curve" smooth="yes"/>
      <point x="881" y="-19"/>
      <point x="1016" y="73"/>
      <point x="1078" y="231" type="curve"/>
      <point x="1078" y="226"/>
      <point x="1078" y="221"/>
      <point x="1078" y="215" type="curve" smooth="yes"/>
      <point x="1081" y="56"/>
      <point x="1136" y="-19"/>
      <point x="1245" y="-19" type="curve" smooth="yes"/>
      <point x="1328" y="-19"/>
      <point x="1403" y="39"/>
      <point x="1444" y="120" type="curve" smooth="yes"/>
      <point x="1449" y="130"/>
      <point x="1445" y="138"/>
      <point x="1435" y="143" type="curve" smooth="yes"/>
      <point x="1424" y="148"/>
      <point x="1418" y="145"/>
      <point x="1413" y="135" type="curve" smooth="yes"/>
      <point x="1376" y="65"/>
      <point x="1318" y="18"/>
      <point x="1250" y="18" type="curve" smooth="yes"/>
      <point x="1155" y="18"/>
      <point x="1115" y="81"/>
      <point x="1115" y="233" type="curve" smooth="yes"/>
      <point x="1115" y="1500" type="line" smooth="yes"/>
      <point x="1115" y="1511"/>
      <point x="1109" y="1515"/>
      <point x="1096" y="1515" type="curve" smooth="yes"/>
      <point x="1083" y="1515"/>
      <point x="1078" y="1511"/>
      <point x="1078" y="1500" type="curve" smooth="yes"/>
      <point x="1078" y="335" type="line"/>
      <point x="1038" y="135"/>
      <point x="898" y="16"/>
      <point x="703" y="16" type="curve" smooth="yes"/>
      <point x="516" y="16"/>
      <point x="418" y="129"/>
      <point x="418" y="361" type="curve" smooth="yes"/>
      <point x="418" y="1308" type="line" smooth="yes"/>
      <point x="418" y="1444"/>
      <point x="365" y="1519"/>
      <point x="254" y="1519" type="curve" smooth="yes"/>
      <point x="170" y="1519"/>
      <point x="91" y="1461"/>
      <point x="20" y="1348" type="curve" smooth="yes"/>
      <point x="15" y="1340"/>
      <point x="13" y="1331"/>
      <point x="25" y="1324" type="curve" smooth="yes"/>
      <point x="38" y="1315"/>
      <point x="45" y="1318"/>
      <point x="50" y="1326" type="curve" smooth="yes"/>
      <point x="121" y="1440"/>
      <point x="185" y="1485"/>
      <point x="254" y="1485" type="curve" smooth="yes"/>
      <point x="341" y="1485"/>
      <point x="380" y="1423"/>
      <point x="380" y="1308" type="curve" smooth="yes"/>
      <point x="380" y="361" type="line" smooth="yes"/>
      <point x="380" y="105"/>
      <point x="493" y="-19"/>
    </contour>
  </outline>
</glyph>
<glyph name="U.cur.ini" format="2">
  <advance width="1409"/>
  <anchor x="730" y="0" name="bottom"/>
  <anchor x="1409" y="0" name="cnct"/>
  <anchor x="1330" y="21" name="ogonek"/>
  <anchor x="729" y="1424" name="top"/>
  <anchor x="1095" y="1509" name="topright"/>
  <outline>
    <contour>
      <point x="703" y="-19" type="curve" smooth="yes"/>
      <point x="904" y="-19"/>
      <point x="1050" y="98"/>
      <point x="1098" y="295" type="curve"/>
      <point x="1078" y="335" type="line"/>
      <point x="1038" y="135"/>
      <point x="898" y="16"/>
      <point x="703" y="16" type="curve" smooth="yes"/>
      <point x="516" y="16"/>
      <point x="418" y="129"/>
      <point x="418" y="361" type="curve" smooth="yes"/>
      <point x="418" y="1308" type="line" smooth="yes"/>
      <point x="418" y="1444"/>
      <point x="365" y="1519"/>
      <point x="254" y="1519" type="curve" smooth="yes"/>
      <point x="170" y="1519"/>
      <point x="91" y="1461"/>
      <point x="20" y="1348" type="curve" smooth="yes"/>
      <point x="15" y="1340"/>
      <point x="13" y="1331"/>
      <point x="25" y="1324" type="curve" smooth="yes"/>
      <point x="38" y="1315"/>
      <point x="45" y="1318"/>
      <point x="50" y="1326" type="curve" smooth="yes"/>
      <point x="121" y="1440"/>
      <point x="185" y="1485"/>
      <point x="254" y="1485" type="curve" smooth="yes"/>
      <point x="341" y="1485"/>
      <point x="380" y="1423"/>
      <point x="380" y="1308" type="curve" smooth="yes"/>
      <point x="380" y="361" type="line" smooth="yes"/>
      <point x="380" y="105"/>
      <point x="493" y="-19"/>
    </contour>
    <contour>
      <point x="1349" y="-17" type="curve" smooth="yes"/>
      <point x="1374" y="-17"/>
      <point x="1374" y="18"/>
      <point x="1349" y="18" type="curve" smooth="yes"/>
      <point x="1179" y="18"/>
      <point x="1115" y="111"/>
      <point x="1115" y="333" type="curve" smooth="yes"/>
      <point x="1115" y="1500" type="line" smooth="yes"/>
      <point x="1115" y="1511"/>
      <point x="1109" y="1515"/>
      <point x="1096" y="1515" type="curve" smooth="yes"/>
      <point x="1083" y="1515"/>
      <point x="1078" y="1511"/>
      <point x="1078" y="1500" type="curve" smooth="yes"/>
      <point x="1078" y="333" type="line" smooth="yes"/>
      <point x="1078" y="88"/>
      <point x="1153" y="-17"/>
    </contour>
  </outline>
</glyph>
<glyph name="W.cur" format="2">
  <advance width="1979"/>
  <anchor x="1010" y="0" name="bottom"/>
  <anchor x="1030" y="1424" name="top"/>
  <outline>
    <contour>
      <point x="683" y="-19" type="curve" smooth="yes"/>
      <point x="894" y="-19"/>
      <point x="1004" y="246"/>
      <point x="1040" y="870" type="curve"/>
      <point x="1044" y="870" type="line"/>
      <point x="1056" y="700"/>
      <point x="1068" y="549"/>
      <point x="1095" y="383" type="curve" smooth="yes"/>
      <point x="1141" y="101"/>
      <point x="1228" y="-19"/>
      <point x="1384" y="-19" type="curve" smooth="yes"/>
      <point x="1586" y="-19"/>
      <point x="1723" y="328"/>
      <point x="1723" y="805" type="curve" smooth="yes"/>
      <point x="1723" y="1049"/>
      <point x="1710" y="1239"/>
      <point x="1681" y="1376" type="curve"/>
      <point x="1710" y="1351"/>
      <point x="1874" y="1305"/>
      <point x="1934" y="1303" type="curve" smooth="yes"/>
      <point x="1943" y="1303"/>
      <point x="1949" y="1309"/>
      <point x="1949" y="1318" type="curve" smooth="yes"/>
      <point x="1949" y="1328"/>
      <point x="1945" y="1333"/>
      <point x="1936" y="1334" type="curve" smooth="yes"/>
      <point x="1824" y="1353"/>
      <point x="1708" y="1386"/>
      <point x="1675" y="1421" type="curve"/>
      <point x="1664" y="1458"/>
      <point x="1629" y="1490"/>
      <point x="1600" y="1490" type="curve" smooth="yes"/>
      <point x="1578" y="1490"/>
      <point x="1561" y="1476"/>
      <point x="1561" y="1453" type="curve" smooth="yes"/>
      <point x="1561" y="1423"/>
      <point x="1596" y="1389"/>
      <point x="1644" y="1378" type="curve"/>
      <point x="1673" y="1211"/>
      <point x="1685" y="1008"/>
      <point x="1685" y="830" type="curve" smooth="yes"/>
      <point x="1685" y="351"/>
      <point x="1566" y="16"/>
      <point x="1386" y="16" type="curve" smooth="yes"/>
      <point x="1251" y="16"/>
      <point x="1176" y="121"/>
      <point x="1131" y="391" type="curve" smooth="yes"/>
      <point x="1093" y="623"/>
      <point x="1093" y="718"/>
      <point x="1064" y="930" type="curve"/>
      <point x="1070" y="950"/>
      <point x="1075" y="978"/>
      <point x="1075" y="1003" type="curve" smooth="yes"/>
      <point x="1075" y="1041"/>
      <point x="1064" y="1078"/>
      <point x="1031" y="1078" type="curve" smooth="yes"/>
      <point x="1006" y="1078"/>
      <point x="998" y="1051"/>
      <point x="998" y="1019" type="curve" smooth="yes"/>
      <point x="998" y="988"/>
      <point x="1006" y="951"/>
      <point x="1016" y="928" type="curve"/>
      <point x="969" y="289"/>
      <point x="871" y="16"/>
      <point x="683" y="16" type="curve" smooth="yes"/>
      <point x="563" y="16"/>
      <point x="486" y="138"/>
      <point x="449" y="390" type="curve" smooth="yes"/>
      <point x="418" y="599"/>
      <point x="405" y="789"/>
      <point x="379" y="1308" type="curve" smooth="yes"/>
      <point x="373" y="1444"/>
      <point x="334" y="1519"/>
      <point x="235" y="1519" type="curve" smooth="yes"/>
      <point x="158" y="1519"/>
      <point x="90" y="1459"/>
      <point x="20" y="1348" type="curve" smooth="yes"/>
      <point x="15" y="1340"/>
      <point x="13" y="1333"/>
      <point x="25" y="1324" type="curve" smooth="yes"/>
      <point x="38" y="1315"/>
      <point x="45" y="1318"/>
      <point x="50" y="1326" type="curve" smooth="yes"/>
      <point x="119" y="1438"/>
      <point x="173" y="1485"/>
      <point x="235" y="1485" type="curve" smooth="yes"/>
      <point x="310" y="1485"/>
      <point x="336" y="1423"/>
      <point x="343" y="1308" type="curve" smooth="yes"/>
      <point x="368" y="821"/>
      <point x="383" y="585"/>
      <point x="413" y="383" type="curve" smooth="yes"/>
      <point x="453" y="111"/>
      <point x="540" y="-19"/>
    </contour>
  </outline>
</glyph>
<glyph name="X.dec" format="2">
  <advance width="1491"/>
  <outline>
    <contour>
      <point x="395" y="-17" type="curve" smooth="yes"/>
      <point x="570" y="-17"/>
      <point x="704" y="186"/>
      <point x="751" y="494" type="curve"/>
      <point x="786" y="155"/>
      <point x="896" y="-17"/>
      <point x="1081" y="-17" type="curve" smooth="yes"/>
      <point x="1198" y="-17"/>
      <point x="1295" y="44"/>
      <point x="1370" y="165" type="curve"/>
      <point x="1378" y="175"/>
      <point x="1374" y="184"/>
      <point x="1360" y="190" type="curve" smooth="yes"/>
      <point x="1351" y="195"/>
      <point x="1344" y="193"/>
      <point x="1339" y="183" type="curve" smooth="yes"/>
      <point x="1276" y="75"/>
      <point x="1190" y="20"/>
      <point x="1085" y="20" type="curve" smooth="yes"/>
      <point x="880" y="20"/>
      <point x="775" y="265"/>
      <point x="775" y="748" type="curve" smooth="yes"/>
      <point x="775" y="1201"/>
      <point x="899" y="1478"/>
      <point x="1103" y="1478" type="curve" smooth="yes"/>
      <point x="1201" y="1478"/>
      <point x="1260" y="1438"/>
      <point x="1333" y="1323" type="curve" smooth="yes"/>
      <point x="1340" y="1310"/>
      <point x="1349" y="1306"/>
      <point x="1360" y="1314" type="curve" smooth="yes"/>
      <point x="1370" y="1320"/>
      <point x="1370" y="1330"/>
      <point x="1363" y="1343" type="curve" smooth="yes"/>
      <point x="1288" y="1464"/>
      <point x="1210" y="1515"/>
      <point x="1103" y="1515" type="curve" smooth="yes"/>
      <point x="921" y="1515"/>
      <point x="796" y="1326"/>
      <point x="755" y="1003" type="curve"/>
      <point x="714" y="1326"/>
      <point x="589" y="1515"/>
      <point x="406" y="1515" type="curve" smooth="yes"/>
      <point x="306" y="1515"/>
      <point x="221" y="1458"/>
      <point x="151" y="1345" type="curve" smooth="yes"/>
      <point x="144" y="1334"/>
      <point x="144" y="1324"/>
      <point x="153" y="1318" type="curve" smooth="yes"/>
      <point x="164" y="1309"/>
      <point x="174" y="1311"/>
      <point x="183" y="1326" type="curve" smooth="yes"/>
      <point x="241" y="1426"/>
      <point x="316" y="1478"/>
      <point x="405" y="1478" type="curve" smooth="yes"/>
      <point x="610" y="1478"/>
      <point x="735" y="1201"/>
      <point x="735" y="748" type="curve" smooth="yes"/>
      <point x="735" y="325"/>
      <point x="591" y="20"/>
      <point x="394" y="20" type="curve" smooth="yes"/>
      <point x="291" y="20"/>
      <point x="221" y="69"/>
      <point x="159" y="185" type="curve" smooth="yes"/>
      <point x="153" y="196"/>
      <point x="144" y="198"/>
      <point x="134" y="191" type="curve" smooth="yes"/>
      <point x="124" y="185"/>
      <point x="123" y="175"/>
      <point x="129" y="164" type="curve" smooth="yes"/>
      <point x="200" y="36"/>
      <point x="279" y="-17"/>
    </contour>
  </outline>
</glyph>
<glyph name="X.dec.ini" format="2">
  <advance width="1291"/>
  <anchor x="1291" y="0" name="cnct"/>
  <outline>
    <contour>
      <point x="395" y="-17" type="curve" smooth="yes"/>
      <point x="571" y="-17"/>
      <point x="706" y="191"/>
      <point x="753" y="504" type="curve"/>
      <point x="794" y="158"/>
      <point x="929" y="-17"/>
      <point x="1156" y="-17" type="curve" smooth="yes"/>
      <point x="1181" y="-17"/>
      <point x="1181" y="18"/>
      <point x="1156" y="18" type="curve" smooth="yes"/>
      <point x="904" y="18"/>
      <point x="775" y="264"/>
      <point x="775" y="748" type="curve" smooth="yes"/>
      <point x="775" y="1201"/>
      <point x="896" y="1478"/>
      <point x="1096" y="1478" type="curve" smooth="yes"/>
      <point x="1178" y="1478"/>
      <point x="1243" y="1436"/>
      <point x="1314" y="1323" type="curve" smooth="yes"/>
      <point x="1321" y="1310"/>
      <point x="1330" y="1306"/>
      <point x="1341" y="1314" type="curve" smooth="yes"/>
      <point x="1351" y="1320"/>
      <point x="1351" y="1330"/>
      <point x="1344" y="1343" type="curve" smooth="yes"/>
      <point x="1270" y="1463"/>
      <point x="1186" y="1515"/>
      <point x="1096" y="1515" type="curve" smooth="yes"/>
      <point x="918" y="1515"/>
      <point x="795" y="1326"/>
      <point x="755" y="1004" type="curve"/>
      <point x="714" y="1326"/>
      <point x="589" y="1515"/>
      <point x="406" y="1515" type="curve" smooth="yes"/>
      <point x="306" y="1515"/>
      <point x="221" y="1458"/>
      <point x="151" y="1345" type="curve" smooth="yes"/>
      <point x="144" y="1334"/>
      <point x="144" y="1324"/>
      <point x="153" y="1318" type="curve" smooth="yes"/>
      <point x="164" y="1309"/>
      <point x="174" y="1311"/>
      <point x="183" y="1326" type="curve" smooth="yes"/>
      <point x="241" y="1426"/>
      <point x="316" y="1478"/>
      <point x="405" y="1478" type="curve" smooth="yes"/>
      <point x="610" y="1478"/>
      <point x="735" y="1201"/>
      <point x="735" y="748" type="curve" smooth="yes"/>
      <point x="735" y="325"/>
      <point x="591" y="20"/>
      <point x="394" y="20" type="curve" smooth="yes"/>
      <point x="291" y="20"/>
      <point x="221" y="69"/>
      <point x="159" y="185" type="curve" smooth="yes"/>
      <point x="153" y="196"/>
      <point x="144" y="198"/>
      <point x="134" y="191" type="curve" smooth="yes"/>
      <point x="124" y="185"/>
      <point x="123" y="175"/>
      <point x="129" y="164" type="curve" smooth="yes"/>
      <point x="200" y="36"/>
      <point x="279" y="-17"/>
    </contour>
  </outline>
</glyph>
<glyph name="X.dec_locl" format="2">
  <advance width="1564"/>
  <outline>
    <contour>
      <point x="1111" y="-17" type="curve" smooth="yes"/>
      <point x="1228" y="-17"/>
      <point x="1325" y="44"/>
      <point x="1400" y="165" type="curve" smooth="yes"/>
      <point x="1406" y="175"/>
      <point x="1404" y="184"/>
      <point x="1390" y="190" type="curve" smooth="yes"/>
      <point x="1381" y="194"/>
      <point x="1374" y="193"/>
      <point x="1369" y="183" type="curve" smooth="yes"/>
      <point x="1306" y="75"/>
      <point x="1220" y="20"/>
      <point x="1115" y="20" type="curve" smooth="yes"/>
      <point x="910" y="20"/>
      <point x="805" y="265"/>
      <point x="805" y="748" type="curve" smooth="yes"/>
      <point x="805" y="1200"/>
      <point x="935" y="1475"/>
      <point x="1148" y="1475" type="curve" smooth="yes"/>
      <point x="1286" y="1475"/>
      <point x="1370" y="1366"/>
      <point x="1370" y="1186" type="curve" smooth="yes"/>
      <point x="1370" y="558"/>
      <point x="158" y="996"/>
      <point x="158" y="323" type="curve" smooth="yes"/>
      <point x="158" y="109"/>
      <point x="253" y="-17"/>
      <point x="408" y="-17" type="curve" smooth="yes"/>
      <point x="636" y="-17"/>
      <point x="801" y="304"/>
      <point x="801" y="748" type="curve" smooth="yes"/>
      <point x="801" y="1225"/>
      <point x="663" y="1515"/>
      <point x="438" y="1515" type="curve" smooth="yes"/>
      <point x="336" y="1515"/>
      <point x="251" y="1458"/>
      <point x="181" y="1345" type="curve" smooth="yes"/>
      <point x="174" y="1334"/>
      <point x="174" y="1324"/>
      <point x="183" y="1318" type="curve" smooth="yes"/>
      <point x="193" y="1310"/>
      <point x="204" y="1311"/>
      <point x="213" y="1326" type="curve" smooth="yes"/>
      <point x="271" y="1426"/>
      <point x="346" y="1478"/>
      <point x="435" y="1478" type="curve" smooth="yes"/>
      <point x="640" y="1478"/>
      <point x="765" y="1201"/>
      <point x="765" y="748" type="curve" smooth="yes"/>
      <point x="765" y="325"/>
      <point x="615" y="20"/>
      <point x="408" y="20" type="curve" smooth="yes"/>
      <point x="278" y="20"/>
      <point x="199" y="135"/>
      <point x="199" y="323" type="curve" smooth="yes"/>
      <point x="199" y="955"/>
      <point x="1411" y="514"/>
      <point x="1411" y="1186" type="curve" smooth="yes"/>
      <point x="1411" y="1389"/>
      <point x="1311" y="1513"/>
      <point x="1148" y="1513" type="curve" smooth="yes"/>
      <point x="913" y="1513"/>
      <point x="770" y="1223"/>
      <point x="770" y="748" type="curve" smooth="yes"/>
      <point x="770" y="240"/>
      <point x="885" y="-17"/>
    </contour>
  </outline>
</glyph>
<glyph name="X.dec_ro" format="2">
  <advance width="1491"/>
  <outline>
    <contour>
      <point x="471" y="745" type="curve" smooth="yes"/>
      <point x="1035" y="745" type="line" smooth="yes"/>
      <point x="1043" y="745"/>
      <point x="1046" y="753"/>
      <point x="1046" y="764" type="curve" smooth="yes"/>
      <point x="1046" y="775"/>
      <point x="1043" y="780"/>
      <point x="1035" y="780" type="curve" smooth="yes"/>
      <point x="471" y="780" type="line" smooth="yes"/>
      <point x="464" y="780"/>
      <point x="460" y="775"/>
      <point x="460" y="764" type="curve" smooth="yes"/>
      <point x="460" y="753"/>
      <point x="464" y="745"/>
    </contour>
    <component base="X.dec"/>
  </outline>
</glyph>
<glyph name="Y.cur.ini" format="2">
  <advance width="1240"/>
  <anchor x="700" y="0" name="bottom"/>
  <anchor x="1240" y="0" name="cnct"/>
  <anchor x="719" y="1424" name="top"/>
  <outline>
    <contour>
      <point x="699" y="88" type="curve" smooth="yes"/>
      <point x="868" y="88"/>
      <point x="991" y="178"/>
      <point x="1050" y="334" type="curve"/>
      <point x="1050" y="-635" type="line" smooth="yes"/>
      <point x="1050" y="-867"/>
      <point x="986" y="-985"/>
      <point x="861" y="-985" type="curve" smooth="yes"/>
      <point x="773" y="-985"/>
      <point x="725" y="-924"/>
      <point x="725" y="-814" type="curve" smooth="yes"/>
      <point x="725" y="-789"/>
      <point x="684" y="-789"/>
      <point x="684" y="-812" type="curve" smooth="yes"/>
      <point x="684" y="-940"/>
      <point x="748" y="-1020"/>
      <point x="858" y="-1020" type="curve" smooth="yes"/>
      <point x="1010" y="-1020"/>
      <point x="1088" y="-890"/>
      <point x="1088" y="-635" type="curve" smooth="yes"/>
      <point x="1088" y="1500" type="line" smooth="yes"/>
      <point x="1088" y="1511"/>
      <point x="1083" y="1515"/>
      <point x="1069" y="1515" type="curve" smooth="yes"/>
      <point x="1055" y="1515"/>
      <point x="1050" y="1511"/>
      <point x="1050" y="1500" type="curve" smooth="yes"/>
      <point x="1050" y="441" type="line"/>
      <point x="1011" y="241"/>
      <point x="884" y="123"/>
      <point x="699" y="123" type="curve" smooth="yes"/>
      <point x="528" y="123"/>
      <point x="438" y="235"/>
      <point x="438" y="468" type="curve" smooth="yes"/>
      <point x="438" y="1308" type="line" smooth="yes"/>
      <point x="438" y="1444"/>
      <point x="385" y="1519"/>
      <point x="274" y="1519" type="curve" smooth="yes"/>
      <point x="190" y="1519"/>
      <point x="111" y="1461"/>
      <point x="40" y="1348" type="curve" smooth="yes"/>
      <point x="35" y="1340"/>
      <point x="33" y="1331"/>
      <point x="45" y="1324" type="curve" smooth="yes"/>
      <point x="58" y="1315"/>
      <point x="65" y="1318"/>
      <point x="70" y="1326" type="curve" smooth="yes"/>
      <point x="141" y="1440"/>
      <point x="205" y="1485"/>
      <point x="274" y="1485" type="curve" smooth="yes"/>
      <point x="361" y="1485"/>
      <point x="400" y="1423"/>
      <point x="400" y="1308" type="curve" smooth="yes"/>
      <point x="400" y="468" type="line" smooth="yes"/>
      <point x="400" y="211"/>
      <point x="504" y="88"/>
    </contour>
  </outline>
</glyph>
<glyph name="Z.cur" format="2">
  <advance width="1150"/>
  <anchor x="550" y="0" name="bottom"/>
  <anchor x="550" y="786" name="center"/>
  <anchor x="550" y="1424" name="top"/>
  <outline>
    <contour>
      <point x="540" y="-1020" type="curve" smooth="yes"/>
      <point x="736" y="-1020"/>
      <point x="798" y="-781"/>
      <point x="798" y="-312" type="curve" smooth="yes"/>
      <point x="798" y="179"/>
      <point x="709" y="371"/>
      <point x="485" y="386" type="curve"/>
      <point x="483" y="388" type="line"/>
      <point x="815" y="523"/>
      <point x="1020" y="755"/>
      <point x="1020" y="1076" type="curve" smooth="yes"/>
      <point x="1020" y="1349"/>
      <point x="856" y="1515"/>
      <point x="586" y="1515" type="curve" smooth="yes"/>
      <point x="390" y="1515"/>
      <point x="250" y="1441"/>
      <point x="93" y="1305" type="curve" smooth="yes"/>
      <point x="84" y="1296"/>
      <point x="83" y="1289"/>
      <point x="89" y="1280" type="curve" smooth="yes"/>
      <point x="98" y="1268"/>
      <point x="108" y="1268"/>
      <point x="119" y="1278" type="curve" smooth="yes"/>
      <point x="260" y="1400"/>
      <point x="399" y="1478"/>
      <point x="581" y="1478" type="curve" smooth="yes"/>
      <point x="829" y="1478"/>
      <point x="979" y="1325"/>
      <point x="979" y="1076" type="curve" smooth="yes"/>
      <point x="979" y="776"/>
      <point x="796" y="551"/>
      <point x="439" y="409" type="curve" smooth="yes"/>
      <point x="403" y="394"/>
      <point x="416" y="354"/>
      <point x="443" y="354" type="curve" smooth="yes"/>
      <point x="678" y="351"/>
      <point x="756" y="181"/>
      <point x="756" y="-312" type="curve" smooth="yes"/>
      <point x="756" y="-759"/>
      <point x="703" y="-985"/>
      <point x="544" y="-985" type="curve" smooth="yes"/>
      <point x="463" y="-985"/>
      <point x="410" y="-924"/>
      <point x="410" y="-814" type="curve" smooth="yes"/>
      <point x="410" y="-542"/>
      <point x="651" y="-254"/>
      <point x="1105" y="85" type="curve" smooth="yes"/>
      <point x="1116" y="94"/>
      <point x="1119" y="101"/>
      <point x="1114" y="110" type="curve" smooth="yes"/>
      <point x="1108" y="121"/>
      <point x="1098" y="123"/>
      <point x="1088" y="115" type="curve" smooth="yes"/>
      <point x="616" y="-234"/>
      <point x="369" y="-539"/>
      <point x="369" y="-812" type="curve" smooth="yes"/>
      <point x="369" y="-940"/>
      <point x="438" y="-1020"/>
    </contour>
  </outline>
</glyph>
<glyph name="Z.cur.ini" format="2">
  <advance width="1000"/>
  <anchor x="600" y="0" name="bottom"/>
  <anchor x="600" y="786" name="center"/>
  <anchor x="1000" y="0" name="cnct"/>
  <anchor x="600" y="1424" name="top"/>
  <outline>
    <contour>
      <point x="616" y="-1020" type="curve" smooth="yes"/>
      <point x="785" y="-1020"/>
      <point x="855" y="-849"/>
      <point x="855" y="-442" type="curve" smooth="yes"/>
      <point x="855" y="175"/>
      <point x="760" y="386"/>
      <point x="485" y="386" type="curve"/>
      <point x="483" y="388" type="line"/>
      <point x="815" y="523"/>
      <point x="1020" y="755"/>
      <point x="1020" y="1076" type="curve" smooth="yes"/>
      <point x="1020" y="1349"/>
      <point x="856" y="1515"/>
      <point x="586" y="1515" type="curve" smooth="yes"/>
      <point x="390" y="1515"/>
      <point x="250" y="1441"/>
      <point x="93" y="1305" type="curve" smooth="yes"/>
      <point x="84" y="1296"/>
      <point x="83" y="1289"/>
      <point x="89" y="1280" type="curve" smooth="yes"/>
      <point x="98" y="1268"/>
      <point x="108" y="1268"/>
      <point x="119" y="1278" type="curve" smooth="yes"/>
      <point x="260" y="1400"/>
      <point x="399" y="1478"/>
      <point x="581" y="1478" type="curve" smooth="yes"/>
      <point x="829" y="1478"/>
      <point x="979" y="1325"/>
      <point x="979" y="1076" type="curve" smooth="yes"/>
      <point x="979" y="776"/>
      <point x="796" y="551"/>
      <point x="439" y="409" type="curve" smooth="yes"/>
      <point x="403" y="394"/>
      <point x="416" y="354"/>
      <point x="443" y="354" type="curve" smooth="yes"/>
      <point x="726" y="356"/>
      <point x="814" y="184"/>
      <point x="814" y="-442" type="curve" smooth="yes"/>
      <point x="814" y="-825"/>
      <point x="756" y="-985"/>
      <point x="620" y="-985" type="curve" smooth="yes"/>
      <point x="536" y="-985"/>
      <point x="485" y="-920"/>
      <point x="485" y="-814" type="curve" smooth="yes"/>
      <point x="485" y="-789"/>
      <point x="444" y="-787"/>
      <point x="444" y="-812" type="curve" smooth="yes"/>
      <point x="444" y="-941"/>
      <point x="509" y="-1020"/>
    </contour>
  </outline>
</glyph>
<glyph name=".notdef" format="2">
  <advance width="1300"/>
  <outline>
    <contour>
      <point x="229" y="1503" type="line"/>
      <point x="229" y="0" type="line"/>
      <point x="1071" y="0" type="line"/>
      <point x="1071" y="1503" type="line"/>
    </contour>
    <contour>
      <point x="265" y="1466" type="line"/>
      <point x="1035" y="1466" type="line"/>
      <point x="1035" y="36" type="line"/>
      <point x="265" y="36" type="line"/>
    </contour>
  </outline>
</glyph>
<glyph name="ae.ful" format="2">
  <advance width="775"/>
  <anchor x="437" y="500" name="top"/>
  <outline>
    <contour>
      <point x="261" y="-17" type="curve" smooth="yes"/>
      <point x="327" y="-17"/>
      <point x="386" y="8"/>
      <point x="456" y="128" type="curve"/>
      <point x="436" y="158" type="line"/>
      <point x="375" y="41"/>
      <point x="312" y="18"/>
      <point x="268" y="18" type="curve" smooth="yes"/>
      <point x="167" y="18"/>
      <point x="115" y="121"/>
      <point x="115" y="243" type="curve" smooth="yes"/>
      <point x="115" y="408"/>
      <point x="195" y="485"/>
      <point x="308" y="485" type="curve" smooth="yes"/>
      <point x="351" y="485"/>
      <point x="396" y="471"/>
      <point x="440" y="443" type="curve"/>
      <point x="453" y="470" type="line"/>
      <point x="403" y="505"/>
      <point x="353" y="519"/>
      <point x="312" y="519" type="curve" smooth="yes"/>
      <point x="161" y="519"/>
      <point x="75" y="413"/>
      <point x="75" y="239" type="curve" smooth="yes"/>
      <point x="75" y="91"/>
      <point x="150" y="-17"/>
    </contour>
    <contour>
      <point x="642" y="-17" type="curve" smooth="yes"/>
      <point x="725" y="-17"/>
      <point x="782" y="39"/>
      <point x="805" y="73" type="curve" smooth="yes"/>
      <point x="811" y="81"/>
      <point x="805" y="89"/>
      <point x="798" y="94" type="curve" smooth="yes"/>
      <point x="791" y="99"/>
      <point x="783" y="101"/>
      <point x="777" y="94" type="curve" smooth="yes"/>
      <point x="757" y="69"/>
      <point x="717" y="16"/>
      <point x="646" y="16" type="curve" smooth="yes"/>
      <point x="552" y="16"/>
      <point x="433" y="123"/>
      <point x="433" y="311" type="curve" smooth="yes"/>
      <point x="433" y="405"/>
      <point x="483" y="485"/>
      <point x="552" y="485" type="curve" smooth="yes"/>
      <point x="617" y="485"/>
      <point x="655" y="440"/>
      <point x="655" y="365" type="curve" smooth="yes"/>
      <point x="655" y="253"/>
      <point x="538" y="186"/>
      <point x="448" y="159" type="curve"/>
      <point x="462" y="128" type="line"/>
      <point x="570" y="164"/>
      <point x="693" y="244"/>
      <point x="693" y="366" type="curve" smooth="yes"/>
      <point x="693" y="443"/>
      <point x="652" y="519"/>
      <point x="556" y="519" type="curve" smooth="yes"/>
      <point x="462" y="519"/>
      <point x="395" y="425"/>
      <point x="395" y="310" type="curve" smooth="yes"/>
      <point x="395" y="124"/>
      <point x="516" y="-17"/>
    </contour>
  </outline>
</glyph>
<glyph name="ae.ful.ini" format="2">
  <advance width="775"/>
  <anchor x="775" y="0" name="cnct"/>
  <anchor x="437" y="500" name="top"/>
  <outline>
    <contour>
      <point x="261" y="-17" type="curve" smooth="yes"/>
      <point x="327" y="-17"/>
      <point x="386" y="8"/>
      <point x="456" y="128" type="curve"/>
      <point x="436" y="158" type="line"/>
      <point x="375" y="41"/>
      <point x="312" y="18"/>
      <point x="268" y="18" type="curve" smooth="yes"/>
      <point x="167" y="18"/>
      <point x="115" y="121"/>
      <point x="115" y="243" type="curve" smooth="yes"/>
      <point x="115" y="408"/>
      <point x="195" y="485"/>
      <point x="308" y="485" type="curve" smooth="yes"/>
      <point x="351" y="485"/>
      <point x="396" y="471"/>
      <point x="440" y="443" type="curve"/>
      <point x="453" y="470" type="line"/>
      <point x="403" y="505"/>
      <point x="353" y="519"/>
      <point x="312" y="519" type="curve" smooth="yes"/>
      <point x="161" y="519"/>
      <point x="75" y="413"/>
      <point x="75" y="239" type="curve" smooth="yes"/>
      <point x="75" y="91"/>
      <point x="150" y="-17"/>
    </contour>
    <contour>
      <point x="550" y="519" type="curve" smooth="yes"/>
      <point x="525" y="519"/>
      <point x="521" y="485"/>
      <point x="546" y="485" type="curve" smooth="yes"/>
      <point x="618" y="485"/>
      <point x="655" y="433"/>
      <point x="655" y="370" type="curve" smooth="yes"/>
      <point x="655" y="269"/>
      <point x="568" y="180"/>
      <point x="448" y="159" type="curve"/>
      <point x="462" y="128" type="line"/>
      <point x="596" y="155"/>
      <point x="693" y="253"/>
      <point x="693" y="374" type="curve" smooth="yes"/>
      <point x="693" y="453"/>
      <point x="645" y="519"/>
    </contour>
  </outline>
</glyph>
<glyph name="ae.ful.med" format="2">
  <advance width="788"/>
  <anchor x="788" y="0" name="cnct"/>
  <anchor x="450" y="500" name="top"/>
  <outline>
    <contour>
      <point x="274" y="-17" type="curve" smooth="yes"/>
      <point x="340" y="-17"/>
      <point x="399" y="8"/>
      <point x="469" y="128" type="curve"/>
      <point x="449" y="158" type="line"/>
      <point x="388" y="41"/>
      <point x="325" y="18"/>
      <point x="281" y="18" type="curve" smooth="yes"/>
      <point x="180" y="18"/>
      <point x="128" y="121"/>
      <point x="128" y="243" type="curve" smooth="yes"/>
      <point x="128" y="408"/>
      <point x="208" y="485"/>
      <point x="321" y="485" type="curve" smooth="yes"/>
      <point x="364" y="485"/>
      <point x="409" y="471"/>
      <point x="453" y="443" type="curve"/>
      <point x="466" y="470" type="line"/>
      <point x="416" y="505"/>
      <point x="366" y="519"/>
      <point x="325" y="519" type="curve" smooth="yes"/>
      <point x="174" y="519"/>
      <point x="88" y="413"/>
      <point x="88" y="239" type="curve" smooth="yes"/>
      <point x="88" y="91"/>
      <point x="163" y="-17"/>
    </contour>
    <contour>
      <point x="563" y="519" type="curve" smooth="yes"/>
      <point x="538" y="519"/>
      <point x="534" y="485"/>
      <point x="559" y="485" type="curve" smooth="yes"/>
      <point x="631" y="485"/>
      <point x="668" y="433"/>
      <point x="668" y="370" type="curve" smooth="yes"/>
      <point x="668" y="269"/>
      <point x="581" y="180"/>
      <point x="461" y="159" type="curve"/>
      <point x="475" y="128" type="line"/>
      <point x="609" y="155"/>
      <point x="706" y="253"/>
      <point x="706" y="374" type="curve" smooth="yes"/>
      <point x="706" y="453"/>
      <point x="658" y="519"/>
    </contour>
  </outline>
</glyph>
<glyph name="ae.mod.ini" format="2">
  <advance width="880"/>
  <anchor x="880" y="0" name="cnct"/>
  <anchor x="493" y="500" name="top"/>
  <outline>
    <contour>
      <point x="828" y="396" type="curve" smooth="yes"/>
      <point x="828" y="471"/>
      <point x="770" y="519"/>
      <point x="663" y="519" type="curve" smooth="yes"/>
      <point x="593" y="519"/>
      <point x="548" y="500"/>
      <point x="496" y="468" type="curve"/>
      <point x="517" y="438" type="line"/>
      <point x="560" y="469"/>
      <point x="611" y="485"/>
      <point x="660" y="485" type="curve" smooth="yes"/>
      <point x="738" y="485"/>
      <point x="788" y="454"/>
      <point x="788" y="395" type="curve" smooth="yes"/>
      <point x="788" y="288"/>
      <point x="643" y="241"/>
      <point x="475" y="243" type="curve"/>
      <point x="475" y="209" type="line"/>
      <point x="675" y="210"/>
      <point x="828" y="270"/>
    </contour>
    <contour>
      <point x="745" y="-17" type="curve" smooth="yes"/>
      <point x="772" y="-17"/>
      <point x="771" y="18"/>
      <point x="745" y="18" type="curve" smooth="yes"/>
      <point x="598" y="18"/>
      <point x="487" y="110"/>
      <point x="487" y="265" type="curve" smooth="yes"/>
      <point x="487" y="330"/>
      <point x="502" y="391"/>
      <point x="537" y="466" type="curve"/>
      <point x="470" y="496"/>
      <point x="415" y="519"/>
      <point x="333" y="519" type="curve" smooth="yes"/>
      <point x="168" y="519"/>
      <point x="75" y="376"/>
      <point x="75" y="214" type="curve" smooth="yes"/>
      <point x="75" y="64"/>
      <point x="136" y="-17"/>
      <point x="226" y="-17" type="curve" smooth="yes"/>
      <point x="342" y="-17"/>
      <point x="423" y="86"/>
      <point x="495" y="368" type="curve"/>
      <point x="466" y="378" type="line"/>
      <point x="393" y="109"/>
      <point x="321" y="18"/>
      <point x="230" y="18" type="curve" smooth="yes"/>
      <point x="150" y="18"/>
      <point x="115" y="100"/>
      <point x="115" y="218" type="curve" smooth="yes"/>
      <point x="115" y="371"/>
      <point x="201" y="485"/>
      <point x="330" y="485" type="curve" smooth="yes"/>
      <point x="398" y="485"/>
      <point x="443" y="466"/>
      <point x="505" y="439" type="curve"/>
      <point x="495" y="461" type="line"/>
      <point x="471" y="406"/>
      <point x="448" y="335"/>
      <point x="448" y="256" type="curve" smooth="yes"/>
      <point x="448" y="119"/>
      <point x="545" y="-17"/>
    </contour>
  </outline>
</glyph>
<glyph name="b.ful.fin" format="2">
  <advance width="604"/>
  <anchor x="326" y="0" name="bottom"/>
  <anchor x="326" y="250" name="center"/>
  <anchor x="326" y="500" name="top"/>
  <outline>
    <contour>
      <point x="304" y="-19" type="curve" smooth="yes"/>
      <point x="449" y="-19"/>
      <point x="519" y="114"/>
      <point x="519" y="255" type="curve" smooth="yes"/>
      <point x="519" y="364"/>
      <point x="479" y="458"/>
      <point x="445" y="500" type="curve" smooth="yes"/>
      <point x="433" y="516"/>
      <point x="429" y="519"/>
      <point x="419" y="519" type="curve" smooth="yes"/>
      <point x="410" y="519"/>
      <point x="399" y="510"/>
      <point x="408" y="496" type="curve" smooth="yes"/>
      <point x="464" y="415"/>
      <point x="483" y="344"/>
      <point x="483" y="248" type="curve" smooth="yes"/>
      <point x="483" y="109"/>
      <point x="403" y="15"/>
      <point x="310" y="15" type="curve" smooth="yes"/>
      <point x="221" y="15"/>
      <point x="174" y="81"/>
      <point x="174" y="200" type="curve" smooth="yes"/>
      <point x="174" y="1501" type="line" smooth="yes"/>
      <point x="174" y="1513"/>
      <point x="169" y="1516"/>
      <point x="156" y="1516" type="curve" smooth="yes"/>
      <point x="144" y="1516"/>
      <point x="138" y="1513"/>
      <point x="138" y="1501" type="curve" smooth="yes"/>
      <point x="138" y="193" type="line" smooth="yes"/>
      <point x="138" y="53"/>
      <point x="209" y="-19"/>
    </contour>
  </outline>
</glyph>
<glyph name="b.ful" format="2">
  <advance width="585"/>
  <anchor x="307" y="0" name="bottom"/>
  <anchor x="307" y="250" name="center"/>
  <anchor x="307" y="500" name="top"/>
  <outline>
    <contour>
      <point x="285" y="-19" type="curve" smooth="yes"/>
      <point x="430" y="-19"/>
      <point x="500" y="114"/>
      <point x="500" y="255" type="curve" smooth="yes"/>
      <point x="500" y="364"/>
      <point x="460" y="458"/>
      <point x="426" y="500" type="curve" smooth="yes"/>
      <point x="414" y="516"/>
      <point x="410" y="519"/>
      <point x="400" y="519" type="curve" smooth="yes"/>
      <point x="391" y="519"/>
      <point x="380" y="510"/>
      <point x="389" y="496" type="curve" smooth="yes"/>
      <point x="445" y="415"/>
      <point x="464" y="344"/>
      <point x="464" y="248" type="curve" smooth="yes"/>
      <point x="464" y="109"/>
      <point x="384" y="15"/>
      <point x="291" y="15" type="curve" smooth="yes"/>
      <point x="202" y="15"/>
      <point x="155" y="81"/>
      <point x="155" y="200" type="curve" smooth="yes"/>
      <point x="155" y="1501" type="line" smooth="yes"/>
      <point x="155" y="1513"/>
      <point x="150" y="1516"/>
      <point x="137" y="1516" type="curve" smooth="yes"/>
      <point x="125" y="1516"/>
      <point x="119" y="1513"/>
      <point x="119" y="1501" type="curve" smooth="yes"/>
      <point x="119" y="193" type="line" smooth="yes"/>
      <point x="119" y="53"/>
      <point x="190" y="-19"/>
    </contour>
  </outline>
</glyph>
<glyph name="b.jmc_dk.fin" format="2">
  <advance width="623"/>
  <anchor x="321" y="0" name="bottom"/>
  <anchor x="341" y="250" name="center"/>
  <anchor x="448" y="500" name="top"/>
  <outline>
    <contour>
      <point x="161" y="-15" type="curve" smooth="yes"/>
      <point x="174" y="-15"/>
      <point x="180" y="-11"/>
      <point x="180" y="0" type="curve" smooth="yes"/>
      <point x="180" y="1294" type="line" smooth="yes"/>
      <point x="180" y="1423"/>
      <point x="206" y="1484"/>
      <point x="261" y="1484" type="curve" smooth="yes"/>
      <point x="311" y="1484"/>
      <point x="336" y="1423"/>
      <point x="336" y="1293" type="curve" smooth="yes"/>
      <point x="336" y="929"/>
      <point x="276" y="616"/>
      <point x="166" y="301" type="curve"/>
      <point x="178" y="254" type="line"/>
      <point x="274" y="500"/>
      <point x="375" y="839"/>
      <point x="375" y="1293" type="curve" smooth="yes"/>
      <point x="375" y="1446"/>
      <point x="338" y="1519"/>
      <point x="261" y="1519" type="curve" smooth="yes"/>
      <point x="181" y="1519"/>
      <point x="144" y="1446"/>
      <point x="144" y="1294" type="curve" smooth="yes"/>
      <point x="144" y="0" type="line" smooth="yes"/>
      <point x="144" y="-11"/>
      <point x="149" y="-15"/>
    </contour>
    <contour>
      <point x="155" y="57" type="curve" smooth="yes"/>
      <point x="202" y="8"/>
      <point x="259" y="-17"/>
      <point x="318" y="-17" type="curve" smooth="yes"/>
      <point x="457" y="-17"/>
      <point x="548" y="90"/>
      <point x="548" y="286" type="curve" smooth="yes"/>
      <point x="548" y="434"/>
      <point x="486" y="518"/>
      <point x="385" y="518" type="curve" smooth="yes"/>
      <point x="237" y="518"/>
      <point x="161" y="305"/>
      <point x="161" y="191" type="curve"/>
      <point x="180" y="181" type="line"/>
      <point x="180" y="288"/>
      <point x="258" y="483"/>
      <point x="381" y="483" type="curve" smooth="yes"/>
      <point x="456" y="483"/>
      <point x="508" y="411"/>
      <point x="508" y="283" type="curve" smooth="yes"/>
      <point x="508" y="110"/>
      <point x="433" y="16"/>
      <point x="321" y="16" type="curve" smooth="yes"/>
      <point x="265" y="16"/>
      <point x="209" y="40"/>
      <point x="177" y="79" type="curve" smooth="yes"/>
      <point x="165" y="94"/>
      <point x="145" y="68"/>
    </contour>
  </outline>
</glyph>
<glyph name="b.jmc_dk" format="2">
  <advance width="623"/>
  <anchor x="321" y="0" name="bottom"/>
  <anchor x="341" y="250" name="center"/>
  <anchor x="448" y="500" name="top"/>
  <outline>
    <contour>
      <point x="-56" y="-17" type="curve" smooth="yes"/>
      <point x="21" y="-17"/>
      <point x="85" y="53"/>
      <point x="161" y="241" type="curve" smooth="yes"/>
      <point x="170" y="263"/>
      <point x="159" y="304"/>
      <point x="149" y="280" type="curve" smooth="yes"/>
      <point x="63" y="81"/>
      <point x="9" y="18"/>
      <point x="-56" y="18" type="curve" smooth="yes"/>
      <point x="-81" y="18"/>
      <point x="-82" y="-17"/>
    </contour>
    <component base="b.jmc_dk.fin"/>
  </outline>
</glyph>
<glyph name="b.jmc_dk.ini" format="2">
  <advance width="623"/>
  <anchor x="623" y="0" name="cnct"/>
  <anchor x="321" y="0" name="bottom"/>
  <anchor x="341" y="250" name="center"/>
  <anchor x="448" y="500" name="top"/>
  <outline>
    <contour>
      <point x="563" y="-17" type="curve" smooth="yes"/>
      <point x="588" y="-17"/>
      <point x="588" y="18"/>
      <point x="563" y="18" type="curve" smooth="yes"/>
      <point x="499" y="18"/>
      <point x="478" y="35"/>
      <point x="387" y="5" type="curve"/>
      <point x="366" y="-12" type="line"/>
      <point x="444" y="9"/>
      <point x="471" y="-17"/>
    </contour>
    <component base="b.jmc_dk"/>
  </outline>
</glyph>
<glyph name="b.mlp.fin" format="2">
  <advance width="614"/>
  <anchor x="336" y="0" name="bottom"/>
  <anchor x="336" y="250" name="center"/>
  <anchor x="336" y="500" name="top"/>
  <outline>
    <contour>
      <point x="314" y="-19" type="curve" smooth="yes"/>
      <point x="453" y="-19"/>
      <point x="529" y="100"/>
      <point x="529" y="280" type="curve" smooth="yes"/>
      <point x="529" y="424"/>
      <point x="491" y="519"/>
      <point x="434" y="519" type="curve" smooth="yes"/>
      <point x="401" y="519"/>
      <point x="378" y="495"/>
      <point x="378" y="463" type="curve" smooth="yes"/>
      <point x="378" y="409"/>
      <point x="438" y="381"/>
      <point x="493" y="381" type="curve" smooth="yes"/>
      <point x="549" y="381"/>
      <point x="590" y="408"/>
      <point x="626" y="440" type="curve" smooth="yes"/>
      <point x="640" y="451"/>
      <point x="623" y="474"/>
      <point x="610" y="463" type="curve" smooth="yes"/>
      <point x="565" y="425"/>
      <point x="535" y="413"/>
      <point x="495" y="413" type="curve" smooth="yes"/>
      <point x="460" y="413"/>
      <point x="410" y="426"/>
      <point x="410" y="464" type="curve" smooth="yes"/>
      <point x="410" y="479"/>
      <point x="419" y="489"/>
      <point x="434" y="489" type="curve" smooth="yes"/>
      <point x="468" y="489"/>
      <point x="493" y="404"/>
      <point x="493" y="273" type="curve" smooth="yes"/>
      <point x="493" y="118"/>
      <point x="424" y="15"/>
      <point x="320" y="15" type="curve" smooth="yes"/>
      <point x="231" y="15"/>
      <point x="184" y="81"/>
      <point x="184" y="200" type="curve" smooth="yes"/>
      <point x="184" y="1294" type="line" smooth="yes"/>
      <point x="184" y="1423"/>
      <point x="210" y="1484"/>
      <point x="265" y="1484" type="curve" smooth="yes"/>
      <point x="315" y="1484"/>
      <point x="340" y="1423"/>
      <point x="340" y="1294" type="curve" smooth="yes"/>
      <point x="340" y="1269"/>
      <point x="379" y="1269"/>
      <point x="379" y="1294" type="curve" smooth="yes"/>
      <point x="379" y="1446"/>
      <point x="341" y="1519"/>
      <point x="265" y="1519" type="curve" smooth="yes"/>
      <point x="185" y="1519"/>
      <point x="148" y="1446"/>
      <point x="148" y="1294" type="curve" smooth="yes"/>
      <point x="148" y="193" type="line" smooth="yes"/>
      <point x="148" y="53"/>
      <point x="219" y="-19"/>
    </contour>
  </outline>
</glyph>
<glyph name="c.mod.ini" format="2">
  <advance width="522"/>
  <anchor x="273" y="0" name="bottom"/>
  <anchor x="522" y="0" name="cnct"/>
  <anchor x="270" y="500" name="top"/>
  <outline>
    <contour>
      <point x="316" y="-17" type="curve" smooth="yes"/>
      <point x="343" y="-17"/>
      <point x="342" y="16"/>
      <point x="317" y="16" type="curve" smooth="yes"/>
      <point x="191" y="16"/>
      <point x="113" y="103"/>
      <point x="113" y="243" type="curve" smooth="yes"/>
      <point x="113" y="396"/>
      <point x="185" y="485"/>
      <point x="292" y="485" type="curve" smooth="yes"/>
      <point x="352" y="485"/>
      <point x="387" y="464"/>
      <point x="427" y="424" type="curve" smooth="yes"/>
      <point x="432" y="419"/>
      <point x="441" y="415"/>
      <point x="450" y="424" type="curve" smooth="yes"/>
      <point x="461" y="435"/>
      <point x="458" y="440"/>
      <point x="455" y="446" type="curve"/>
      <point x="418" y="490"/>
      <point x="357" y="519"/>
      <point x="296" y="519" type="curve" smooth="yes"/>
      <point x="153" y="519"/>
      <point x="75" y="401"/>
      <point x="75" y="239" type="curve" smooth="yes"/>
      <point x="75" y="80"/>
      <point x="166" y="-17"/>
    </contour>
  </outline>
</glyph>
<glyph name="caroncomb.case" format="2">
  <anchor x="0" y="1425" name="_top"/>
  <anchor x="0" y="1730" name="top"/>
  <outline>
    <contour>
      <point x="178" y="1774" type="curve" smooth="yes"/>
      <point x="173" y="1774"/>
      <point x="169" y="1771"/>
      <point x="165" y="1768" type="curve" smooth="yes"/>
      <point x="0" y="1626" type="line"/>
      <point x="-165" y="1768" type="line" smooth="yes"/>
      <point x="-169" y="1771"/>
      <point x="-172" y="1774"/>
      <point x="-177" y="1774" type="curve" smooth="yes"/>
      <point x="-186" y="1774"/>
      <point x="-194" y="1766"/>
      <point x="-194" y="1756" type="curve" smooth="yes"/>
      <point x="-194" y="1753"/>
      <point x="-192" y="1749"/>
      <point x="-189" y="1745" type="curve" smooth="yes"/>
      <point x="-16" y="1589" type="line" smooth="yes"/>
      <point x="-9" y="1581"/>
      <point x="-5" y="1580"/>
      <point x="0" y="1580" type="curve" smooth="yes"/>
      <point x="5" y="1580"/>
      <point x="9" y="1581"/>
      <point x="16" y="1589" type="curve" smooth="yes"/>
      <point x="189" y="1744" type="line" smooth="yes"/>
      <point x="193" y="1748"/>
      <point x="194" y="1751"/>
      <point x="194" y="1755" type="curve" smooth="yes"/>
      <point x="194" y="1765"/>
      <point x="186" y="1774"/>
    </contour>
  </outline>
</glyph>
<glyph name="circumflexcomb.case" format="2">
  <anchor x="0" y="1425" name="_top"/>
  <anchor x="0" y="1730" name="top"/>
  <outline>
    <contour>
      <point x="-177" y="1573" type="curve" smooth="yes"/>
      <point x="-172" y="1573"/>
      <point x="-169" y="1575"/>
      <point x="-165" y="1579" type="curve" smooth="yes"/>
      <point x="0" y="1720" type="line"/>
      <point x="165" y="1579" type="line" smooth="yes"/>
      <point x="169" y="1575"/>
      <point x="173" y="1573"/>
      <point x="178" y="1573" type="curve" smooth="yes"/>
      <point x="186" y="1573"/>
      <point x="194" y="1580"/>
      <point x="194" y="1590" type="curve" smooth="yes"/>
      <point x="194" y="1594"/>
      <point x="193" y="1598"/>
      <point x="189" y="1601" type="curve" smooth="yes"/>
      <point x="16" y="1758" type="line" smooth="yes"/>
      <point x="9" y="1765"/>
      <point x="5" y="1766"/>
      <point x="0" y="1766" type="curve" smooth="yes"/>
      <point x="-5" y="1766"/>
      <point x="-9" y="1765"/>
      <point x="-16" y="1758" type="curve" smooth="yes"/>
      <point x="-189" y="1603" type="line" smooth="yes"/>
      <point x="-192" y="1599"/>
      <point x="-194" y="1595"/>
      <point x="-194" y="1591" type="curve" smooth="yes"/>
      <point x="-194" y="1581"/>
      <point x="-186" y="1573"/>
    </contour>
  </outline>
</glyph>
